<?xml version="1.0" encoding="utf-8" standalone="no"?>
<!DOCTYPE svg PUBLIC "-//W3C//DTD SVG 1.1//EN"
  "http://www.w3.org/Graphics/SVG/1.1/DTD/svg11.dtd">
<svg xmlns:xlink="http://www.w3.org/1999/xlink" width="714.6pt" height="265.536pt" viewBox="0 0 714.6 265.536" xmlns="http://www.w3.org/2000/svg" version="1.1">
 <metadata>
  <rdf:RDF xmlns:dc="http://purl.org/dc/elements/1.1/" xmlns:cc="http://creativecommons.org/ns#" xmlns:rdf="http://www.w3.org/1999/02/22-rdf-syntax-ns#">
   <cc:Work>
    <dc:type rdf:resource="http://purl.org/dc/dcmitype/StillImage"/>
    <dc:date>2026-09-21T22:06:24.542761</dc:date>
    <dc:format>image/svg+xml</dc:format>
    <dc:creator>
     <cc:Agent>
      <dc:title>Matplotlib v3.11.2, https://matplotlib.org/</dc:title>
     </cc:Agent>
    </dc:creator>
   </cc:Work>
  </rdf:RDF>
 </metadata>
 <defs>
  <style type="text/css">*{stroke-linejoin: round; stroke-linecap: butt}</style>
 </defs>
 <g id="figure_1">
  <g id="patch_1">
   <path d="M 0 265.536 
L 714.6 265.536 
L 714.6 0 
L 0 0 
z
" style="fill: #fcfcfb"/>
  </g>
  <g id="axes_1">
   <g id="patch_2">
    <path d="M 47.3904 91.188 
L 74.0016 91.188 
Q 77.328 91.188 77.328 87.8616 
L 77.328 66.7944 
Q 77.328 63.468 74.0016 63.468 
L 47.3904 63.468 
Q 44.064 63.468 44.064 66.7944 
L 44.064 87.8616 
Q 44.064 91.188 47.3904 91.188 
z
" clip-path="url(#p97c9393aa3)" style="fill: #b7d3f6; stroke: #52514e; stroke-width: 0.8; stroke-linejoin: miter"/>
   </g>
   <g id="patch_3">
    <path d="M 91.7424 91.188 
L 118.3536 91.188 
Q 121.68 91.188 121.68 87.8616 
L 121.68 66.7944 
Q 121.68 63.468 118.3536 63.468 
L 91.7424 63.468 
Q 88.416 63.468 88.416 66.7944 
L 88.416 87.8616 
Q 88.416 91.188 91.7424 91.188 
z
" clip-path="url(#p97c9393aa3)" style="fill: #b7d3f6; stroke: #52514e; stroke-width: 0.8; stroke-linejoin: miter"/>
   </g>
   <g id="patch_4">
    <path d="M 136.0944 91.188 
L 162.7056 91.188 
Q 166.032 91.188 166.032 87.8616 
L 166.032 66.7944 
Q 166.032 63.468 162.7056 63.468 
L 136.0944 63.468 
Q 132.768 63.468 132.768 66.7944 
L 132.768 87.8616 
Q 132.768 91.188 136.0944 91.188 
z
" clip-path="url(#p97c9393aa3)" style="fill: #b7d3f6; stroke: #52514e; stroke-width: 0.8; stroke-linejoin: miter"/>
   </g>
   <g id="patch_5">
    <path d="M 224.7984 91.188 
L 251.4096 91.188 
Q 254.736 91.188 254.736 87.8616 
L 254.736 66.7944 
Q 254.736 63.468 251.4096 63.468 
L 224.7984 63.468 
Q 221.472 63.468 221.472 66.7944 
L 221.472 87.8616 
Q 221.472 91.188 224.7984 91.188 
z
" clip-path="url(#p97c9393aa3)" style="fill: #b7d3f6; stroke: #52514e; stroke-width: 0.8; stroke-linejoin: miter"/>
   </g>
   <g id="patch_6">
    <path d="M 269.1504 91.188 
L 295.7616 91.188 
Q 299.088 91.188 299.088 87.8616 
L 299.088 66.7944 
Q 299.088 63.468 295.7616 63.468 
L 269.1504 63.468 
Q 265.824 63.468 265.824 66.7944 
L 265.824 87.8616 
Q 265.824 91.188 269.1504 91.188 
z
" clip-path="url(#p97c9393aa3)" style="fill: #b7d3f6; stroke: #52514e; stroke-width: 0.8; stroke-linejoin: miter"/>
   </g>
   <g id="patch_7">
    <path d="M 31.8672 224.244 
L 311.2848 224.244 
Q 315.72 224.244 315.72 219.8088 
L 315.72 139.9752 
Q 315.72 135.54 311.2848 135.54 
L 31.8672 135.54 
Q 27.432 135.54 27.432 139.9752 
L 27.432 219.8088 
Q 27.432 224.244 31.8672 224.244 
z
" clip-path="url(#p97c9393aa3)" style="fill: #fcfcfb; stroke: #c3c2b7; stroke-width: 0.8; stroke-linejoin: miter"/>
   </g>
   <g id="patch_8">
    <path d="M 45.7272 188.208 
L 75.6648 188.208 
Q 77.328 188.208 77.328 186.5448 
L 77.328 169.9128 
Q 77.328 168.2496 75.6648 168.2496 
L 45.7272 168.2496 
Q 44.064 168.2496 44.064 169.9128 
L 44.064 186.5448 
Q 44.064 188.208 45.7272 188.208 
z
" clip-path="url(#p97c9393aa3)" style="fill: #cde2fb; stroke: #c3c2b7; stroke-width: 0.6; stroke-linejoin: miter"/>
   </g>
   <g id="patch_9">
    <path d="M 90.0792 188.208 
L 120.0168 188.208 
Q 121.68 188.208 121.68 186.5448 
L 121.68 169.9128 
Q 121.68 168.2496 120.0168 168.2496 
L 90.0792 168.2496 
Q 88.416 168.2496 88.416 169.9128 
L 88.416 186.5448 
Q 88.416 188.208 90.0792 188.208 
z
" clip-path="url(#p97c9393aa3)" style="fill: #cde2fb; stroke: #c3c2b7; stroke-width: 0.6; stroke-linejoin: miter"/>
   </g>
   <g id="patch_10">
    <path d="M 134.4312 188.208 
L 164.3688 188.208 
Q 166.032 188.208 166.032 186.5448 
L 166.032 169.9128 
Q 166.032 168.2496 164.3688 168.2496 
L 134.4312 168.2496 
Q 132.768 168.2496 132.768 169.9128 
L 132.768 186.5448 
Q 132.768 188.208 134.4312 188.208 
z
" clip-path="url(#p97c9393aa3)" style="fill: #cde2fb; stroke: #c3c2b7; stroke-width: 0.6; stroke-linejoin: miter"/>
   </g>
   <g id="patch_11">
    <path d="M 223.1352 188.208 
L 253.0728 188.208 
Q 254.736 188.208 254.736 186.5448 
L 254.736 169.9128 
Q 254.736 168.2496 253.0728 168.2496 
L 223.1352 168.2496 
Q 221.472 168.2496 221.472 169.9128 
L 221.472 186.5448 
Q 221.472 188.208 223.1352 188.208 
z
" clip-path="url(#p97c9393aa3)" style="fill: #cde2fb; stroke: #c3c2b7; stroke-width: 0.6; stroke-linejoin: miter"/>
   </g>
   <g id="patch_12">
    <path d="M 267.4872 188.208 
L 297.4248 188.208 
Q 299.088 188.208 299.088 186.5448 
L 299.088 169.9128 
Q 299.088 168.2496 297.4248 168.2496 
L 267.4872 168.2496 
Q 265.824 168.2496 265.824 169.9128 
L 265.824 186.5448 
Q 265.824 188.208 267.4872 188.208 
z
" clip-path="url(#p97c9393aa3)" style="fill: #cde2fb; stroke: #c3c2b7; stroke-width: 0.6; stroke-linejoin: miter"/>
   </g>
   <g id="patch_13">
    <path d="M 45.7272 217.0368 
L 75.6648 217.0368 
Q 77.328 217.0368 77.328 215.3736 
L 77.328 198.7416 
Q 77.328 197.0784 75.6648 197.0784 
L 45.7272 197.0784 
Q 44.064 197.0784 44.064 198.7416 
L 44.064 215.3736 
Q 44.064 217.0368 45.7272 217.0368 
z
" clip-path="url(#p97c9393aa3)" style="fill: #cde2fb; stroke: #c3c2b7; stroke-width: 0.6; stroke-linejoin: miter"/>
   </g>
   <g id="patch_14">
    <path d="M 90.0792 217.0368 
L 120.0168 217.0368 
Q 121.68 217.0368 121.68 215.3736 
L 121.68 198.7416 
Q 121.68 197.0784 120.0168 197.0784 
L 90.0792 197.0784 
Q 88.416 197.0784 88.416 198.7416 
L 88.416 215.3736 
Q 88.416 217.0368 90.0792 217.0368 
z
" clip-path="url(#p97c9393aa3)" style="fill: #cde2fb; stroke: #c3c2b7; stroke-width: 0.6; stroke-linejoin: miter"/>
   </g>
   <g id="patch_15">
    <path d="M 134.4312 217.0368 
L 164.3688 217.0368 
Q 166.032 217.0368 166.032 215.3736 
L 166.032 198.7416 
Q 166.032 197.0784 164.3688 197.0784 
L 134.4312 197.0784 
Q 132.768 197.0784 132.768 198.7416 
L 132.768 215.3736 
Q 132.768 217.0368 134.4312 217.0368 
z
" clip-path="url(#p97c9393aa3)" style="fill: #cde2fb; stroke: #c3c2b7; stroke-width: 0.6; stroke-linejoin: miter"/>
   </g>
   <g id="patch_16">
    <path d="M 223.1352 217.0368 
L 253.0728 217.0368 
Q 254.736 217.0368 254.736 215.3736 
L 254.736 198.7416 
Q 254.736 197.0784 253.0728 197.0784 
L 223.1352 197.0784 
Q 221.472 197.0784 221.472 198.7416 
L 221.472 215.3736 
Q 221.472 217.0368 223.1352 217.0368 
z
" clip-path="url(#p97c9393aa3)" style="fill: #cde2fb; stroke: #c3c2b7; stroke-width: 0.6; stroke-linejoin: miter"/>
   </g>
   <g id="patch_17">
    <path d="M 267.4872 217.0368 
L 297.4248 217.0368 
Q 299.088 217.0368 299.088 215.3736 
L 299.088 198.7416 
Q 299.088 197.0784 297.4248 197.0784 
L 267.4872 197.0784 
Q 265.824 197.0784 265.824 198.7416 
L 265.824 215.3736 
Q 265.824 217.0368 267.4872 217.0368 
z
" clip-path="url(#p97c9393aa3)" style="fill: #cde2fb; stroke: #c3c2b7; stroke-width: 0.6; stroke-linejoin: miter"/>
   </g>
   <g id="patch_18">
    <path d="M 171.576 93.190357 
Q 171.576 111.981524 171.576 129.542854 
" clip-path="url(#p97c9393aa3)" style="fill: none; stroke: #52514e; stroke-width: 1.1; stroke-linecap: round"/>
    <path d="M 173.776 125.142854 
L 171.576 129.542854 
L 169.376 125.142854 
z
" clip-path="url(#p97c9393aa3)" style="fill: #52514e; stroke: #52514e; stroke-width: 1.1; stroke-linecap: round"/>
   </g>
   <g id="patch_19">
    <path d="M 568.5264 91.188 
L 608.9976 91.188 
Q 612.324 91.188 612.324 87.8616 
L 612.324 66.7944 
Q 612.324 63.468 608.9976 63.468 
L 568.5264 63.468 
Q 565.2 63.468 565.2 66.7944 
L 565.2 87.8616 
Q 565.2 91.188 568.5264 91.188 
z
" clip-path="url(#p97c9393aa3)" style="fill: #86b6ef; stroke: #52514e; stroke-width: 0.8; stroke-linejoin: miter"/>
   </g>
   <g id="patch_20">
    <path d="M 317.198637 178.54376 
Q 421.873398 83.561259 561.9748 85.592441 
" clip-path="url(#p97c9393aa3)" style="fill: none; stroke: #52514e; stroke-width: 1.1; stroke-linecap: round"/>
    <path d="M 557.607154 83.328888 
L 561.9748 85.592441 
L 557.54337 87.728425 
z
" clip-path="url(#p97c9393aa3)" style="fill: #52514e; stroke: #52514e; stroke-width: 1.1; stroke-linecap: round"/>
   </g>
   <g id="patch_21">
    <path d="M 572.4072 196.524 
L 605.1168 196.524 
Q 606.78 196.524 606.78 194.8608 
L 606.78 178.2288 
Q 606.78 176.5656 605.1168 176.5656 
L 572.4072 176.5656 
Q 570.744 176.5656 570.744 178.2288 
L 570.744 194.8608 
Q 570.744 196.524 572.4072 196.524 
z
" clip-path="url(#p97c9393aa3)" style="fill: #cde2fb; stroke: #c3c2b7; stroke-width: 0.6; stroke-linejoin: miter"/>
   </g>
   <g id="patch_22">
    <path d="M 588.4848 93.190357 
Q 588.4848 132.771055 588.4848 171.121914 
" clip-path="url(#p97c9393aa3)" style="fill: none; stroke: #52514e; stroke-width: 1.1; stroke-linecap: round"/>
    <path d="M 590.6848 166.721914 
L 588.4848 171.121914 
L 586.2848 166.721914 
z
" clip-path="url(#p97c9393aa3)" style="fill: #52514e; stroke: #52514e; stroke-width: 1.1; stroke-linecap: round"/>
   </g>
   <g id="text_1">
    <!-- Префилл: $x_1 \ldots x_N$ обрабатываются одним проходом -->
    <g style="fill: #0b0b0b" transform="translate(44.064 27.441305) scale(0.115 -0.115)">
     <defs>
      <path id="DejaVuSans-3b3" d="M 4184 4666 
L 4184 0 
L 3553 0 
L 3553 4134 
L 1259 4134 
L 1259 0 
L 628 0 
L 628 4666 
L 4184 4666 
z
" transform="scale(0.015625)"/>
      <path id="DejaVuSans-3d4" d="M 1159 525 
L 1159 -1331 
L 581 -1331 
L 581 3500 
L 1159 3500 
L 1159 2969 
Q 1341 3281 1617 3432 
Q 1894 3584 2278 3584 
Q 2916 3584 3314 3078 
Q 3713 2572 3713 1747 
Q 3713 922 3314 415 
Q 2916 -91 2278 -91 
Q 1894 -91 1617 61 
Q 1341 213 1159 525 
z
M 3116 1747 
Q 3116 2381 2855 2742 
Q 2594 3103 2138 3103 
Q 1681 3103 1420 2742 
Q 1159 2381 1159 1747 
Q 1159 1113 1420 752 
Q 1681 391 2138 391 
Q 2594 391 2855 752 
Q 3116 1113 3116 1747 
z
" transform="scale(0.015625)"/>
      <path id="DejaVuSans-3c9" d="M 3597 1894 
L 3597 1613 
L 953 1613 
Q 991 1019 1311 708 
Q 1631 397 2203 397 
Q 2534 397 2845 478 
Q 3156 559 3463 722 
L 3463 178 
Q 3153 47 2828 -22 
Q 2503 -91 2169 -91 
Q 1331 -91 842 396 
Q 353 884 353 1716 
Q 353 2575 817 3079 
Q 1281 3584 2069 3584 
Q 2775 3584 3186 3129 
Q 3597 2675 3597 1894 
z
M 3022 2063 
Q 3016 2534 2758 2815 
Q 2500 3097 2075 3097 
Q 1594 3097 1305 2825 
Q 1016 2553 972 2059 
L 3022 2063 
z
" transform="scale(0.015625)"/>
      <path id="DejaVuSans-3d8" d="M 947 1747 
Q 947 1013 1173 702 
Q 1400 391 1784 391 
Q 2091 391 2447 916 
L 2447 2578 
Q 2091 3103 1784 3103 
Q 1400 3103 1173 2792 
Q 947 2481 947 1747 
z
M 2447 -1331 
L 2447 447 
Q 2269 153 2064 31 
Q 1859 -91 1600 -91 
Q 1078 -91 714 392 
Q 350 875 350 1734 
Q 350 2594 714 3089 
Q 1078 3584 1600 3584 
Q 1859 3584 2064 3465 
Q 2269 3347 2447 3053 
L 2447 4666 
L 3025 4666 
L 3025 3053 
Q 3203 3347 3408 3465 
Q 3613 3584 3872 3584 
Q 4394 3584 4758 3089 
Q 5122 2594 5122 1734 
Q 5122 875 4758 392 
Q 4394 -91 3872 -91 
Q 3613 -91 3408 31 
Q 3203 153 3025 447 
L 3025 -1331 
L 2447 -1331 
z
M 4525 1747 
Q 4525 2481 4298 2792 
Q 4072 3103 3688 3103 
Q 3381 3103 3025 2578 
L 3025 916 
Q 3381 391 3688 391 
Q 4072 391 4298 702 
Q 4525 1013 4525 1747 
z
" transform="scale(0.015625)"/>
      <path id="DejaVuSans-3cc" d="M 3578 3500 
L 3578 0 
L 3006 0 
L 3006 2809 
L 1319 0 
L 581 0 
L 581 3500 
L 1153 3500 
L 1153 697 
L 2838 3500 
L 3578 3500 
z
" transform="scale(0.015625)"/>
      <path id="DejaVuSans-3cf" d="M 238 0 
L 238 478 
Q 806 566 981 959 
Q 1194 1513 1194 2928 
L 1194 3500 
L 3559 3500 
L 3559 0 
L 2984 0 
L 2984 3041 
L 1769 3041 
L 1769 2694 
Q 1769 1344 1494 738 
Q 1200 91 238 0 
z
" transform="scale(0.015625)"/>
      <path id="DejaVuSans-1d" d="M 750 794 
L 1409 794 
L 1409 0 
L 750 0 
L 750 794 
z
M 750 3309 
L 1409 3309 
L 1409 2516 
L 750 2516 
L 750 3309 
z
" transform="scale(0.015625)"/>
      <path id="DejaVuSans-3" transform="scale(0.015625)"/>
      <path id="DejaVuSans-Oblique-5b" d="M 3841 3500 
L 2234 1784 
L 3219 0 
L 2559 0 
L 1819 1388 
L 531 0 
L -166 0 
L 1556 1844 
L 641 3500 
L 1300 3500 
L 1972 2234 
L 3144 3500 
L 3841 3500 
z
" transform="scale(0.015625)"/>
      <path id="DejaVuSans-14" d="M 794 531 
L 1825 531 
L 1825 4091 
L 703 3866 
L 703 4441 
L 1819 4666 
L 2450 4666 
L 2450 531 
L 3481 531 
L 3481 0 
L 794 0 
L 794 531 
z
" transform="scale(0.015625)"/>
      <path id="DejaVuSans-b08" d="M 2869 794 
L 3531 794 
L 3531 0 
L 2869 0 
L 2869 794 
z
M 4997 794 
L 5663 794 
L 5663 0 
L 4997 0 
L 4997 794 
z
M 738 794 
L 1403 794 
L 1403 0 
L 738 0 
L 738 794 
z
" transform="scale(0.015625)"/>
      <path id="DejaVuSans-Oblique-31" d="M 1081 4666 
L 1931 4666 
L 3219 666 
L 4000 4666 
L 4616 4666 
L 3706 0 
L 2853 0 
L 1569 4025 
L 788 0 
L 172 0 
L 1081 4666 
z
" transform="scale(0.015625)"/>
      <path id="DejaVuSans-3d2" d="M 1959 3097 
Q 1497 3097 1228 2736 
Q 959 2375 959 1747 
Q 959 1119 1226 758 
Q 1494 397 1959 397 
Q 2419 397 2687 759 
Q 2956 1122 2956 1747 
Q 2956 2369 2687 2733 
Q 2419 3097 1959 3097 
z
M 1959 3584 
Q 2709 3584 3137 3096 
Q 3566 2609 3566 1747 
Q 3566 888 3137 398 
Q 2709 -91 1959 -91 
Q 1206 -91 779 398 
Q 353 888 353 1747 
Q 353 2609 779 3096 
Q 1206 3584 1959 3584 
z
" transform="scale(0.015625)"/>
      <path id="DejaVuSans-3c5" d="M 1991 3584 
Q 2741 3584 3169 3096 
Q 3597 2609 3597 1747 
Q 3597 888 3169 398 
Q 2741 -91 1991 -91 
Q 1238 -91 822 384 
Q 406 859 384 1747 
L 366 2463 
Q 350 2834 350 2963 
Q 350 3463 531 3831 
Q 816 4409 1308 4659 
Q 1800 4909 2625 4916 
Q 3006 4919 3175 4972 
L 3334 4516 
Q 3181 4453 3041 4450 
L 2259 4397 
Q 1866 4369 1628 4231 
Q 1006 3866 947 3388 
L 925 3213 
Q 1331 3584 1991 3584 
z
M 1991 3097 
Q 1528 3097 1259 2736 
Q 991 2375 991 1747 
Q 991 1119 1258 758 
Q 1525 397 1991 397 
Q 2450 397 2719 759 
Q 2988 1122 2988 1747 
Q 2988 2369 2719 2733 
Q 2450 3097 1991 3097 
z
" transform="scale(0.015625)"/>
      <path id="DejaVuSans-3c4" d="M 2194 1759 
Q 1497 1759 1228 1600 
Q 959 1441 959 1056 
Q 959 750 1161 570 
Q 1363 391 1709 391 
Q 2188 391 2477 730 
Q 2766 1069 2766 1631 
L 2766 1759 
L 2194 1759 
z
M 3341 1997 
L 3341 0 
L 2766 0 
L 2766 531 
Q 2569 213 2275 61 
Q 1981 -91 1556 -91 
Q 1019 -91 701 211 
Q 384 513 384 1019 
Q 384 1609 779 1909 
Q 1175 2209 1959 2209 
L 2766 2209 
L 2766 2266 
Q 2766 2663 2505 2880 
Q 2244 3097 1772 3097 
Q 1472 3097 1187 3025 
Q 903 2953 641 2809 
L 641 3341 
Q 956 3463 1253 3523 
Q 1550 3584 1831 3584 
Q 2591 3584 2966 3190 
Q 3341 2797 3341 1997 
z
" transform="scale(0.015625)"/>
      <path id="DejaVuSans-3d6" d="M 188 3500 
L 3541 3500 
L 3541 3041 
L 2147 3041 
L 2147 0 
L 1581 0 
L 1581 3041 
L 188 3041 
L 188 3500 
z
" transform="scale(0.015625)"/>
      <path id="DejaVuSans-3df" d="M 3909 3500 
L 4484 3500 
L 4484 0 
L 3909 0 
L 3909 3500 
z
M 4197 3584 
L 4197 3584 
z
M 2781 1038 
Q 2781 1319 2576 1466 
Q 2372 1613 1978 1613 
L 1159 1613 
L 1159 459 
L 1978 459 
Q 2372 459 2576 607 
Q 2781 756 2781 1038 
z
M 581 3500 
L 1159 3500 
L 1159 2072 
L 2003 2072 
Q 2672 2072 3033 1817 
Q 3394 1563 3394 1038 
Q 3394 513 3033 256 
Q 2672 0 2003 0 
L 581 0 
L 581 3500 
z
" transform="scale(0.015625)"/>
      <path id="DejaVuSans-3c6" d="M 1156 1613 
L 1156 459 
L 1975 459 
Q 2369 459 2575 607 
Q 2781 756 2781 1038 
Q 2781 1319 2575 1466 
Q 2369 1613 1975 1613 
L 1156 1613 
z
M 1156 3041 
L 1156 2072 
L 1913 2072 
Q 2238 2072 2444 2201 
Q 2650 2331 2650 2563 
Q 2650 2794 2444 2917 
Q 2238 3041 1913 3041 
L 1156 3041 
z
M 581 3500 
L 1950 3500 
Q 2566 3500 2897 3275 
Q 3228 3050 3228 2634 
Q 3228 2313 3059 2123 
Q 2891 1934 2559 1888 
Q 2956 1813 3175 1575 
Q 3394 1338 3394 981 
Q 3394 513 3033 256 
Q 2672 0 2003 0 
L 581 0 
L 581 3500 
z
" transform="scale(0.015625)"/>
      <path id="DejaVuSans-3e2" d="M 3431 3097 
Q 2969 3097 2700 2736 
Q 2431 2375 2431 1747 
Q 2431 1119 2698 758 
Q 2966 397 3431 397 
Q 3891 397 4159 759 
Q 4428 1122 4428 1747 
Q 4428 2369 4159 2733 
Q 3891 3097 3431 3097 
z
M 1844 2103 
Q 1903 2697 2292 3140 
Q 2681 3584 3431 3584 
Q 4181 3584 4609 3096 
Q 5038 2609 5038 1747 
Q 5038 888 4609 398 
Q 4181 -91 3431 -91 
Q 2678 -91 2267 381 
Q 1856 853 1828 1628 
L 1178 1628 
L 1178 0 
L 603 0 
L 603 3500 
L 1178 3500 
L 1178 2103 
L 1844 2103 
z
" transform="scale(0.015625)"/>
      <path id="DejaVuSans-3d5" d="M 3122 3366 
L 3122 2828 
Q 2878 2963 2633 3030 
Q 2388 3097 2138 3097 
Q 1578 3097 1268 2742 
Q 959 2388 959 1747 
Q 959 1106 1268 751 
Q 1578 397 2138 397 
Q 2388 397 2633 464 
Q 2878 531 3122 666 
L 3122 134 
Q 2881 22 2623 -34 
Q 2366 -91 2075 -91 
Q 1284 -91 818 406 
Q 353 903 353 1747 
Q 353 2603 823 3093 
Q 1294 3584 2113 3584 
Q 2378 3584 2631 3529 
Q 2884 3475 3122 3366 
z
" transform="scale(0.015625)"/>
      <path id="DejaVuSans-3e3" d="M 1181 2491 
Q 1181 2231 1381 2084 
Q 1581 1938 1953 1938 
L 2728 1938 
L 2728 3041 
L 1953 3041 
Q 1581 3041 1381 2897 
Q 1181 2753 1181 2491 
z
M 363 0 
L 1431 1534 
Q 1069 1616 828 1830 
Q 588 2044 588 2491 
Q 588 2997 923 3248 
Q 1259 3500 1938 3500 
L 3306 3500 
L 3306 0 
L 2728 0 
L 2728 1478 
L 2013 1478 
L 981 0 
L 363 0 
z
" transform="scale(0.015625)"/>
      <path id="DejaVuSans-3c8" d="M 1384 459 
L 3053 459 
L 3053 3041 
L 1844 3041 
L 1844 2603 
Q 1844 1316 1475 628 
L 1384 459 
z
M 550 459 
Q 834 584 959 850 
Q 1266 1509 1266 2838 
L 1266 3500 
L 3631 3500 
L 3631 459 
L 4091 459 
L 4091 -884 
L 3631 -884 
L 3631 0 
L 794 0 
L 794 -884 
L 334 -884 
L 334 459 
L 550 459 
z
" transform="scale(0.015625)"/>
      <path id="DejaVuSans-3d1" d="M 581 3500 
L 1159 3500 
L 1159 2072 
L 3025 2072 
L 3025 3500 
L 3603 3500 
L 3603 0 
L 3025 0 
L 3025 1613 
L 1159 1613 
L 1159 0 
L 581 0 
L 581 3500 
z
" transform="scale(0.015625)"/>
      <path id="DejaVuSans-3d0" d="M 581 3500 
L 1422 3500 
L 2416 1156 
L 3413 3500 
L 4247 3500 
L 4247 0 
L 3669 0 
L 3669 2950 
L 2703 672 
L 2128 672 
L 1159 2950 
L 1159 0 
L 581 0 
L 581 3500 
z
" transform="scale(0.015625)"/>
      <path id="DejaVuSans-3d3" d="M 3603 3500 
L 3603 0 
L 3025 0 
L 3025 3041 
L 1159 3041 
L 1159 0 
L 581 0 
L 581 3500 
L 3603 3500 
z
" transform="scale(0.015625)"/>
      <path id="DejaVuSans-3d9" d="M 3513 3500 
L 2247 1797 
L 3578 0 
L 2900 0 
L 1881 1375 
L 863 0 
L 184 0 
L 1544 1831 
L 300 3500 
L 978 3500 
L 1906 2253 
L 2834 3500 
L 3513 3500 
z
" transform="scale(0.015625)"/>
     </defs>
     <use xlink:href="#DejaVuSans-3b3" transform="translate(0 0.3125)"/>
     <use xlink:href="#DejaVuSans-3d4" transform="translate(75.195312 0.3125)"/>
     <use xlink:href="#DejaVuSans-3c9" transform="translate(138.671875 0.3125)"/>
     <use xlink:href="#DejaVuSans-3d8" transform="translate(200.195312 0.3125)"/>
     <use xlink:href="#DejaVuSans-3cc" transform="translate(285.693359 0.3125)"/>
     <use xlink:href="#DejaVuSans-3cf" transform="translate(350.683594 0.3125)"/>
     <use xlink:href="#DejaVuSans-3cf" transform="translate(414.599609 0.3125)"/>
     <use xlink:href="#DejaVuSans-1d" transform="translate(478.515625 0.3125)"/>
     <use xlink:href="#DejaVuSans-3" transform="translate(512.207031 0.3125)"/>
     <use xlink:href="#DejaVuSans-Oblique-5b" transform="translate(543.994141 0.3125)"/>
     <use xlink:href="#DejaVuSans-14" transform="translate(603.173828 -14.687451) scale(0.7)"/>
     <use xlink:href="#DejaVuSans-b08" transform="translate(650.444336 0.3125)"/>
     <use xlink:href="#DejaVuSans-Oblique-5b" transform="translate(750.444336 0.3125)"/>
     <use xlink:href="#DejaVuSans-Oblique-31" transform="translate(809.624023 -14.687451) scale(0.7)"/>
     <use xlink:href="#DejaVuSans-3" transform="translate(864.72168 0.3125)"/>
     <use xlink:href="#DejaVuSans-3d2" transform="translate(896.508789 0.3125)"/>
     <use xlink:href="#DejaVuSans-3c5" transform="translate(957.69043 0.3125)"/>
     <use xlink:href="#DejaVuSans-3d4" transform="translate(1019.360352 0.3125)"/>
     <use xlink:href="#DejaVuSans-3c4" transform="translate(1082.836914 0.3125)"/>
     <use xlink:href="#DejaVuSans-3c5" transform="translate(1144.116211 0.3125)"/>
     <use xlink:href="#DejaVuSans-3c4" transform="translate(1205.786133 0.3125)"/>
     <use xlink:href="#DejaVuSans-3d6" transform="translate(1267.06543 0.3125)"/>
     <use xlink:href="#DejaVuSans-3df" transform="translate(1325.317383 0.3125)"/>
     <use xlink:href="#DejaVuSans-3c6" transform="translate(1404.272461 0.3125)"/>
     <use xlink:href="#DejaVuSans-3c4" transform="translate(1463.208008 0.3125)"/>
     <use xlink:href="#DejaVuSans-3e2" transform="translate(1524.487305 0.3125)"/>
     <use xlink:href="#DejaVuSans-3d6" transform="translate(1608.666992 0.3125)"/>
     <use xlink:href="#DejaVuSans-3d5" transform="translate(1666.918945 0.3125)"/>
     <use xlink:href="#DejaVuSans-3e3" transform="translate(1721.899414 0.3125)"/>
     <use xlink:href="#DejaVuSans-3" transform="translate(1782.055664 0.3125)"/>
     <use xlink:href="#DejaVuSans-3d2" transform="translate(1813.842773 0.3125)"/>
     <use xlink:href="#DejaVuSans-3c8" transform="translate(1875.024414 0.3125)"/>
     <use xlink:href="#DejaVuSans-3d1" transform="translate(1944.165039 0.3125)"/>
     <use xlink:href="#DejaVuSans-3cc" transform="translate(2009.545898 0.3125)"/>
     <use xlink:href="#DejaVuSans-3d0" transform="translate(2074.536133 0.3125)"/>
     <use xlink:href="#DejaVuSans-3" transform="translate(2149.975586 0.3125)"/>
     <use xlink:href="#DejaVuSans-3d3" transform="translate(2181.762695 0.3125)"/>
     <use xlink:href="#DejaVuSans-3d4" transform="translate(2247.143555 0.3125)"/>
     <use xlink:href="#DejaVuSans-3d2" transform="translate(2310.620117 0.3125)"/>
     <use xlink:href="#DejaVuSans-3d9" transform="translate(2371.801758 0.3125)"/>
     <use xlink:href="#DejaVuSans-3d2" transform="translate(2430.981445 0.3125)"/>
     <use xlink:href="#DejaVuSans-3c8" transform="translate(2492.163086 0.3125)"/>
     <use xlink:href="#DejaVuSans-3d2" transform="translate(2561.303711 0.3125)"/>
     <use xlink:href="#DejaVuSans-3d0" transform="translate(2622.485352 0.3125)"/>
    </g>
   </g>
   <g id="text_2">
    <!-- один пакет матричных умножений - доминирует арифметика -->
    <g style="fill: #52514e" transform="translate(44.064 40.672973) scale(0.095 -0.095)">
     <defs>
      <path id="DejaVuSans-3ce" d="M 581 3500 
L 1153 3500 
L 1153 1856 
L 2775 3500 
L 3481 3500 
L 2144 2147 
L 3653 0 
L 3009 0 
L 1769 1766 
L 1153 1141 
L 1153 0 
L 581 0 
L 581 3500 
z
" transform="scale(0.015625)"/>
      <path id="DejaVuSans-3db" d="M 2625 0 
L 2625 1472 
L 1553 1472 
Q 1075 1472 756 1769 
Q 469 2038 469 2613 
L 469 3500 
L 1044 3500 
L 1044 2666 
Q 1044 2300 1206 2116 
Q 1372 1931 1697 1931 
L 2625 1931 
L 2625 3500 
L 3200 3500 
L 3200 0 
L 2625 0 
z
" transform="scale(0.015625)"/>
      <path id="DejaVuSans-3d7" d="M 2059 -325 
Q 1816 -950 1584 -1140 
Q 1353 -1331 966 -1331 
L 506 -1331 
L 506 -850 
L 844 -850 
Q 1081 -850 1212 -737 
Q 1344 -625 1503 -206 
L 1606 56 
L 191 3500 
L 800 3500 
L 1894 763 
L 2988 3500 
L 3597 3500 
L 2059 -325 
z
" transform="scale(0.015625)"/>
      <path id="DejaVuSans-3ca" d="M 2597 3500 
L 3169 3500 
L 3169 1856 
L 4697 3500 
L 5366 3500 
L 4109 2153 
L 5547 0 
L 4931 0 
L 3753 1769 
L 3169 1141 
L 3169 0 
L 2597 0 
L 2597 1141 
L 2013 1769 
L 834 0 
L 219 0 
L 1656 2153 
L 400 3500 
L 1069 3500 
L 2597 1856 
L 2597 3500 
z
" transform="scale(0.015625)"/>
      <path id="DejaVuSans-3cd" d="M 3578 3500 
L 3578 0 
L 3006 0 
L 3006 2809 
L 1319 0 
L 581 0 
L 581 3500 
L 1153 3500 
L 1153 697 
L 2838 3500 
L 3578 3500 
z
M 1103 4862 
L 1472 4862 
Q 1506 4628 1657 4510 
Q 1809 4393 2081 4393 
Q 2350 4393 2500 4509 
Q 2650 4625 2690 4862 
L 3059 4862 
Q 3028 4415 2781 4190 
Q 2534 3965 2081 3965 
Q 1628 3965 1381 4190 
Q 1134 4415 1103 4862 
z
" transform="scale(0.015625)"/>
      <path id="DejaVuSans-10" d="M 313 2009 
L 1997 2009 
L 1997 1497 
L 313 1497 
L 313 2009 
z
" transform="scale(0.015625)"/>
     </defs>
     <use xlink:href="#DejaVuSans-3d2"/>
     <use xlink:href="#DejaVuSans-3c8" transform="translate(61.1875 0)"/>
     <use xlink:href="#DejaVuSans-3cc" transform="translate(130.328125 0)"/>
     <use xlink:href="#DejaVuSans-3d1" transform="translate(195.3125 0)"/>
     <use xlink:href="#DejaVuSans-3" transform="translate(260.6875 0)"/>
     <use xlink:href="#DejaVuSans-3d3" transform="translate(292.46875 0)"/>
     <use xlink:href="#DejaVuSans-3c4" transform="translate(357.84375 0)"/>
     <use xlink:href="#DejaVuSans-3ce" transform="translate(419.125 0)"/>
     <use xlink:href="#DejaVuSans-3c9" transform="translate(479.53125 0)"/>
     <use xlink:href="#DejaVuSans-3d6" transform="translate(541.0625 0)"/>
     <use xlink:href="#DejaVuSans-3" transform="translate(599.3125 0)"/>
     <use xlink:href="#DejaVuSans-3d0" transform="translate(631.09375 0)"/>
     <use xlink:href="#DejaVuSans-3c4" transform="translate(706.53125 0)"/>
     <use xlink:href="#DejaVuSans-3d6" transform="translate(767.8125 0)"/>
     <use xlink:href="#DejaVuSans-3d4" transform="translate(826.0625 0)"/>
     <use xlink:href="#DejaVuSans-3cc" transform="translate(889.546875 0)"/>
     <use xlink:href="#DejaVuSans-3db" transform="translate(954.53125 0)"/>
     <use xlink:href="#DejaVuSans-3d1" transform="translate(1013.609375 0)"/>
     <use xlink:href="#DejaVuSans-3df" transform="translate(1078.984375 0)"/>
     <use xlink:href="#DejaVuSans-3d9" transform="translate(1157.9375 0)"/>
     <use xlink:href="#DejaVuSans-3" transform="translate(1217.125 0)"/>
     <use xlink:href="#DejaVuSans-3d7" transform="translate(1248.90625 0)"/>
     <use xlink:href="#DejaVuSans-3d0" transform="translate(1308.09375 0)"/>
     <use xlink:href="#DejaVuSans-3d1" transform="translate(1383.53125 0)"/>
     <use xlink:href="#DejaVuSans-3d2" transform="translate(1448.90625 0)"/>
     <use xlink:href="#DejaVuSans-3ca" transform="translate(1510.09375 0)"/>
     <use xlink:href="#DejaVuSans-3c9" transform="translate(1600.1875 0)"/>
     <use xlink:href="#DejaVuSans-3d1" transform="translate(1661.71875 0)"/>
     <use xlink:href="#DejaVuSans-3cc" transform="translate(1727.09375 0)"/>
     <use xlink:href="#DejaVuSans-3cd" transform="translate(1792.078125 0)"/>
     <use xlink:href="#DejaVuSans-3" transform="translate(1857.0625 0)"/>
     <use xlink:href="#DejaVuSans-10" transform="translate(1888.84375 0)"/>
     <use xlink:href="#DejaVuSans-3" transform="translate(1924.921875 0)"/>
     <use xlink:href="#DejaVuSans-3c8" transform="translate(1956.703125 0)"/>
     <use xlink:href="#DejaVuSans-3d2" transform="translate(2025.84375 0)"/>
     <use xlink:href="#DejaVuSans-3d0" transform="translate(2087.03125 0)"/>
     <use xlink:href="#DejaVuSans-3cc" transform="translate(2162.46875 0)"/>
     <use xlink:href="#DejaVuSans-3d1" transform="translate(2227.453125 0)"/>
     <use xlink:href="#DejaVuSans-3cc" transform="translate(2292.828125 0)"/>
     <use xlink:href="#DejaVuSans-3d4" transform="translate(2357.8125 0)"/>
     <use xlink:href="#DejaVuSans-3d7" transform="translate(2421.296875 0)"/>
     <use xlink:href="#DejaVuSans-3c9" transform="translate(2480.484375 0)"/>
     <use xlink:href="#DejaVuSans-3d6" transform="translate(2542.015625 0)"/>
     <use xlink:href="#DejaVuSans-3" transform="translate(2600.265625 0)"/>
     <use xlink:href="#DejaVuSans-3c4" transform="translate(2632.046875 0)"/>
     <use xlink:href="#DejaVuSans-3d4" transform="translate(2693.328125 0)"/>
     <use xlink:href="#DejaVuSans-3cc" transform="translate(2756.8125 0)"/>
     <use xlink:href="#DejaVuSans-3d8" transform="translate(2821.796875 0)"/>
     <use xlink:href="#DejaVuSans-3d0" transform="translate(2907.296875 0)"/>
     <use xlink:href="#DejaVuSans-3c9" transform="translate(2982.734375 0)"/>
     <use xlink:href="#DejaVuSans-3d6" transform="translate(3044.265625 0)"/>
     <use xlink:href="#DejaVuSans-3cc" transform="translate(3102.515625 0)"/>
     <use xlink:href="#DejaVuSans-3ce" transform="translate(3167.5 0)"/>
     <use xlink:href="#DejaVuSans-3c4" transform="translate(3227.90625 0)"/>
    </g>
   </g>
   <g id="text_3">
    <!-- $x_1$ -->
    <g style="fill: #0b0b0b" transform="translate(54.811 80.185422) scale(0.11 -0.11)">
     <use xlink:href="#DejaVuSans-Oblique-5b" transform="translate(0 0.3125)"/>
     <use xlink:href="#DejaVuSans-14" transform="translate(59.179688 -14.687451) scale(0.7)"/>
    </g>
   </g>
   <g id="text_4">
    <!-- $x_2$ -->
    <g style="fill: #0b0b0b" transform="translate(99.163 80.185422) scale(0.11 -0.11)">
     <defs>
      <path id="DejaVuSans-15" d="M 1228 531 
L 3431 531 
L 3431 0 
L 469 0 
L 469 531 
Q 828 903 1448 1529 
Q 2069 2156 2228 2338 
Q 2531 2678 2651 2914 
Q 2772 3150 2772 3378 
Q 2772 3750 2511 3984 
Q 2250 4219 1831 4219 
Q 1534 4219 1204 4116 
Q 875 4013 500 3803 
L 500 4441 
Q 881 4594 1212 4672 
Q 1544 4750 1819 4750 
Q 2544 4750 2975 4387 
Q 3406 4025 3406 3419 
Q 3406 3131 3298 2873 
Q 3191 2616 2906 2266 
Q 2828 2175 2409 1742 
Q 1991 1309 1228 531 
z
" transform="scale(0.015625)"/>
     </defs>
     <use xlink:href="#DejaVuSans-Oblique-5b" transform="translate(0 0.3125)"/>
     <use xlink:href="#DejaVuSans-15" transform="translate(59.179688 -14.687451) scale(0.7)"/>
    </g>
   </g>
   <g id="text_5">
    <!-- $x_3$ -->
    <g style="fill: #0b0b0b" transform="translate(143.515 80.185422) scale(0.11 -0.11)">
     <defs>
      <path id="DejaVuSans-16" d="M 2597 2516 
Q 3050 2419 3304 2112 
Q 3559 1806 3559 1356 
Q 3559 666 3084 287 
Q 2609 -91 1734 -91 
Q 1441 -91 1130 -33 
Q 819 25 488 141 
L 488 750 
Q 750 597 1062 519 
Q 1375 441 1716 441 
Q 2309 441 2620 675 
Q 2931 909 2931 1356 
Q 2931 1769 2642 2001 
Q 2353 2234 1838 2234 
L 1294 2234 
L 1294 2753 
L 1863 2753 
Q 2328 2753 2575 2939 
Q 2822 3125 2822 3475 
Q 2822 3834 2567 4026 
Q 2313 4219 1838 4219 
Q 1578 4219 1281 4162 
Q 984 4106 628 3988 
L 628 4550 
Q 988 4650 1302 4700 
Q 1616 4750 1894 4750 
Q 2613 4750 3031 4423 
Q 3450 4097 3450 3541 
Q 3450 3153 3228 2886 
Q 3006 2619 2597 2516 
z
" transform="scale(0.015625)"/>
     </defs>
     <use xlink:href="#DejaVuSans-Oblique-5b" transform="translate(0 0.3125)"/>
     <use xlink:href="#DejaVuSans-16" transform="translate(59.179688 -14.687451) scale(0.7)"/>
    </g>
   </g>
   <g id="text_6">
    <!-- … -->
    <g style="fill: #52514e" transform="translate(187.252 80.704953) scale(0.13 -0.13)">
     <use xlink:href="#DejaVuSans-b08"/>
    </g>
   </g>
   <g id="text_7">
    <!-- $x_{N-1}$ -->
    <g style="fill: #0b0b0b" transform="translate(224.629 80.185422) scale(0.11 -0.11)">
     <defs>
      <path id="DejaVuSans-c9c" d="M 678 2272 
L 4684 2272 
L 4684 1741 
L 678 1741 
L 678 2272 
z
" transform="scale(0.015625)"/>
     </defs>
     <use xlink:href="#DejaVuSans-Oblique-5b" transform="translate(0 0.3125)"/>
     <use xlink:href="#DejaVuSans-Oblique-31" transform="translate(59.179688 -14.687451) scale(0.7)"/>
     <use xlink:href="#DejaVuSans-c9c" transform="translate(125.180664 -14.687451) scale(0.7)"/>
     <use xlink:href="#DejaVuSans-14" transform="translate(197.470703 -14.687451) scale(0.7)"/>
    </g>
   </g>
   <g id="text_8">
    <!-- $x_N$ -->
    <g style="fill: #0b0b0b" transform="translate(276.131 80.185422) scale(0.11 -0.11)">
     <use xlink:href="#DejaVuSans-Oblique-5b" transform="translate(0 0.3125)"/>
     <use xlink:href="#DejaVuSans-Oblique-31" transform="translate(59.179688 -14.687451) scale(0.7)"/>
    </g>
   </g>
   <g id="text_9">
    <!-- KV-кэш -->
    <g style="fill: #0b0b0b" transform="translate(35.748 149.355539) scale(0.105 -0.105)">
     <defs>
      <path id="DejaVuSans-2e" d="M 628 4666 
L 1259 4666 
L 1259 2694 
L 3353 4666 
L 4166 4666 
L 1850 2491 
L 4331 0 
L 3500 0 
L 1259 2247 
L 1259 0 
L 628 0 
L 628 4666 
z
" transform="scale(0.015625)"/>
      <path id="DejaVuSans-39" d="M 1831 0 
L 50 4666 
L 709 4666 
L 2188 738 
L 3669 4666 
L 4325 4666 
L 2547 0 
L 1831 0 
z
" transform="scale(0.015625)"/>
      <path id="DejaVuSans-3e1" d="M 353 666 
Q 847 397 1338 397 
Q 1797 397 2125 664 
Q 2453 931 2513 1613 
L 738 1613 
L 738 2072 
L 2494 2072 
Q 2456 2400 2207 2748 
Q 1959 3097 1338 3097 
Q 856 3097 353 2828 
L 353 3366 
Q 844 3584 1363 3584 
Q 2181 3584 2651 3089 
Q 3122 2594 3122 1747 
Q 3122 903 2664 406 
Q 2206 -91 1403 -91 
Q 813 -91 353 134 
L 353 666 
z
" transform="scale(0.015625)"/>
      <path id="DejaVuSans-3dc" d="M 3216 459 
L 4697 459 
L 4697 3500 
L 5275 3500 
L 5275 0 
L 581 0 
L 581 3500 
L 1159 3500 
L 1159 459 
L 2638 459 
L 2638 3500 
L 3216 3500 
L 3216 459 
z
" transform="scale(0.015625)"/>
     </defs>
     <use xlink:href="#DejaVuSans-2e"/>
     <use xlink:href="#DejaVuSans-39" transform="translate(65.578125 0)"/>
     <use xlink:href="#DejaVuSans-10" transform="translate(128.125 0)"/>
     <use xlink:href="#DejaVuSans-3ce" transform="translate(164.203125 0)"/>
     <use xlink:href="#DejaVuSans-3e1" transform="translate(224.609375 0)"/>
     <use xlink:href="#DejaVuSans-3dc" transform="translate(279.5 0)"/>
    </g>
   </g>
   <g id="text_10">
    <!-- $k$ -->
    <g style="fill: #52514e" transform="translate(32.993 180.697687) scale(0.095 -0.095)">
     <defs>
      <path id="DejaVuSans-Oblique-4e" d="M 1172 4863 
L 1747 4863 
L 1197 2028 
L 3169 3500 
L 3916 3500 
L 1716 1825 
L 3322 0 
L 2625 0 
L 1131 1709 
L 800 0 
L 225 0 
L 1172 4863 
z
" transform="scale(0.015625)"/>
     </defs>
     <use xlink:href="#DejaVuSans-Oblique-4e" transform="translate(0 0.015625)"/>
    </g>
   </g>
   <g id="text_11">
    <!-- … -->
    <g style="fill: #52514e" transform="translate(189.002 180.696573) scale(0.095 -0.095)">
     <use xlink:href="#DejaVuSans-b08"/>
    </g>
   </g>
   <g id="text_12">
    <!-- $v$ -->
    <g style="fill: #52514e" transform="translate(32.898 209.525373) scale(0.095 -0.095)">
     <defs>
      <path id="DejaVuSans-Oblique-59" d="M 459 3500 
L 1069 3500 
L 1581 525 
L 3256 3500 
L 3866 3500 
L 1875 0 
L 1100 0 
L 459 3500 
z
" transform="scale(0.015625)"/>
     </defs>
     <use xlink:href="#DejaVuSans-Oblique-59" transform="translate(0 0.3125)"/>
    </g>
   </g>
   <g id="text_13">
    <!-- … -->
    <g style="fill: #52514e" transform="translate(189.002 209.525373) scale(0.095 -0.095)">
     <use xlink:href="#DejaVuSans-b08"/>
    </g>
   </g>
   <g id="text_14">
    <!-- записывается один раз -->
    <g style="fill: #52514e" transform="translate(179.892 114.445773) scale(0.095 -0.095)">
     <defs>
      <path id="DejaVuSans-3cb" d="M 2206 1888 
Q 2594 1813 2809 1584 
Q 3025 1356 3025 1019 
Q 3025 478 2622 193 
Q 2219 -91 1475 -91 
Q 1225 -91 961 -47 
Q 697 -3 416 84 
L 416 619 
Q 638 503 903 445 
Q 1169 388 1459 388 
Q 1931 388 2195 563 
Q 2459 738 2459 1019 
Q 2459 1294 2225 1461 
Q 1991 1628 1563 1628 
L 1100 1628 
L 1100 2103 
L 1584 2103 
Q 1947 2103 2158 2242 
Q 2369 2381 2369 2600 
Q 2369 2800 2151 2944 
Q 1934 3088 1563 3088 
Q 1341 3088 1089 3047 
Q 838 3006 534 2916 
L 534 3438 
Q 841 3513 1106 3550 
Q 1372 3588 1609 3588 
Q 2222 3588 2576 3342 
Q 2931 3097 2931 2656 
Q 2931 2366 2743 2164 
Q 2556 1963 2206 1888 
z
" transform="scale(0.015625)"/>
     </defs>
     <use xlink:href="#DejaVuSans-3cb"/>
     <use xlink:href="#DejaVuSans-3c4" transform="translate(53.171875 0)"/>
     <use xlink:href="#DejaVuSans-3d3" transform="translate(114.453125 0)"/>
     <use xlink:href="#DejaVuSans-3cc" transform="translate(179.828125 0)"/>
     <use xlink:href="#DejaVuSans-3d5" transform="translate(244.8125 0)"/>
     <use xlink:href="#DejaVuSans-3df" transform="translate(299.796875 0)"/>
     <use xlink:href="#DejaVuSans-3c6" transform="translate(378.75 0)"/>
     <use xlink:href="#DejaVuSans-3c4" transform="translate(437.6875 0)"/>
     <use xlink:href="#DejaVuSans-3c9" transform="translate(498.96875 0)"/>
     <use xlink:href="#DejaVuSans-3d6" transform="translate(560.5 0)"/>
     <use xlink:href="#DejaVuSans-3d5" transform="translate(618.75 0)"/>
     <use xlink:href="#DejaVuSans-3e3" transform="translate(673.734375 0)"/>
     <use xlink:href="#DejaVuSans-3" transform="translate(733.890625 0)"/>
     <use xlink:href="#DejaVuSans-3d2" transform="translate(765.671875 0)"/>
     <use xlink:href="#DejaVuSans-3c8" transform="translate(826.859375 0)"/>
     <use xlink:href="#DejaVuSans-3cc" transform="translate(896 0)"/>
     <use xlink:href="#DejaVuSans-3d1" transform="translate(960.984375 0)"/>
     <use xlink:href="#DejaVuSans-3" transform="translate(1026.359375 0)"/>
     <use xlink:href="#DejaVuSans-3d4" transform="translate(1058.140625 0)"/>
     <use xlink:href="#DejaVuSans-3c4" transform="translate(1121.625 0)"/>
     <use xlink:href="#DejaVuSans-3cb" transform="translate(1182.90625 0)"/>
    </g>
   </g>
   <g id="text_15">
    <!-- Декодирование: по одному токену -->
    <g style="fill: #0b0b0b" transform="translate(409.968 27.441305) scale(0.115 -0.115)">
     <defs>
      <path id="DejaVuSans-3a8" d="M 1459 531 
L 3522 531 
L 3522 4134 
L 2006 4134 
L 2006 3472 
Q 2006 1913 1656 878 
Q 1584 666 1459 531 
z
M 538 531 
Q 956 728 1075 1103 
Q 1378 2066 1378 3784 
L 1378 4666 
L 4153 4666 
L 4153 531 
L 4684 531 
L 4684 -1003 
L 4153 -1003 
L 4153 0 
L 847 0 
L 847 -1003 
L 316 -1003 
L 316 531 
L 538 531 
z
" transform="scale(0.015625)"/>
     </defs>
     <use xlink:href="#DejaVuSans-3a8"/>
     <use xlink:href="#DejaVuSans-3c9" transform="translate(78.125 0)"/>
     <use xlink:href="#DejaVuSans-3ce" transform="translate(139.65625 0)"/>
     <use xlink:href="#DejaVuSans-3d2" transform="translate(200.0625 0)"/>
     <use xlink:href="#DejaVuSans-3c8" transform="translate(261.25 0)"/>
     <use xlink:href="#DejaVuSans-3cc" transform="translate(330.390625 0)"/>
     <use xlink:href="#DejaVuSans-3d4" transform="translate(395.375 0)"/>
     <use xlink:href="#DejaVuSans-3d2" transform="translate(458.859375 0)"/>
     <use xlink:href="#DejaVuSans-3c6" transform="translate(520.046875 0)"/>
     <use xlink:href="#DejaVuSans-3c4" transform="translate(578.984375 0)"/>
     <use xlink:href="#DejaVuSans-3d1" transform="translate(640.265625 0)"/>
     <use xlink:href="#DejaVuSans-3cc" transform="translate(705.640625 0)"/>
     <use xlink:href="#DejaVuSans-3c9" transform="translate(770.625 0)"/>
     <use xlink:href="#DejaVuSans-1d" transform="translate(832.15625 0)"/>
     <use xlink:href="#DejaVuSans-3" transform="translate(865.84375 0)"/>
     <use xlink:href="#DejaVuSans-3d3" transform="translate(897.625 0)"/>
     <use xlink:href="#DejaVuSans-3d2" transform="translate(963 0)"/>
     <use xlink:href="#DejaVuSans-3" transform="translate(1024.1875 0)"/>
     <use xlink:href="#DejaVuSans-3d2" transform="translate(1055.96875 0)"/>
     <use xlink:href="#DejaVuSans-3c8" transform="translate(1117.15625 0)"/>
     <use xlink:href="#DejaVuSans-3d1" transform="translate(1186.296875 0)"/>
     <use xlink:href="#DejaVuSans-3d2" transform="translate(1251.671875 0)"/>
     <use xlink:href="#DejaVuSans-3d0" transform="translate(1312.859375 0)"/>
     <use xlink:href="#DejaVuSans-3d7" transform="translate(1388.296875 0)"/>
     <use xlink:href="#DejaVuSans-3" transform="translate(1447.484375 0)"/>
     <use xlink:href="#DejaVuSans-3d6" transform="translate(1479.265625 0)"/>
     <use xlink:href="#DejaVuSans-3d2" transform="translate(1537.515625 0)"/>
     <use xlink:href="#DejaVuSans-3ce" transform="translate(1598.703125 0)"/>
     <use xlink:href="#DejaVuSans-3c9" transform="translate(1659.109375 0)"/>
     <use xlink:href="#DejaVuSans-3d1" transform="translate(1720.640625 0)"/>
     <use xlink:href="#DejaVuSans-3d7" transform="translate(1786.015625 0)"/>
    </g>
   </g>
   <g id="text_16">
    <!-- арифметики почти нет - доминирует чтение KV-кэша -->
    <g style="fill: #52514e" transform="translate(409.968 40.672973) scale(0.095 -0.095)">
     <use xlink:href="#DejaVuSans-3c4"/>
     <use xlink:href="#DejaVuSans-3d4" transform="translate(61.28125 0)"/>
     <use xlink:href="#DejaVuSans-3cc" transform="translate(124.765625 0)"/>
     <use xlink:href="#DejaVuSans-3d8" transform="translate(189.75 0)"/>
     <use xlink:href="#DejaVuSans-3d0" transform="translate(275.25 0)"/>
     <use xlink:href="#DejaVuSans-3c9" transform="translate(350.6875 0)"/>
     <use xlink:href="#DejaVuSans-3d6" transform="translate(412.21875 0)"/>
     <use xlink:href="#DejaVuSans-3cc" transform="translate(470.46875 0)"/>
     <use xlink:href="#DejaVuSans-3ce" transform="translate(535.453125 0)"/>
     <use xlink:href="#DejaVuSans-3cc" transform="translate(595.859375 0)"/>
     <use xlink:href="#DejaVuSans-3" transform="translate(660.84375 0)"/>
     <use xlink:href="#DejaVuSans-3d3" transform="translate(692.625 0)"/>
     <use xlink:href="#DejaVuSans-3d2" transform="translate(758 0)"/>
     <use xlink:href="#DejaVuSans-3db" transform="translate(819.1875 0)"/>
     <use xlink:href="#DejaVuSans-3d6" transform="translate(878.265625 0)"/>
     <use xlink:href="#DejaVuSans-3cc" transform="translate(936.515625 0)"/>
     <use xlink:href="#DejaVuSans-3" transform="translate(1001.5 0)"/>
     <use xlink:href="#DejaVuSans-3d1" transform="translate(1033.28125 0)"/>
     <use xlink:href="#DejaVuSans-3c9" transform="translate(1098.65625 0)"/>
     <use xlink:href="#DejaVuSans-3d6" transform="translate(1160.1875 0)"/>
     <use xlink:href="#DejaVuSans-3" transform="translate(1218.4375 0)"/>
     <use xlink:href="#DejaVuSans-10" transform="translate(1250.21875 0)"/>
     <use xlink:href="#DejaVuSans-3" transform="translate(1286.296875 0)"/>
     <use xlink:href="#DejaVuSans-3c8" transform="translate(1318.078125 0)"/>
     <use xlink:href="#DejaVuSans-3d2" transform="translate(1387.21875 0)"/>
     <use xlink:href="#DejaVuSans-3d0" transform="translate(1448.40625 0)"/>
     <use xlink:href="#DejaVuSans-3cc" transform="translate(1523.84375 0)"/>
     <use xlink:href="#DejaVuSans-3d1" transform="translate(1588.828125 0)"/>
     <use xlink:href="#DejaVuSans-3cc" transform="translate(1654.203125 0)"/>
     <use xlink:href="#DejaVuSans-3d4" transform="translate(1719.1875 0)"/>
     <use xlink:href="#DejaVuSans-3d7" transform="translate(1782.671875 0)"/>
     <use xlink:href="#DejaVuSans-3c9" transform="translate(1841.859375 0)"/>
     <use xlink:href="#DejaVuSans-3d6" transform="translate(1903.390625 0)"/>
     <use xlink:href="#DejaVuSans-3" transform="translate(1961.640625 0)"/>
     <use xlink:href="#DejaVuSans-3db" transform="translate(1993.421875 0)"/>
     <use xlink:href="#DejaVuSans-3d6" transform="translate(2052.5 0)"/>
     <use xlink:href="#DejaVuSans-3c9" transform="translate(2110.75 0)"/>
     <use xlink:href="#DejaVuSans-3d1" transform="translate(2172.28125 0)"/>
     <use xlink:href="#DejaVuSans-3cc" transform="translate(2237.65625 0)"/>
     <use xlink:href="#DejaVuSans-3c9" transform="translate(2302.640625 0)"/>
     <use xlink:href="#DejaVuSans-3" transform="translate(2364.171875 0)"/>
     <use xlink:href="#DejaVuSans-2e" transform="translate(2395.953125 0)"/>
     <use xlink:href="#DejaVuSans-39" transform="translate(2461.53125 0)"/>
     <use xlink:href="#DejaVuSans-10" transform="translate(2524.078125 0)"/>
     <use xlink:href="#DejaVuSans-3ce" transform="translate(2560.15625 0)"/>
     <use xlink:href="#DejaVuSans-3e1" transform="translate(2620.5625 0)"/>
     <use xlink:href="#DejaVuSans-3dc" transform="translate(2675.453125 0)"/>
     <use xlink:href="#DejaVuSans-3c4" transform="translate(2766.953125 0)"/>
    </g>
   </g>
   <g id="text_17">
    <!-- $x_{N+1}$ -->
    <g style="fill: #0b0b0b" transform="translate(575.287 80.185422) scale(0.11 -0.11)">
     <defs>
      <path id="DejaVuSans-e" d="M 2944 4013 
L 2944 2272 
L 4684 2272 
L 4684 1741 
L 2944 1741 
L 2944 0 
L 2419 0 
L 2419 1741 
L 678 1741 
L 678 2272 
L 2419 2272 
L 2419 4013 
L 2944 4013 
z
" transform="scale(0.015625)"/>
     </defs>
     <use xlink:href="#DejaVuSans-Oblique-5b" transform="translate(0 0.3125)"/>
     <use xlink:href="#DejaVuSans-Oblique-31" transform="translate(59.179688 -14.687451) scale(0.7)"/>
     <use xlink:href="#DejaVuSans-e" transform="translate(125.180664 -14.687451) scale(0.7)"/>
     <use xlink:href="#DejaVuSans-14" transform="translate(197.470703 -14.687451) scale(0.7)"/>
    </g>
   </g>
   <g id="text_18">
    <!-- на каждом шаге читается весь кэш: -->
    <g style="fill: #52514e" transform="translate(343.44 196.376701) scale(0.095 -0.095)">
     <defs>
      <path id="DejaVuSans-3c7" d="M 581 0 
L 581 3500 
L 3050 3500 
L 3050 3041 
L 1159 3041 
L 1159 0 
L 581 0 
z
" transform="scale(0.015625)"/>
      <path id="DejaVuSans-3e0" d="M 2781 1038 
Q 2781 1319 2576 1466 
Q 2372 1613 1978 1613 
L 1159 1613 
L 1159 459 
L 1978 459 
Q 2372 459 2576 607 
Q 2781 756 2781 1038 
z
M 581 3500 
L 1159 3500 
L 1159 2072 
L 2003 2072 
Q 2672 2072 3033 1817 
Q 3394 1563 3394 1038 
Q 3394 513 3033 256 
Q 2672 0 2003 0 
L 581 0 
L 581 3500 
z
" transform="scale(0.015625)"/>
     </defs>
     <use xlink:href="#DejaVuSans-3d1"/>
     <use xlink:href="#DejaVuSans-3c4" transform="translate(65.375 0)"/>
     <use xlink:href="#DejaVuSans-3" transform="translate(126.65625 0)"/>
     <use xlink:href="#DejaVuSans-3ce" transform="translate(158.4375 0)"/>
     <use xlink:href="#DejaVuSans-3c4" transform="translate(218.84375 0)"/>
     <use xlink:href="#DejaVuSans-3ca" transform="translate(280.125 0)"/>
     <use xlink:href="#DejaVuSans-3c8" transform="translate(370.21875 0)"/>
     <use xlink:href="#DejaVuSans-3d2" transform="translate(439.359375 0)"/>
     <use xlink:href="#DejaVuSans-3d0" transform="translate(500.546875 0)"/>
     <use xlink:href="#DejaVuSans-3" transform="translate(575.984375 0)"/>
     <use xlink:href="#DejaVuSans-3dc" transform="translate(607.765625 0)"/>
     <use xlink:href="#DejaVuSans-3c4" transform="translate(699.265625 0)"/>
     <use xlink:href="#DejaVuSans-3c7" transform="translate(760.546875 0)"/>
     <use xlink:href="#DejaVuSans-3c9" transform="translate(813.09375 0)"/>
     <use xlink:href="#DejaVuSans-3" transform="translate(874.625 0)"/>
     <use xlink:href="#DejaVuSans-3db" transform="translate(906.40625 0)"/>
     <use xlink:href="#DejaVuSans-3cc" transform="translate(965.484375 0)"/>
     <use xlink:href="#DejaVuSans-3d6" transform="translate(1030.46875 0)"/>
     <use xlink:href="#DejaVuSans-3c4" transform="translate(1088.71875 0)"/>
     <use xlink:href="#DejaVuSans-3c9" transform="translate(1150 0)"/>
     <use xlink:href="#DejaVuSans-3d6" transform="translate(1211.53125 0)"/>
     <use xlink:href="#DejaVuSans-3d5" transform="translate(1269.78125 0)"/>
     <use xlink:href="#DejaVuSans-3e3" transform="translate(1324.765625 0)"/>
     <use xlink:href="#DejaVuSans-3" transform="translate(1384.921875 0)"/>
     <use xlink:href="#DejaVuSans-3c6" transform="translate(1416.703125 0)"/>
     <use xlink:href="#DejaVuSans-3c9" transform="translate(1475.640625 0)"/>
     <use xlink:href="#DejaVuSans-3d5" transform="translate(1537.171875 0)"/>
     <use xlink:href="#DejaVuSans-3e0" transform="translate(1592.15625 0)"/>
     <use xlink:href="#DejaVuSans-3" transform="translate(1651.09375 0)"/>
     <use xlink:href="#DejaVuSans-3ce" transform="translate(1682.875 0)"/>
     <use xlink:href="#DejaVuSans-3e1" transform="translate(1743.28125 0)"/>
     <use xlink:href="#DejaVuSans-3dc" transform="translate(1798.171875 0)"/>
     <use xlink:href="#DejaVuSans-1d" transform="translate(1889.671875 0)"/>
    </g>
    <!-- $2 \cdot n_{kv} \cdot d \cdot 2$ байт × $N$ на слой - -->
    <g style="fill: #52514e" transform="translate(343.44 207.970783) scale(0.095 -0.095)">
     <defs>
      <path id="DejaVuSans-d4f" d="M 684 2619 
L 1344 2619 
L 1344 1825 
L 684 1825 
L 684 2619 
z
" transform="scale(0.015625)"/>
      <path id="DejaVuSans-Oblique-51" d="M 3566 2113 
L 3156 0 
L 2578 0 
L 2988 2091 
Q 3016 2238 3031 2350 
Q 3047 2463 3047 2528 
Q 3047 2791 2881 2937 
Q 2716 3084 2419 3084 
Q 1956 3084 1622 2776 
Q 1288 2469 1184 1941 
L 800 0 
L 225 0 
L 903 3500 
L 1478 3500 
L 1363 2950 
Q 1603 3253 1940 3418 
Q 2278 3584 2650 3584 
Q 3113 3584 3367 3334 
Q 3622 3084 3622 2631 
Q 3622 2519 3608 2391 
Q 3594 2263 3566 2113 
z
" transform="scale(0.015625)"/>
      <path id="DejaVuSans-Oblique-47" d="M 2675 525 
Q 2444 222 2128 65 
Q 1813 -91 1428 -91 
Q 903 -91 598 267 
Q 294 625 294 1247 
Q 294 1766 478 2236 
Q 663 2706 1013 3078 
Q 1244 3325 1534 3454 
Q 1825 3584 2144 3584 
Q 2481 3584 2739 3421 
Q 2997 3259 3138 2956 
L 3513 4863 
L 4091 4863 
L 3144 0 
L 2566 0 
L 2675 525 
z
M 891 1350 
Q 891 897 1095 644 
Q 1300 391 1663 391 
Q 1931 391 2161 520 
Q 2391 650 2566 903 
Q 2750 1166 2856 1509 
Q 2963 1853 2963 2188 
Q 2963 2622 2758 2865 
Q 2553 3109 2194 3109 
Q 1922 3109 1687 2981 
Q 1453 2853 1288 2613 
Q 1106 2353 998 2009 
Q 891 1666 891 1350 
z
" transform="scale(0.015625)"/>
      <path id="DejaVuSans-99" d="M 4488 3438 
L 3059 2003 
L 4488 575 
L 4116 197 
L 2681 1631 
L 1247 197 
L 878 575 
L 2303 2003 
L 878 3438 
L 1247 3816 
L 2681 2381 
L 4116 3816 
L 4488 3438 
z
" transform="scale(0.015625)"/>
     </defs>
     <use xlink:href="#DejaVuSans-15" transform="translate(0 0.3125)"/>
     <use xlink:href="#DejaVuSans-d4f" transform="translate(83.105469 0.3125)"/>
     <use xlink:href="#DejaVuSans-Oblique-51" transform="translate(134.375 0.3125)"/>
     <use xlink:href="#DejaVuSans-Oblique-4e" transform="translate(197.753906 -14.687451) scale(0.7)"/>
     <use xlink:href="#DejaVuSans-Oblique-59" transform="translate(238.291016 -14.687451) scale(0.7)"/>
     <use xlink:href="#DejaVuSans-d4f" transform="translate(301.933594 0.3125)"/>
     <use xlink:href="#DejaVuSans-Oblique-47" transform="translate(353.203125 0.3125)"/>
     <use xlink:href="#DejaVuSans-d4f" transform="translate(436.162109 0.3125)"/>
     <use xlink:href="#DejaVuSans-15" transform="translate(487.431641 0.3125)"/>
     <use xlink:href="#DejaVuSans-3" transform="translate(551.054688 0.3125)"/>
     <use xlink:href="#DejaVuSans-3c5" transform="translate(582.841797 0.3125)"/>
     <use xlink:href="#DejaVuSans-3c4" transform="translate(644.511719 0.3125)"/>
     <use xlink:href="#DejaVuSans-3cd" transform="translate(705.791016 0.3125)"/>
     <use xlink:href="#DejaVuSans-3d6" transform="translate(770.78125 0.3125)"/>
     <use xlink:href="#DejaVuSans-3" transform="translate(829.033203 0.3125)"/>
     <use xlink:href="#DejaVuSans-99" transform="translate(860.820312 0.3125)"/>
     <use xlink:href="#DejaVuSans-3" transform="translate(944.609375 0.3125)"/>
     <use xlink:href="#DejaVuSans-Oblique-31" transform="translate(976.396484 0.3125)"/>
     <use xlink:href="#DejaVuSans-3" transform="translate(1051.201172 0.3125)"/>
     <use xlink:href="#DejaVuSans-3d1" transform="translate(1082.988281 0.3125)"/>
     <use xlink:href="#DejaVuSans-3c4" transform="translate(1148.369141 0.3125)"/>
     <use xlink:href="#DejaVuSans-3" transform="translate(1209.648438 0.3125)"/>
     <use xlink:href="#DejaVuSans-3d5" transform="translate(1241.435547 0.3125)"/>
     <use xlink:href="#DejaVuSans-3cf" transform="translate(1296.416016 0.3125)"/>
     <use xlink:href="#DejaVuSans-3d2" transform="translate(1360.332031 0.3125)"/>
     <use xlink:href="#DejaVuSans-3cd" transform="translate(1421.513672 0.3125)"/>
     <use xlink:href="#DejaVuSans-3" transform="translate(1486.503906 0.3125)"/>
     <use xlink:href="#DejaVuSans-10" transform="translate(1518.291016 0.3125)"/>
    </g>
    <!-- 16 GiB на всю модель при 128k -->
    <g style="fill: #52514e" transform="translate(343.44 219.373381) scale(0.095 -0.095)">
     <defs>
      <path id="DejaVuSans-19" d="M 2113 2584 
Q 1688 2584 1439 2293 
Q 1191 2003 1191 1497 
Q 1191 994 1439 701 
Q 1688 409 2113 409 
Q 2538 409 2786 701 
Q 3034 994 3034 1497 
Q 3034 2003 2786 2293 
Q 2538 2584 2113 2584 
z
M 3366 4563 
L 3366 3988 
Q 3128 4100 2886 4159 
Q 2644 4219 2406 4219 
Q 1781 4219 1451 3797 
Q 1122 3375 1075 2522 
Q 1259 2794 1537 2939 
Q 1816 3084 2150 3084 
Q 2853 3084 3261 2657 
Q 3669 2231 3669 1497 
Q 3669 778 3244 343 
Q 2819 -91 2113 -91 
Q 1303 -91 875 529 
Q 447 1150 447 2328 
Q 447 3434 972 4092 
Q 1497 4750 2381 4750 
Q 2619 4750 2861 4703 
Q 3103 4656 3366 4563 
z
" transform="scale(0.015625)"/>
      <path id="DejaVuSans-2a" d="M 3809 666 
L 3809 1919 
L 2778 1919 
L 2778 2438 
L 4434 2438 
L 4434 434 
Q 4069 175 3628 42 
Q 3188 -91 2688 -91 
Q 1594 -91 976 548 
Q 359 1188 359 2328 
Q 359 3472 976 4111 
Q 1594 4750 2688 4750 
Q 3144 4750 3555 4637 
Q 3966 4525 4313 4306 
L 4313 3634 
Q 3963 3931 3569 4081 
Q 3175 4231 2741 4231 
Q 1884 4231 1454 3753 
Q 1025 3275 1025 2328 
Q 1025 1384 1454 906 
Q 1884 428 2741 428 
Q 3075 428 3337 486 
Q 3600 544 3809 666 
z
" transform="scale(0.015625)"/>
      <path id="DejaVuSans-4c" d="M 603 3500 
L 1178 3500 
L 1178 0 
L 603 0 
L 603 3500 
z
M 603 4863 
L 1178 4863 
L 1178 4134 
L 603 4134 
L 603 4863 
z
" transform="scale(0.015625)"/>
      <path id="DejaVuSans-25" d="M 1259 2228 
L 1259 519 
L 2272 519 
Q 2781 519 3026 730 
Q 3272 941 3272 1375 
Q 3272 1813 3026 2020 
Q 2781 2228 2272 2228 
L 1259 2228 
z
M 1259 4147 
L 1259 2741 
L 2194 2741 
Q 2656 2741 2882 2914 
Q 3109 3088 3109 3444 
Q 3109 3797 2882 3972 
Q 2656 4147 2194 4147 
L 1259 4147 
z
M 628 4666 
L 2241 4666 
Q 2963 4666 3353 4366 
Q 3744 4066 3744 3513 
Q 3744 3084 3544 2831 
Q 3344 2578 2956 2516 
Q 3422 2416 3680 2098 
Q 3938 1781 3938 1306 
Q 3938 681 3513 340 
Q 3088 0 2303 0 
L 628 0 
L 628 4666 
z
" transform="scale(0.015625)"/>
      <path id="DejaVuSans-1b" d="M 2034 2216 
Q 1584 2216 1326 1975 
Q 1069 1734 1069 1313 
Q 1069 891 1326 650 
Q 1584 409 2034 409 
Q 2484 409 2743 651 
Q 3003 894 3003 1313 
Q 3003 1734 2745 1975 
Q 2488 2216 2034 2216 
z
M 1403 2484 
Q 997 2584 770 2862 
Q 544 3141 544 3541 
Q 544 4100 942 4425 
Q 1341 4750 2034 4750 
Q 2731 4750 3128 4425 
Q 3525 4100 3525 3541 
Q 3525 3141 3298 2862 
Q 3072 2584 2669 2484 
Q 3125 2378 3379 2068 
Q 3634 1759 3634 1313 
Q 3634 634 3220 271 
Q 2806 -91 2034 -91 
Q 1263 -91 848 271 
Q 434 634 434 1313 
Q 434 1759 690 2068 
Q 947 2378 1403 2484 
z
M 1172 3481 
Q 1172 3119 1398 2916 
Q 1625 2713 2034 2713 
Q 2441 2713 2670 2916 
Q 2900 3119 2900 3481 
Q 2900 3844 2670 4047 
Q 2441 4250 2034 4250 
Q 1625 4250 1398 4047 
Q 1172 3844 1172 3481 
z
" transform="scale(0.015625)"/>
      <path id="DejaVuSans-4e" d="M 581 4863 
L 1159 4863 
L 1159 1991 
L 2875 3500 
L 3609 3500 
L 1753 1863 
L 3688 0 
L 2938 0 
L 1159 1709 
L 1159 0 
L 581 0 
L 581 4863 
z
" transform="scale(0.015625)"/>
     </defs>
     <use xlink:href="#DejaVuSans-14"/>
     <use xlink:href="#DejaVuSans-19" transform="translate(63.625 0)"/>
     <use xlink:href="#DejaVuSans-3" transform="translate(127.25 0)"/>
     <use xlink:href="#DejaVuSans-2a" transform="translate(159.03125 0)"/>
     <use xlink:href="#DejaVuSans-4c" transform="translate(236.515625 0)"/>
     <use xlink:href="#DejaVuSans-25" transform="translate(264.296875 0)"/>
     <use xlink:href="#DejaVuSans-3" transform="translate(332.90625 0)"/>
     <use xlink:href="#DejaVuSans-3d1" transform="translate(364.6875 0)"/>
     <use xlink:href="#DejaVuSans-3c4" transform="translate(430.0625 0)"/>
     <use xlink:href="#DejaVuSans-3" transform="translate(491.34375 0)"/>
     <use xlink:href="#DejaVuSans-3c6" transform="translate(523.125 0)"/>
     <use xlink:href="#DejaVuSans-3d5" transform="translate(582.0625 0)"/>
     <use xlink:href="#DejaVuSans-3e2" transform="translate(637.046875 0)"/>
     <use xlink:href="#DejaVuSans-3" transform="translate(721.234375 0)"/>
     <use xlink:href="#DejaVuSans-3d0" transform="translate(753.015625 0)"/>
     <use xlink:href="#DejaVuSans-3d2" transform="translate(828.453125 0)"/>
     <use xlink:href="#DejaVuSans-3c8" transform="translate(889.640625 0)"/>
     <use xlink:href="#DejaVuSans-3c9" transform="translate(958.78125 0)"/>
     <use xlink:href="#DejaVuSans-3cf" transform="translate(1020.3125 0)"/>
     <use xlink:href="#DejaVuSans-3e0" transform="translate(1084.234375 0)"/>
     <use xlink:href="#DejaVuSans-3" transform="translate(1143.171875 0)"/>
     <use xlink:href="#DejaVuSans-3d3" transform="translate(1174.953125 0)"/>
     <use xlink:href="#DejaVuSans-3d4" transform="translate(1240.328125 0)"/>
     <use xlink:href="#DejaVuSans-3cc" transform="translate(1303.8125 0)"/>
     <use xlink:href="#DejaVuSans-3" transform="translate(1368.796875 0)"/>
     <use xlink:href="#DejaVuSans-14" transform="translate(1400.578125 0)"/>
     <use xlink:href="#DejaVuSans-15" transform="translate(1464.203125 0)"/>
     <use xlink:href="#DejaVuSans-1b" transform="translate(1527.828125 0)"/>
     <use xlink:href="#DejaVuSans-4e" transform="translate(1591.453125 0)"/>
    </g>
   </g>
   <g id="text_19">
    <!-- $k_{N+1}, v_{N+1}$ -->
    <g style="fill: #52514e" transform="translate(612.324 188.883745) scale(0.09 -0.09)">
     <defs>
      <path id="DejaVuSans-f" d="M 750 794 
L 1409 794 
L 1409 256 
L 897 -744 
L 494 -744 
L 750 256 
L 750 794 
z
" transform="scale(0.015625)"/>
     </defs>
     <use xlink:href="#DejaVuSans-Oblique-4e" transform="translate(0 0.015625)"/>
     <use xlink:href="#DejaVuSans-Oblique-31" transform="translate(57.910156 -14.984326) scale(0.7)"/>
     <use xlink:href="#DejaVuSans-e" transform="translate(123.911133 -14.984326) scale(0.7)"/>
     <use xlink:href="#DejaVuSans-14" transform="translate(196.201172 -14.984326) scale(0.7)"/>
     <use xlink:href="#DejaVuSans-f" transform="translate(243.47168 0.015625)"/>
     <use xlink:href="#DejaVuSans-Oblique-59" transform="translate(294.741211 0.015625)"/>
     <use xlink:href="#DejaVuSans-Oblique-31" transform="translate(353.920898 -14.984326) scale(0.7)"/>
     <use xlink:href="#DejaVuSans-e" transform="translate(419.921875 -14.984326) scale(0.7)"/>
     <use xlink:href="#DejaVuSans-14" transform="translate(492.211914 -14.984326) scale(0.7)"/>
    </g>
   </g>
   <g id="text_20">
    <!-- дописывает -->
    <g style="fill: #52514e" transform="translate(519.879425 129.534475) scale(0.095 -0.095)">
     <use xlink:href="#DejaVuSans-3c8"/>
     <use xlink:href="#DejaVuSans-3d2" transform="translate(69.140625 0)"/>
     <use xlink:href="#DejaVuSans-3d3" transform="translate(130.328125 0)"/>
     <use xlink:href="#DejaVuSans-3cc" transform="translate(195.703125 0)"/>
     <use xlink:href="#DejaVuSans-3d5" transform="translate(260.6875 0)"/>
     <use xlink:href="#DejaVuSans-3df" transform="translate(315.671875 0)"/>
     <use xlink:href="#DejaVuSans-3c6" transform="translate(394.625 0)"/>
     <use xlink:href="#DejaVuSans-3c4" transform="translate(453.5625 0)"/>
     <use xlink:href="#DejaVuSans-3c9" transform="translate(514.84375 0)"/>
     <use xlink:href="#DejaVuSans-3d6" transform="translate(576.375 0)"/>
    </g>
    <!-- +4 KiB на слой -->
    <g style="fill: #52514e" transform="translate(506.404269 140.937072) scale(0.095 -0.095)">
     <defs>
      <path id="DejaVuSans-17" d="M 2419 4116 
L 825 1625 
L 2419 1625 
L 2419 4116 
z
M 2253 4666 
L 3047 4666 
L 3047 1625 
L 3713 1625 
L 3713 1100 
L 3047 1100 
L 3047 0 
L 2419 0 
L 2419 1100 
L 313 1100 
L 313 1709 
L 2253 4666 
z
" transform="scale(0.015625)"/>
     </defs>
     <use xlink:href="#DejaVuSans-e"/>
     <use xlink:href="#DejaVuSans-17" transform="translate(83.796875 0)"/>
     <use xlink:href="#DejaVuSans-3" transform="translate(147.421875 0)"/>
     <use xlink:href="#DejaVuSans-2e" transform="translate(179.203125 0)"/>
     <use xlink:href="#DejaVuSans-4c" transform="translate(244.78125 0)"/>
     <use xlink:href="#DejaVuSans-25" transform="translate(272.5625 0)"/>
     <use xlink:href="#DejaVuSans-3" transform="translate(341.171875 0)"/>
     <use xlink:href="#DejaVuSans-3d1" transform="translate(372.953125 0)"/>
     <use xlink:href="#DejaVuSans-3c4" transform="translate(438.328125 0)"/>
     <use xlink:href="#DejaVuSans-3" transform="translate(499.609375 0)"/>
     <use xlink:href="#DejaVuSans-3d5" transform="translate(531.390625 0)"/>
     <use xlink:href="#DejaVuSans-3cf" transform="translate(586.375 0)"/>
     <use xlink:href="#DejaVuSans-3d2" transform="translate(650.296875 0)"/>
     <use xlink:href="#DejaVuSans-3cd" transform="translate(711.484375 0)"/>
    </g>
   </g>
   <g id="text_21">
    <!-- время шага ∝ размер кэша ∝ $N$; тензорные ядра ждут память -->
    <g style="fill: #0b0b0b" transform="translate(343.44 245.680856) scale(0.1 -0.1)">
     <defs>
      <path id="DejaVuSans-ca7" d="M 1647 1134 
Q 2163 1134 2472 1884 
Q 2075 2703 1647 2703 
Q 1334 2703 1175 2478 
Q 1006 2238 1006 1919 
Q 1006 1569 1175 1353 
Q 1350 1134 1647 1134 
z
M 3884 1128 
L 3884 716 
L 3644 716 
Q 3416 716 3247 809 
Q 3078 894 2916 1091 
Q 2819 1203 2666 1466 
Q 2456 1091 2272 925 
Q 2044 725 1681 725 
Q 1259 725 981 1041 
Q 688 1372 688 1919 
Q 688 2444 981 2800 
Q 1241 3116 1688 3116 
Q 1916 3116 2084 3022 
Q 2281 2919 2416 2741 
Q 2541 2581 2666 2366 
Q 2875 2741 3059 2906 
Q 3288 3106 3650 3106 
L 3884 3106 
L 3884 2697 
L 3684 2697 
Q 3222 2697 2859 1947 
Q 3256 1128 3684 1128 
L 3884 1128 
z
" transform="scale(0.015625)"/>
      <path id="DejaVuSans-1e" d="M 750 3309 
L 1409 3309 
L 1409 2516 
L 750 2516 
L 750 3309 
z
M 750 794 
L 1409 794 
L 1409 256 
L 897 -744 
L 494 -744 
L 750 256 
L 750 794 
z
" transform="scale(0.015625)"/>
     </defs>
     <use xlink:href="#DejaVuSans-3c6" transform="translate(0 0.09375)"/>
     <use xlink:href="#DejaVuSans-3d4" transform="translate(58.935547 0.09375)"/>
     <use xlink:href="#DejaVuSans-3c9" transform="translate(122.412109 0.09375)"/>
     <use xlink:href="#DejaVuSans-3d0" transform="translate(183.935547 0.09375)"/>
     <use xlink:href="#DejaVuSans-3e3" transform="translate(259.375 0.09375)"/>
     <use xlink:href="#DejaVuSans-3" transform="translate(319.53125 0.09375)"/>
     <use xlink:href="#DejaVuSans-3dc" transform="translate(351.318359 0.09375)"/>
     <use xlink:href="#DejaVuSans-3c4" transform="translate(442.822266 0.09375)"/>
     <use xlink:href="#DejaVuSans-3c7" transform="translate(504.101562 0.09375)"/>
     <use xlink:href="#DejaVuSans-3c4" transform="translate(556.640625 0.09375)"/>
     <use xlink:href="#DejaVuSans-3" transform="translate(617.919922 0.09375)"/>
     <use xlink:href="#DejaVuSans-ca7" transform="translate(649.707031 0.09375)"/>
     <use xlink:href="#DejaVuSans-3" transform="translate(721.142578 0.09375)"/>
     <use xlink:href="#DejaVuSans-3d4" transform="translate(752.929688 0.09375)"/>
     <use xlink:href="#DejaVuSans-3c4" transform="translate(816.40625 0.09375)"/>
     <use xlink:href="#DejaVuSans-3cb" transform="translate(877.685547 0.09375)"/>
     <use xlink:href="#DejaVuSans-3d0" transform="translate(930.859375 0.09375)"/>
     <use xlink:href="#DejaVuSans-3c9" transform="translate(1006.298828 0.09375)"/>
     <use xlink:href="#DejaVuSans-3d4" transform="translate(1067.822266 0.09375)"/>
     <use xlink:href="#DejaVuSans-3" transform="translate(1131.298828 0.09375)"/>
     <use xlink:href="#DejaVuSans-3ce" transform="translate(1163.085938 0.09375)"/>
     <use xlink:href="#DejaVuSans-3e1" transform="translate(1223.486328 0.09375)"/>
     <use xlink:href="#DejaVuSans-3dc" transform="translate(1278.369141 0.09375)"/>
     <use xlink:href="#DejaVuSans-3c4" transform="translate(1369.873047 0.09375)"/>
     <use xlink:href="#DejaVuSans-3" transform="translate(1431.152344 0.09375)"/>
     <use xlink:href="#DejaVuSans-ca7" transform="translate(1462.939453 0.09375)"/>
     <use xlink:href="#DejaVuSans-3" transform="translate(1534.375 0.09375)"/>
     <use xlink:href="#DejaVuSans-Oblique-31" transform="translate(1566.162109 0.09375)"/>
     <use xlink:href="#DejaVuSans-1e" transform="translate(1640.966797 0.09375)"/>
     <use xlink:href="#DejaVuSans-3" transform="translate(1674.658203 0.09375)"/>
     <use xlink:href="#DejaVuSans-3d6" transform="translate(1706.445312 0.09375)"/>
     <use xlink:href="#DejaVuSans-3c9" transform="translate(1764.697266 0.09375)"/>
     <use xlink:href="#DejaVuSans-3d1" transform="translate(1826.220703 0.09375)"/>
     <use xlink:href="#DejaVuSans-3cb" transform="translate(1891.601562 0.09375)"/>
     <use xlink:href="#DejaVuSans-3d2" transform="translate(1944.775391 0.09375)"/>
     <use xlink:href="#DejaVuSans-3d4" transform="translate(2005.957031 0.09375)"/>
     <use xlink:href="#DejaVuSans-3d1" transform="translate(2069.433594 0.09375)"/>
     <use xlink:href="#DejaVuSans-3df" transform="translate(2134.814453 0.09375)"/>
     <use xlink:href="#DejaVuSans-3c9" transform="translate(2213.769531 0.09375)"/>
     <use xlink:href="#DejaVuSans-3" transform="translate(2275.292969 0.09375)"/>
     <use xlink:href="#DejaVuSans-3e3" transform="translate(2307.080078 0.09375)"/>
     <use xlink:href="#DejaVuSans-3c8" transform="translate(2367.236328 0.09375)"/>
     <use xlink:href="#DejaVuSans-3d4" transform="translate(2436.376953 0.09375)"/>
     <use xlink:href="#DejaVuSans-3c4" transform="translate(2499.853516 0.09375)"/>
     <use xlink:href="#DejaVuSans-3" transform="translate(2561.132812 0.09375)"/>
     <use xlink:href="#DejaVuSans-3ca" transform="translate(2592.919922 0.09375)"/>
     <use xlink:href="#DejaVuSans-3c8" transform="translate(2683.007812 0.09375)"/>
     <use xlink:href="#DejaVuSans-3d7" transform="translate(2752.148438 0.09375)"/>
     <use xlink:href="#DejaVuSans-3d6" transform="translate(2811.328125 0.09375)"/>
     <use xlink:href="#DejaVuSans-3" transform="translate(2869.580078 0.09375)"/>
     <use xlink:href="#DejaVuSans-3d3" transform="translate(2901.367188 0.09375)"/>
     <use xlink:href="#DejaVuSans-3c4" transform="translate(2966.748047 0.09375)"/>
     <use xlink:href="#DejaVuSans-3d0" transform="translate(3028.027344 0.09375)"/>
     <use xlink:href="#DejaVuSans-3e3" transform="translate(3103.466797 0.09375)"/>
     <use xlink:href="#DejaVuSans-3d6" transform="translate(3163.623047 0.09375)"/>
     <use xlink:href="#DejaVuSans-3e0" transform="translate(3221.875 0.09375)"/>
    </g>
   </g>
  </g>
 </g>
 <defs>
  <clipPath id="p97c9393aa3">
   <rect x="10.8" y="10.8" width="693" height="243.936"/>
  </clipPath>
 </defs>
</svg>
