<?xml version="1.0" encoding="utf-8" standalone="no"?>
<!DOCTYPE svg PUBLIC "-//W3C//DTD SVG 1.1//EN"
  "http://www.w3.org/Graphics/SVG/1.1/DTD/svg11.dtd">
<svg xmlns:xlink="http://www.w3.org/1999/xlink" width="661.861534pt" height="342.157156pt" viewBox="0 0 661.861534 342.157156" xmlns="http://www.w3.org/2000/svg" version="1.1">
 <metadata>
  <rdf:RDF xmlns:dc="http://purl.org/dc/elements/1.1/" xmlns:cc="http://creativecommons.org/ns#" xmlns:rdf="http://www.w3.org/1999/02/22-rdf-syntax-ns#">
   <cc:Work>
    <dc:type rdf:resource="http://purl.org/dc/dcmitype/StillImage"/>
    <dc:date>2026-09-21T22:06:26.292588</dc:date>
    <dc:format>image/svg+xml</dc:format>
    <dc:creator>
     <cc:Agent>
      <dc:title>Matplotlib v3.11.2, https://matplotlib.org/</dc:title>
     </cc:Agent>
    </dc:creator>
   </cc:Work>
  </rdf:RDF>
 </metadata>
 <defs>
  <style type="text/css">*{stroke-linejoin: round; stroke-linecap: butt}</style>
 </defs>
 <g id="figure_1">
  <g id="patch_1">
   <path d="M 0 342.157156 
L 661.861534 342.157156 
L 661.861534 0 
L 0 0 
z
" style="fill: #fcfcfb"/>
  </g>
  <g id="axes_1">
   <g id="patch_2">
    <path d="M 58.65 296.152 
L 560.85 296.152 
L 560.85 30.04 
L 58.65 30.04 
z
" style="fill: #fcfcfb"/>
   </g>
   <g id="matplotlib.axis_1">
    <g id="xtick_1">
     <g id="line2d_1">
      <path d="M 93.799084 296.152 
L 93.799084 30.04 
" clip-path="url(#pa435dcdd1d)" style="fill: none; stroke: #e1e0d9; stroke-width: 0.8; stroke-linecap: round"/>
     </g>
     <g id="line2d_2">
      <defs>
       <path id="m3815989bbd" d="M 0 0 
L 0 3.5 
" style="stroke: #898781; stroke-width: 0.8"/>
      </defs>
      <g>
       <use xlink:href="#m3815989bbd" x="93.799084" y="296.152" style="fill: #898781; stroke: #898781; stroke-width: 0.8"/>
      </g>
     </g>
     <g id="text_1">
      <!-- $\mathdefault{10^{-1}}$ -->
      <g style="fill: #898781" transform="translate(80.874084 313.382) scale(0.11 -0.11)">
       <defs>
        <path id="DejaVuSans-14" d="M 794 531 
L 1825 531 
L 1825 4091 
L 703 3866 
L 703 4441 
L 1819 4666 
L 2450 4666 
L 2450 531 
L 3481 531 
L 3481 0 
L 794 0 
L 794 531 
z
" transform="scale(0.015625)"/>
        <path id="DejaVuSans-13" d="M 2034 4250 
Q 1547 4250 1301 3770 
Q 1056 3291 1056 2328 
Q 1056 1369 1301 889 
Q 1547 409 2034 409 
Q 2525 409 2770 889 
Q 3016 1369 3016 2328 
Q 3016 3291 2770 3770 
Q 2525 4250 2034 4250 
z
M 2034 4750 
Q 2819 4750 3233 4129 
Q 3647 3509 3647 2328 
Q 3647 1150 3233 529 
Q 2819 -91 2034 -91 
Q 1250 -91 836 529 
Q 422 1150 422 2328 
Q 422 3509 836 4129 
Q 1250 4750 2034 4750 
z
" transform="scale(0.015625)"/>
        <path id="DejaVuSans-c9c" d="M 678 2272 
L 4684 2272 
L 4684 1741 
L 678 1741 
L 678 2272 
z
" transform="scale(0.015625)"/>
       </defs>
       <use xlink:href="#DejaVuSans-14" transform="translate(0 0.665625)"/>
       <use xlink:href="#DejaVuSans-13" transform="translate(63.623047 0.665625)"/>
       <use xlink:href="#DejaVuSans-c9c" transform="translate(128.203125 41.965625) scale(0.7)"/>
       <use xlink:href="#DejaVuSans-14" transform="translate(186.855469 41.965625) scale(0.7)"/>
      </g>
     </g>
    </g>
    <g id="xtick_2">
     <g id="line2d_3">
      <path d="M 210.561813 296.152 
L 210.561813 30.04 
" clip-path="url(#pa435dcdd1d)" style="fill: none; stroke: #e1e0d9; stroke-width: 0.8; stroke-linecap: round"/>
     </g>
     <g id="line2d_4">
      <g>
       <use xlink:href="#m3815989bbd" x="210.561813" y="296.152" style="fill: #898781; stroke: #898781; stroke-width: 0.8"/>
      </g>
     </g>
     <g id="text_2">
      <!-- $\mathdefault{10^{0}}$ -->
      <g style="fill: #898781" transform="translate(200.881813 313.492) scale(0.11 -0.11)">
       <use xlink:href="#DejaVuSans-14" transform="translate(0 0.746875)"/>
       <use xlink:href="#DejaVuSans-13" transform="translate(63.623047 0.746875)"/>
       <use xlink:href="#DejaVuSans-13" transform="translate(128.203125 42.046875) scale(0.7)"/>
      </g>
     </g>
    </g>
    <g id="xtick_3">
     <g id="line2d_5">
      <path d="M 327.324542 296.152 
L 327.324542 30.04 
" clip-path="url(#pa435dcdd1d)" style="fill: none; stroke: #e1e0d9; stroke-width: 0.8; stroke-linecap: round"/>
     </g>
     <g id="line2d_6">
      <g>
       <use xlink:href="#m3815989bbd" x="327.324542" y="296.152" style="fill: #898781; stroke: #898781; stroke-width: 0.8"/>
      </g>
     </g>
     <g id="text_3">
      <!-- $\mathdefault{10^{1}}$ -->
      <g style="fill: #898781" transform="translate(317.644542 313.382) scale(0.11 -0.11)">
       <use xlink:href="#DejaVuSans-14" transform="translate(0 0.665625)"/>
       <use xlink:href="#DejaVuSans-13" transform="translate(63.623047 0.665625)"/>
       <use xlink:href="#DejaVuSans-14" transform="translate(128.203125 41.965625) scale(0.7)"/>
      </g>
     </g>
    </g>
    <g id="xtick_4">
     <g id="line2d_7">
      <path d="M 444.087271 296.152 
L 444.087271 30.04 
" clip-path="url(#pa435dcdd1d)" style="fill: none; stroke: #e1e0d9; stroke-width: 0.8; stroke-linecap: round"/>
     </g>
     <g id="line2d_8">
      <g>
       <use xlink:href="#m3815989bbd" x="444.087271" y="296.152" style="fill: #898781; stroke: #898781; stroke-width: 0.8"/>
      </g>
     </g>
     <g id="text_4">
      <!-- $\mathdefault{10^{2}}$ -->
      <g style="fill: #898781" transform="translate(434.407271 313.492) scale(0.11 -0.11)">
       <defs>
        <path id="DejaVuSans-15" d="M 1228 531 
L 3431 531 
L 3431 0 
L 469 0 
L 469 531 
Q 828 903 1448 1529 
Q 2069 2156 2228 2338 
Q 2531 2678 2651 2914 
Q 2772 3150 2772 3378 
Q 2772 3750 2511 3984 
Q 2250 4219 1831 4219 
Q 1534 4219 1204 4116 
Q 875 4013 500 3803 
L 500 4441 
Q 881 4594 1212 4672 
Q 1544 4750 1819 4750 
Q 2544 4750 2975 4387 
Q 3406 4025 3406 3419 
Q 3406 3131 3298 2873 
Q 3191 2616 2906 2266 
Q 2828 2175 2409 1742 
Q 1991 1309 1228 531 
z
" transform="scale(0.015625)"/>
       </defs>
       <use xlink:href="#DejaVuSans-14" transform="translate(0 0.746875)"/>
       <use xlink:href="#DejaVuSans-13" transform="translate(63.623047 0.746875)"/>
       <use xlink:href="#DejaVuSans-15" transform="translate(128.203125 42.046875) scale(0.7)"/>
      </g>
     </g>
    </g>
    <g id="xtick_5">
     <g id="line2d_9">
      <path d="M 560.85 296.152 
L 560.85 30.04 
" clip-path="url(#pa435dcdd1d)" style="fill: none; stroke: #e1e0d9; stroke-width: 0.8; stroke-linecap: round"/>
     </g>
     <g id="line2d_10">
      <g>
       <use xlink:href="#m3815989bbd" x="560.85" y="296.152" style="fill: #898781; stroke: #898781; stroke-width: 0.8"/>
      </g>
     </g>
     <g id="text_5">
      <!-- $\mathdefault{10^{3}}$ -->
      <g style="fill: #898781" transform="translate(551.17 313.492) scale(0.11 -0.11)">
       <defs>
        <path id="DejaVuSans-16" d="M 2597 2516 
Q 3050 2419 3304 2112 
Q 3559 1806 3559 1356 
Q 3559 666 3084 287 
Q 2609 -91 1734 -91 
Q 1441 -91 1130 -33 
Q 819 25 488 141 
L 488 750 
Q 750 597 1062 519 
Q 1375 441 1716 441 
Q 2309 441 2620 675 
Q 2931 909 2931 1356 
Q 2931 1769 2642 2001 
Q 2353 2234 1838 2234 
L 1294 2234 
L 1294 2753 
L 1863 2753 
Q 2328 2753 2575 2939 
Q 2822 3125 2822 3475 
Q 2822 3834 2567 4026 
Q 2313 4219 1838 4219 
Q 1578 4219 1281 4162 
Q 984 4106 628 3988 
L 628 4550 
Q 988 4650 1302 4700 
Q 1616 4750 1894 4750 
Q 2613 4750 3031 4423 
Q 3450 4097 3450 3541 
Q 3450 3153 3228 2886 
Q 3006 2619 2597 2516 
z
" transform="scale(0.015625)"/>
       </defs>
       <use xlink:href="#DejaVuSans-14" transform="translate(0 0.746875)"/>
       <use xlink:href="#DejaVuSans-13" transform="translate(63.623047 0.746875)"/>
       <use xlink:href="#DejaVuSans-16" transform="translate(128.203125 42.046875) scale(0.7)"/>
      </g>
     </g>
    </g>
    <g id="xtick_6">
     <g id="line2d_11">
      <defs>
       <path id="m6929d5f66a" d="M 0 0 
L 0 2 
" style="stroke: #898781; stroke-width: 0.6"/>
      </defs>
      <g>
       <use xlink:href="#m6929d5f66a" x="58.65" y="296.152" style="fill: #898781; stroke: #898781; stroke-width: 0.6"/>
      </g>
     </g>
    </g>
    <g id="xtick_7">
     <g id="line2d_12">
      <g>
       <use xlink:href="#m6929d5f66a" x="67.895418" y="296.152" style="fill: #898781; stroke: #898781; stroke-width: 0.6"/>
      </g>
     </g>
    </g>
    <g id="xtick_8">
     <g id="line2d_13">
      <g>
       <use xlink:href="#m6929d5f66a" x="75.712308" y="296.152" style="fill: #898781; stroke: #898781; stroke-width: 0.6"/>
      </g>
     </g>
    </g>
    <g id="xtick_9">
     <g id="line2d_14">
      <g>
       <use xlink:href="#m6929d5f66a" x="82.483606" y="296.152" style="fill: #898781; stroke: #898781; stroke-width: 0.6"/>
      </g>
     </g>
    </g>
    <g id="xtick_10">
     <g id="line2d_15">
      <g>
       <use xlink:href="#m6929d5f66a" x="88.456314" y="296.152" style="fill: #898781; stroke: #898781; stroke-width: 0.6"/>
      </g>
     </g>
    </g>
    <g id="xtick_11">
     <g id="line2d_16">
      <g>
       <use xlink:href="#m6929d5f66a" x="128.948168" y="296.152" style="fill: #898781; stroke: #898781; stroke-width: 0.6"/>
      </g>
     </g>
    </g>
    <g id="xtick_12">
     <g id="line2d_17">
      <g>
       <use xlink:href="#m6929d5f66a" x="149.509064" y="296.152" style="fill: #898781; stroke: #898781; stroke-width: 0.6"/>
      </g>
     </g>
    </g>
    <g id="xtick_13">
     <g id="line2d_18">
      <g>
       <use xlink:href="#m6929d5f66a" x="164.097251" y="296.152" style="fill: #898781; stroke: #898781; stroke-width: 0.6"/>
      </g>
     </g>
    </g>
    <g id="xtick_14">
     <g id="line2d_19">
      <g>
       <use xlink:href="#m6929d5f66a" x="175.412729" y="296.152" style="fill: #898781; stroke: #898781; stroke-width: 0.6"/>
      </g>
     </g>
    </g>
    <g id="xtick_15">
     <g id="line2d_20">
      <g>
       <use xlink:href="#m6929d5f66a" x="184.658147" y="296.152" style="fill: #898781; stroke: #898781; stroke-width: 0.6"/>
      </g>
     </g>
    </g>
    <g id="xtick_16">
     <g id="line2d_21">
      <g>
       <use xlink:href="#m6929d5f66a" x="192.475037" y="296.152" style="fill: #898781; stroke: #898781; stroke-width: 0.6"/>
      </g>
     </g>
    </g>
    <g id="xtick_17">
     <g id="line2d_22">
      <g>
       <use xlink:href="#m6929d5f66a" x="199.246335" y="296.152" style="fill: #898781; stroke: #898781; stroke-width: 0.6"/>
      </g>
     </g>
    </g>
    <g id="xtick_18">
     <g id="line2d_23">
      <g>
       <use xlink:href="#m6929d5f66a" x="205.219043" y="296.152" style="fill: #898781; stroke: #898781; stroke-width: 0.6"/>
      </g>
     </g>
    </g>
    <g id="xtick_19">
     <g id="line2d_24">
      <g>
       <use xlink:href="#m6929d5f66a" x="245.710897" y="296.152" style="fill: #898781; stroke: #898781; stroke-width: 0.6"/>
      </g>
     </g>
    </g>
    <g id="xtick_20">
     <g id="line2d_25">
      <g>
       <use xlink:href="#m6929d5f66a" x="266.271793" y="296.152" style="fill: #898781; stroke: #898781; stroke-width: 0.6"/>
      </g>
     </g>
    </g>
    <g id="xtick_21">
     <g id="line2d_26">
      <g>
       <use xlink:href="#m6929d5f66a" x="280.859981" y="296.152" style="fill: #898781; stroke: #898781; stroke-width: 0.6"/>
      </g>
     </g>
    </g>
    <g id="xtick_22">
     <g id="line2d_27">
      <g>
       <use xlink:href="#m6929d5f66a" x="292.175458" y="296.152" style="fill: #898781; stroke: #898781; stroke-width: 0.6"/>
      </g>
     </g>
    </g>
    <g id="xtick_23">
     <g id="line2d_28">
      <g>
       <use xlink:href="#m6929d5f66a" x="301.420876" y="296.152" style="fill: #898781; stroke: #898781; stroke-width: 0.6"/>
      </g>
     </g>
    </g>
    <g id="xtick_24">
     <g id="line2d_29">
      <g>
       <use xlink:href="#m6929d5f66a" x="309.237766" y="296.152" style="fill: #898781; stroke: #898781; stroke-width: 0.6"/>
      </g>
     </g>
    </g>
    <g id="xtick_25">
     <g id="line2d_30">
      <g>
       <use xlink:href="#m6929d5f66a" x="316.009064" y="296.152" style="fill: #898781; stroke: #898781; stroke-width: 0.6"/>
      </g>
     </g>
    </g>
    <g id="xtick_26">
     <g id="line2d_31">
      <g>
       <use xlink:href="#m6929d5f66a" x="321.981772" y="296.152" style="fill: #898781; stroke: #898781; stroke-width: 0.6"/>
      </g>
     </g>
    </g>
    <g id="xtick_27">
     <g id="line2d_32">
      <g>
       <use xlink:href="#m6929d5f66a" x="362.473626" y="296.152" style="fill: #898781; stroke: #898781; stroke-width: 0.6"/>
      </g>
     </g>
    </g>
    <g id="xtick_28">
     <g id="line2d_33">
      <g>
       <use xlink:href="#m6929d5f66a" x="383.034522" y="296.152" style="fill: #898781; stroke: #898781; stroke-width: 0.6"/>
      </g>
     </g>
    </g>
    <g id="xtick_29">
     <g id="line2d_34">
      <g>
       <use xlink:href="#m6929d5f66a" x="397.62271" y="296.152" style="fill: #898781; stroke: #898781; stroke-width: 0.6"/>
      </g>
     </g>
    </g>
    <g id="xtick_30">
     <g id="line2d_35">
      <g>
       <use xlink:href="#m6929d5f66a" x="408.938187" y="296.152" style="fill: #898781; stroke: #898781; stroke-width: 0.6"/>
      </g>
     </g>
    </g>
    <g id="xtick_31">
     <g id="line2d_36">
      <g>
       <use xlink:href="#m6929d5f66a" x="418.183606" y="296.152" style="fill: #898781; stroke: #898781; stroke-width: 0.6"/>
      </g>
     </g>
    </g>
    <g id="xtick_32">
     <g id="line2d_37">
      <g>
       <use xlink:href="#m6929d5f66a" x="426.000495" y="296.152" style="fill: #898781; stroke: #898781; stroke-width: 0.6"/>
      </g>
     </g>
    </g>
    <g id="xtick_33">
     <g id="line2d_38">
      <g>
       <use xlink:href="#m6929d5f66a" x="432.771793" y="296.152" style="fill: #898781; stroke: #898781; stroke-width: 0.6"/>
      </g>
     </g>
    </g>
    <g id="xtick_34">
     <g id="line2d_39">
      <g>
       <use xlink:href="#m6929d5f66a" x="438.744501" y="296.152" style="fill: #898781; stroke: #898781; stroke-width: 0.6"/>
      </g>
     </g>
    </g>
    <g id="xtick_35">
     <g id="line2d_40">
      <g>
       <use xlink:href="#m6929d5f66a" x="479.236355" y="296.152" style="fill: #898781; stroke: #898781; stroke-width: 0.6"/>
      </g>
     </g>
    </g>
    <g id="xtick_36">
     <g id="line2d_41">
      <g>
       <use xlink:href="#m6929d5f66a" x="499.797251" y="296.152" style="fill: #898781; stroke: #898781; stroke-width: 0.6"/>
      </g>
     </g>
    </g>
    <g id="xtick_37">
     <g id="line2d_42">
      <g>
       <use xlink:href="#m6929d5f66a" x="514.385439" y="296.152" style="fill: #898781; stroke: #898781; stroke-width: 0.6"/>
      </g>
     </g>
    </g>
    <g id="xtick_38">
     <g id="line2d_43">
      <g>
       <use xlink:href="#m6929d5f66a" x="525.700916" y="296.152" style="fill: #898781; stroke: #898781; stroke-width: 0.6"/>
      </g>
     </g>
    </g>
    <g id="xtick_39">
     <g id="line2d_44">
      <g>
       <use xlink:href="#m6929d5f66a" x="534.946335" y="296.152" style="fill: #898781; stroke: #898781; stroke-width: 0.6"/>
      </g>
     </g>
    </g>
    <g id="xtick_40">
     <g id="line2d_45">
      <g>
       <use xlink:href="#m6929d5f66a" x="542.763224" y="296.152" style="fill: #898781; stroke: #898781; stroke-width: 0.6"/>
      </g>
     </g>
    </g>
    <g id="xtick_41">
     <g id="line2d_46">
      <g>
       <use xlink:href="#m6929d5f66a" x="549.534522" y="296.152" style="fill: #898781; stroke: #898781; stroke-width: 0.6"/>
      </g>
     </g>
    </g>
    <g id="xtick_42">
     <g id="line2d_47">
      <g>
       <use xlink:href="#m6929d5f66a" x="555.507231" y="296.152" style="fill: #898781; stroke: #898781; stroke-width: 0.6"/>
      </g>
     </g>
    </g>
    <g id="text_6">
     <!-- арифметическая интенсивность $I$, FLOP на байт -->
     <g style="fill: #52514e" transform="translate(170.71 328.714578) scale(0.11 -0.11)">
      <defs>
       <path id="DejaVuSans-3c4" d="M 2194 1759 
Q 1497 1759 1228 1600 
Q 959 1441 959 1056 
Q 959 750 1161 570 
Q 1363 391 1709 391 
Q 2188 391 2477 730 
Q 2766 1069 2766 1631 
L 2766 1759 
L 2194 1759 
z
M 3341 1997 
L 3341 0 
L 2766 0 
L 2766 531 
Q 2569 213 2275 61 
Q 1981 -91 1556 -91 
Q 1019 -91 701 211 
Q 384 513 384 1019 
Q 384 1609 779 1909 
Q 1175 2209 1959 2209 
L 2766 2209 
L 2766 2266 
Q 2766 2663 2505 2880 
Q 2244 3097 1772 3097 
Q 1472 3097 1187 3025 
Q 903 2953 641 2809 
L 641 3341 
Q 956 3463 1253 3523 
Q 1550 3584 1831 3584 
Q 2591 3584 2966 3190 
Q 3341 2797 3341 1997 
z
" transform="scale(0.015625)"/>
       <path id="DejaVuSans-3d4" d="M 1159 525 
L 1159 -1331 
L 581 -1331 
L 581 3500 
L 1159 3500 
L 1159 2969 
Q 1341 3281 1617 3432 
Q 1894 3584 2278 3584 
Q 2916 3584 3314 3078 
Q 3713 2572 3713 1747 
Q 3713 922 3314 415 
Q 2916 -91 2278 -91 
Q 1894 -91 1617 61 
Q 1341 213 1159 525 
z
M 3116 1747 
Q 3116 2381 2855 2742 
Q 2594 3103 2138 3103 
Q 1681 3103 1420 2742 
Q 1159 2381 1159 1747 
Q 1159 1113 1420 752 
Q 1681 391 2138 391 
Q 2594 391 2855 752 
Q 3116 1113 3116 1747 
z
" transform="scale(0.015625)"/>
       <path id="DejaVuSans-3cc" d="M 3578 3500 
L 3578 0 
L 3006 0 
L 3006 2809 
L 1319 0 
L 581 0 
L 581 3500 
L 1153 3500 
L 1153 697 
L 2838 3500 
L 3578 3500 
z
" transform="scale(0.015625)"/>
       <path id="DejaVuSans-3d8" d="M 947 1747 
Q 947 1013 1173 702 
Q 1400 391 1784 391 
Q 2091 391 2447 916 
L 2447 2578 
Q 2091 3103 1784 3103 
Q 1400 3103 1173 2792 
Q 947 2481 947 1747 
z
M 2447 -1331 
L 2447 447 
Q 2269 153 2064 31 
Q 1859 -91 1600 -91 
Q 1078 -91 714 392 
Q 350 875 350 1734 
Q 350 2594 714 3089 
Q 1078 3584 1600 3584 
Q 1859 3584 2064 3465 
Q 2269 3347 2447 3053 
L 2447 4666 
L 3025 4666 
L 3025 3053 
Q 3203 3347 3408 3465 
Q 3613 3584 3872 3584 
Q 4394 3584 4758 3089 
Q 5122 2594 5122 1734 
Q 5122 875 4758 392 
Q 4394 -91 3872 -91 
Q 3613 -91 3408 31 
Q 3203 153 3025 447 
L 3025 -1331 
L 2447 -1331 
z
M 4525 1747 
Q 4525 2481 4298 2792 
Q 4072 3103 3688 3103 
Q 3381 3103 3025 2578 
L 3025 916 
Q 3381 391 3688 391 
Q 4072 391 4298 702 
Q 4525 1013 4525 1747 
z
" transform="scale(0.015625)"/>
       <path id="DejaVuSans-3d0" d="M 581 3500 
L 1422 3500 
L 2416 1156 
L 3413 3500 
L 4247 3500 
L 4247 0 
L 3669 0 
L 3669 2950 
L 2703 672 
L 2128 672 
L 1159 2950 
L 1159 0 
L 581 0 
L 581 3500 
z
" transform="scale(0.015625)"/>
       <path id="DejaVuSans-3c9" d="M 3597 1894 
L 3597 1613 
L 953 1613 
Q 991 1019 1311 708 
Q 1631 397 2203 397 
Q 2534 397 2845 478 
Q 3156 559 3463 722 
L 3463 178 
Q 3153 47 2828 -22 
Q 2503 -91 2169 -91 
Q 1331 -91 842 396 
Q 353 884 353 1716 
Q 353 2575 817 3079 
Q 1281 3584 2069 3584 
Q 2775 3584 3186 3129 
Q 3597 2675 3597 1894 
z
M 3022 2063 
Q 3016 2534 2758 2815 
Q 2500 3097 2075 3097 
Q 1594 3097 1305 2825 
Q 1016 2553 972 2059 
L 3022 2063 
z
" transform="scale(0.015625)"/>
       <path id="DejaVuSans-3d6" d="M 188 3500 
L 3541 3500 
L 3541 3041 
L 2147 3041 
L 2147 0 
L 1581 0 
L 1581 3041 
L 188 3041 
L 188 3500 
z
" transform="scale(0.015625)"/>
       <path id="DejaVuSans-3db" d="M 2625 0 
L 2625 1472 
L 1553 1472 
Q 1075 1472 756 1769 
Q 469 2038 469 2613 
L 469 3500 
L 1044 3500 
L 1044 2666 
Q 1044 2300 1206 2116 
Q 1372 1931 1697 1931 
L 2625 1931 
L 2625 3500 
L 3200 3500 
L 3200 0 
L 2625 0 
z
" transform="scale(0.015625)"/>
       <path id="DejaVuSans-3d5" d="M 3122 3366 
L 3122 2828 
Q 2878 2963 2633 3030 
Q 2388 3097 2138 3097 
Q 1578 3097 1268 2742 
Q 959 2388 959 1747 
Q 959 1106 1268 751 
Q 1578 397 2138 397 
Q 2388 397 2633 464 
Q 2878 531 3122 666 
L 3122 134 
Q 2881 22 2623 -34 
Q 2366 -91 2075 -91 
Q 1284 -91 818 406 
Q 353 903 353 1747 
Q 353 2603 823 3093 
Q 1294 3584 2113 3584 
Q 2378 3584 2631 3529 
Q 2884 3475 3122 3366 
z
" transform="scale(0.015625)"/>
       <path id="DejaVuSans-3ce" d="M 581 3500 
L 1153 3500 
L 1153 1856 
L 2775 3500 
L 3481 3500 
L 2144 2147 
L 3653 0 
L 3009 0 
L 1769 1766 
L 1153 1141 
L 1153 0 
L 581 0 
L 581 3500 
z
" transform="scale(0.015625)"/>
       <path id="DejaVuSans-3e3" d="M 1181 2491 
Q 1181 2231 1381 2084 
Q 1581 1938 1953 1938 
L 2728 1938 
L 2728 3041 
L 1953 3041 
Q 1581 3041 1381 2897 
Q 1181 2753 1181 2491 
z
M 363 0 
L 1431 1534 
Q 1069 1616 828 1830 
Q 588 2044 588 2491 
Q 588 2997 923 3248 
Q 1259 3500 1938 3500 
L 3306 3500 
L 3306 0 
L 2728 0 
L 2728 1478 
L 2013 1478 
L 981 0 
L 363 0 
z
" transform="scale(0.015625)"/>
       <path id="DejaVuSans-3" transform="scale(0.015625)"/>
       <path id="DejaVuSans-3d1" d="M 581 3500 
L 1159 3500 
L 1159 2072 
L 3025 2072 
L 3025 3500 
L 3603 3500 
L 3603 0 
L 3025 0 
L 3025 1613 
L 1159 1613 
L 1159 0 
L 581 0 
L 581 3500 
z
" transform="scale(0.015625)"/>
       <path id="DejaVuSans-3c6" d="M 1156 1613 
L 1156 459 
L 1975 459 
Q 2369 459 2575 607 
Q 2781 756 2781 1038 
Q 2781 1319 2575 1466 
Q 2369 1613 1975 1613 
L 1156 1613 
z
M 1156 3041 
L 1156 2072 
L 1913 2072 
Q 2238 2072 2444 2201 
Q 2650 2331 2650 2563 
Q 2650 2794 2444 2917 
Q 2238 3041 1913 3041 
L 1156 3041 
z
M 581 3500 
L 1950 3500 
Q 2566 3500 2897 3275 
Q 3228 3050 3228 2634 
Q 3228 2313 3059 2123 
Q 2891 1934 2559 1888 
Q 2956 1813 3175 1575 
Q 3394 1338 3394 981 
Q 3394 513 3033 256 
Q 2672 0 2003 0 
L 581 0 
L 581 3500 
z
" transform="scale(0.015625)"/>
       <path id="DejaVuSans-3d2" d="M 1959 3097 
Q 1497 3097 1228 2736 
Q 959 2375 959 1747 
Q 959 1119 1226 758 
Q 1494 397 1959 397 
Q 2419 397 2687 759 
Q 2956 1122 2956 1747 
Q 2956 2369 2687 2733 
Q 2419 3097 1959 3097 
z
M 1959 3584 
Q 2709 3584 3137 3096 
Q 3566 2609 3566 1747 
Q 3566 888 3137 398 
Q 2709 -91 1959 -91 
Q 1206 -91 779 398 
Q 353 888 353 1747 
Q 353 2609 779 3096 
Q 1206 3584 1959 3584 
z
" transform="scale(0.015625)"/>
       <path id="DejaVuSans-3e0" d="M 2781 1038 
Q 2781 1319 2576 1466 
Q 2372 1613 1978 1613 
L 1159 1613 
L 1159 459 
L 1978 459 
Q 2372 459 2576 607 
Q 2781 756 2781 1038 
z
M 581 3500 
L 1159 3500 
L 1159 2072 
L 2003 2072 
Q 2672 2072 3033 1817 
Q 3394 1563 3394 1038 
Q 3394 513 3033 256 
Q 2672 0 2003 0 
L 581 0 
L 581 3500 
z
" transform="scale(0.015625)"/>
       <path id="DejaVuSans-Oblique-2c" d="M 1081 4666 
L 1716 4666 
L 806 0 
L 172 0 
L 1081 4666 
z
" transform="scale(0.015625)"/>
       <path id="DejaVuSans-f" d="M 750 794 
L 1409 794 
L 1409 256 
L 897 -744 
L 494 -744 
L 750 256 
L 750 794 
z
" transform="scale(0.015625)"/>
       <path id="DejaVuSans-29" d="M 628 4666 
L 3309 4666 
L 3309 4134 
L 1259 4134 
L 1259 2759 
L 3109 2759 
L 3109 2228 
L 1259 2228 
L 1259 0 
L 628 0 
L 628 4666 
z
" transform="scale(0.015625)"/>
       <path id="DejaVuSans-2f" d="M 628 4666 
L 1259 4666 
L 1259 531 
L 3531 531 
L 3531 0 
L 628 0 
L 628 4666 
z
" transform="scale(0.015625)"/>
       <path id="DejaVuSans-32" d="M 2522 4238 
Q 1834 4238 1429 3725 
Q 1025 3213 1025 2328 
Q 1025 1447 1429 934 
Q 1834 422 2522 422 
Q 3209 422 3611 934 
Q 4013 1447 4013 2328 
Q 4013 3213 3611 3725 
Q 3209 4238 2522 4238 
z
M 2522 4750 
Q 3503 4750 4090 4092 
Q 4678 3434 4678 2328 
Q 4678 1225 4090 567 
Q 3503 -91 2522 -91 
Q 1538 -91 948 565 
Q 359 1222 359 2328 
Q 359 3434 948 4092 
Q 1538 4750 2522 4750 
z
" transform="scale(0.015625)"/>
       <path id="DejaVuSans-33" d="M 1259 4147 
L 1259 2394 
L 2053 2394 
Q 2494 2394 2734 2622 
Q 2975 2850 2975 3272 
Q 2975 3691 2734 3919 
Q 2494 4147 2053 4147 
L 1259 4147 
z
M 628 4666 
L 2053 4666 
Q 2838 4666 3239 4311 
Q 3641 3956 3641 3272 
Q 3641 2581 3239 2228 
Q 2838 1875 2053 1875 
L 1259 1875 
L 1259 0 
L 628 0 
L 628 4666 
z
" transform="scale(0.015625)"/>
       <path id="DejaVuSans-3c5" d="M 1991 3584 
Q 2741 3584 3169 3096 
Q 3597 2609 3597 1747 
Q 3597 888 3169 398 
Q 2741 -91 1991 -91 
Q 1238 -91 822 384 
Q 406 859 384 1747 
L 366 2463 
Q 350 2834 350 2963 
Q 350 3463 531 3831 
Q 816 4409 1308 4659 
Q 1800 4909 2625 4916 
Q 3006 4919 3175 4972 
L 3334 4516 
Q 3181 4453 3041 4450 
L 2259 4397 
Q 1866 4369 1628 4231 
Q 1006 3866 947 3388 
L 925 3213 
Q 1331 3584 1991 3584 
z
M 1991 3097 
Q 1528 3097 1259 2736 
Q 991 2375 991 1747 
Q 991 1119 1258 758 
Q 1525 397 1991 397 
Q 2450 397 2719 759 
Q 2988 1122 2988 1747 
Q 2988 2369 2719 2733 
Q 2450 3097 1991 3097 
z
" transform="scale(0.015625)"/>
       <path id="DejaVuSans-3cd" d="M 3578 3500 
L 3578 0 
L 3006 0 
L 3006 2809 
L 1319 0 
L 581 0 
L 581 3500 
L 1153 3500 
L 1153 697 
L 2838 3500 
L 3578 3500 
z
M 1103 4862 
L 1472 4862 
Q 1506 4628 1657 4510 
Q 1809 4393 2081 4393 
Q 2350 4393 2500 4509 
Q 2650 4625 2690 4862 
L 3059 4862 
Q 3028 4415 2781 4190 
Q 2534 3965 2081 3965 
Q 1628 3965 1381 4190 
Q 1134 4415 1103 4862 
z
" transform="scale(0.015625)"/>
      </defs>
      <use xlink:href="#DejaVuSans-3c4" transform="translate(0 0.3125)"/>
      <use xlink:href="#DejaVuSans-3d4" transform="translate(61.279297 0.3125)"/>
      <use xlink:href="#DejaVuSans-3cc" transform="translate(124.755859 0.3125)"/>
      <use xlink:href="#DejaVuSans-3d8" transform="translate(189.746094 0.3125)"/>
      <use xlink:href="#DejaVuSans-3d0" transform="translate(275.244141 0.3125)"/>
      <use xlink:href="#DejaVuSans-3c9" transform="translate(350.683594 0.3125)"/>
      <use xlink:href="#DejaVuSans-3d6" transform="translate(412.207031 0.3125)"/>
      <use xlink:href="#DejaVuSans-3cc" transform="translate(470.458984 0.3125)"/>
      <use xlink:href="#DejaVuSans-3db" transform="translate(535.449219 0.3125)"/>
      <use xlink:href="#DejaVuSans-3c9" transform="translate(594.53125 0.3125)"/>
      <use xlink:href="#DejaVuSans-3d5" transform="translate(656.054688 0.3125)"/>
      <use xlink:href="#DejaVuSans-3ce" transform="translate(711.035156 0.3125)"/>
      <use xlink:href="#DejaVuSans-3c4" transform="translate(771.435547 0.3125)"/>
      <use xlink:href="#DejaVuSans-3e3" transform="translate(832.714844 0.3125)"/>
      <use xlink:href="#DejaVuSans-3" transform="translate(892.871094 0.3125)"/>
      <use xlink:href="#DejaVuSans-3cc" transform="translate(924.658203 0.3125)"/>
      <use xlink:href="#DejaVuSans-3d1" transform="translate(989.648438 0.3125)"/>
      <use xlink:href="#DejaVuSans-3d6" transform="translate(1055.029297 0.3125)"/>
      <use xlink:href="#DejaVuSans-3c9" transform="translate(1113.28125 0.3125)"/>
      <use xlink:href="#DejaVuSans-3d1" transform="translate(1174.804688 0.3125)"/>
      <use xlink:href="#DejaVuSans-3d5" transform="translate(1240.185547 0.3125)"/>
      <use xlink:href="#DejaVuSans-3cc" transform="translate(1295.166016 0.3125)"/>
      <use xlink:href="#DejaVuSans-3c6" transform="translate(1360.15625 0.3125)"/>
      <use xlink:href="#DejaVuSans-3d1" transform="translate(1419.091797 0.3125)"/>
      <use xlink:href="#DejaVuSans-3d2" transform="translate(1484.472656 0.3125)"/>
      <use xlink:href="#DejaVuSans-3d5" transform="translate(1545.654297 0.3125)"/>
      <use xlink:href="#DejaVuSans-3d6" transform="translate(1600.634766 0.3125)"/>
      <use xlink:href="#DejaVuSans-3e0" transform="translate(1658.886719 0.3125)"/>
      <use xlink:href="#DejaVuSans-3" transform="translate(1717.822266 0.3125)"/>
      <use xlink:href="#DejaVuSans-Oblique-2c" transform="translate(1749.609375 0.3125)"/>
      <use xlink:href="#DejaVuSans-f" transform="translate(1779.101562 0.3125)"/>
      <use xlink:href="#DejaVuSans-3" transform="translate(1810.888672 0.3125)"/>
      <use xlink:href="#DejaVuSans-29" transform="translate(1842.675781 0.3125)"/>
      <use xlink:href="#DejaVuSans-2f" transform="translate(1900.195312 0.3125)"/>
      <use xlink:href="#DejaVuSans-32" transform="translate(1951.908203 0.3125)"/>
      <use xlink:href="#DejaVuSans-33" transform="translate(2030.619141 0.3125)"/>
      <use xlink:href="#DejaVuSans-3" transform="translate(2090.921875 0.3125)"/>
      <use xlink:href="#DejaVuSans-3d1" transform="translate(2122.708984 0.3125)"/>
      <use xlink:href="#DejaVuSans-3c4" transform="translate(2188.089844 0.3125)"/>
      <use xlink:href="#DejaVuSans-3" transform="translate(2249.369141 0.3125)"/>
      <use xlink:href="#DejaVuSans-3c5" transform="translate(2281.15625 0.3125)"/>
      <use xlink:href="#DejaVuSans-3c4" transform="translate(2342.826172 0.3125)"/>
      <use xlink:href="#DejaVuSans-3cd" transform="translate(2404.105469 0.3125)"/>
      <use xlink:href="#DejaVuSans-3d6" transform="translate(2469.095703 0.3125)"/>
     </g>
    </g>
   </g>
   <g id="matplotlib.axis_2">
    <g id="ytick_1">
     <g id="line2d_48">
      <path d="M 58.65 289.180082 
L 560.85 289.180082 
" clip-path="url(#pa435dcdd1d)" style="fill: none; stroke: #e1e0d9; stroke-width: 0.8; stroke-linecap: round"/>
     </g>
     <g id="line2d_49">
      <defs>
       <path id="me9145294b3" d="M 0 0 
L -3.5 0 
" style="stroke: #898781; stroke-width: 0.8"/>
      </defs>
      <g>
       <use xlink:href="#me9145294b3" x="58.65" y="289.180082" style="fill: #898781; stroke: #898781; stroke-width: 0.8"/>
      </g>
     </g>
     <g id="text_7">
      <!-- $\mathdefault{10^{-2}}$ -->
      <g style="fill: #898781" transform="translate(25.8 294.350082) scale(0.11 -0.11)">
       <use xlink:href="#DejaVuSans-14" transform="translate(0 0.746875)"/>
       <use xlink:href="#DejaVuSans-13" transform="translate(63.623047 0.746875)"/>
       <use xlink:href="#DejaVuSans-c9c" transform="translate(128.203125 42.046875) scale(0.7)"/>
       <use xlink:href="#DejaVuSans-15" transform="translate(186.855469 42.046875) scale(0.7)"/>
      </g>
     </g>
    </g>
    <g id="ytick_2">
     <g id="line2d_50">
      <path d="M 58.65 217.237892 
L 560.85 217.237892 
" clip-path="url(#pa435dcdd1d)" style="fill: none; stroke: #e1e0d9; stroke-width: 0.8; stroke-linecap: round"/>
     </g>
     <g id="line2d_51">
      <g>
       <use xlink:href="#me9145294b3" x="58.65" y="217.237892" style="fill: #898781; stroke: #898781; stroke-width: 0.8"/>
      </g>
     </g>
     <g id="text_8">
      <!-- $\mathdefault{10^{-1}}$ -->
      <g style="fill: #898781" transform="translate(25.8 222.352892) scale(0.11 -0.11)">
       <use xlink:href="#DejaVuSans-14" transform="translate(0 0.665625)"/>
       <use xlink:href="#DejaVuSans-13" transform="translate(63.623047 0.665625)"/>
       <use xlink:href="#DejaVuSans-c9c" transform="translate(128.203125 41.965625) scale(0.7)"/>
       <use xlink:href="#DejaVuSans-14" transform="translate(186.855469 41.965625) scale(0.7)"/>
      </g>
     </g>
    </g>
    <g id="ytick_3">
     <g id="line2d_52">
      <path d="M 58.65 145.295703 
L 560.85 145.295703 
" clip-path="url(#pa435dcdd1d)" style="fill: none; stroke: #e1e0d9; stroke-width: 0.8; stroke-linecap: round"/>
     </g>
     <g id="line2d_53">
      <g>
       <use xlink:href="#me9145294b3" x="58.65" y="145.295703" style="fill: #898781; stroke: #898781; stroke-width: 0.8"/>
      </g>
     </g>
     <g id="text_9">
      <!-- $\mathdefault{10^{0}}$ -->
      <g style="fill: #898781" transform="translate(32.29 150.465703) scale(0.11 -0.11)">
       <use xlink:href="#DejaVuSans-14" transform="translate(0 0.746875)"/>
       <use xlink:href="#DejaVuSans-13" transform="translate(63.623047 0.746875)"/>
       <use xlink:href="#DejaVuSans-13" transform="translate(128.203125 42.046875) scale(0.7)"/>
      </g>
     </g>
    </g>
    <g id="ytick_4">
     <g id="line2d_54">
      <path d="M 58.65 73.353514 
L 560.85 73.353514 
" clip-path="url(#pa435dcdd1d)" style="fill: none; stroke: #e1e0d9; stroke-width: 0.8; stroke-linecap: round"/>
     </g>
     <g id="line2d_55">
      <g>
       <use xlink:href="#me9145294b3" x="58.65" y="73.353514" style="fill: #898781; stroke: #898781; stroke-width: 0.8"/>
      </g>
     </g>
     <g id="text_10">
      <!-- $\mathdefault{10^{1}}$ -->
      <g style="fill: #898781" transform="translate(32.29 78.468514) scale(0.11 -0.11)">
       <use xlink:href="#DejaVuSans-14" transform="translate(0 0.665625)"/>
       <use xlink:href="#DejaVuSans-13" transform="translate(63.623047 0.665625)"/>
       <use xlink:href="#DejaVuSans-14" transform="translate(128.203125 41.965625) scale(0.7)"/>
      </g>
     </g>
    </g>
    <g id="ytick_5">
     <g id="line2d_56">
      <defs>
       <path id="m622a97ae9b" d="M 0 0 
L -2 0 
" style="stroke: #898781; stroke-width: 0.6"/>
      </defs>
      <g>
       <use xlink:href="#m622a97ae9b" x="58.65" y="296.152" style="fill: #898781; stroke: #898781; stroke-width: 0.6"/>
      </g>
     </g>
    </g>
    <g id="ytick_6">
     <g id="line2d_57">
      <g>
       <use xlink:href="#m622a97ae9b" x="58.65" y="292.471976" style="fill: #898781; stroke: #898781; stroke-width: 0.6"/>
      </g>
     </g>
    </g>
    <g id="ytick_7">
     <g id="line2d_58">
      <g>
       <use xlink:href="#m622a97ae9b" x="58.65" y="267.523325" style="fill: #898781; stroke: #898781; stroke-width: 0.6"/>
      </g>
     </g>
    </g>
    <g id="ytick_8">
     <g id="line2d_59">
      <g>
       <use xlink:href="#m622a97ae9b" x="58.65" y="254.854934" style="fill: #898781; stroke: #898781; stroke-width: 0.6"/>
      </g>
     </g>
    </g>
    <g id="ytick_9">
     <g id="line2d_60">
      <g>
       <use xlink:href="#m622a97ae9b" x="58.65" y="245.866568" style="fill: #898781; stroke: #898781; stroke-width: 0.6"/>
      </g>
     </g>
    </g>
    <g id="ytick_10">
     <g id="line2d_61">
      <g>
       <use xlink:href="#m622a97ae9b" x="58.65" y="238.894649" style="fill: #898781; stroke: #898781; stroke-width: 0.6"/>
      </g>
     </g>
    </g>
    <g id="ytick_11">
     <g id="line2d_62">
      <g>
       <use xlink:href="#m622a97ae9b" x="58.65" y="233.198177" style="fill: #898781; stroke: #898781; stroke-width: 0.6"/>
      </g>
     </g>
    </g>
    <g id="ytick_12">
     <g id="line2d_63">
      <g>
       <use xlink:href="#m622a97ae9b" x="58.65" y="228.381878" style="fill: #898781; stroke: #898781; stroke-width: 0.6"/>
      </g>
     </g>
    </g>
    <g id="ytick_13">
     <g id="line2d_64">
      <g>
       <use xlink:href="#m622a97ae9b" x="58.65" y="224.209811" style="fill: #898781; stroke: #898781; stroke-width: 0.6"/>
      </g>
     </g>
    </g>
    <g id="ytick_14">
     <g id="line2d_65">
      <g>
       <use xlink:href="#m622a97ae9b" x="58.65" y="220.529786" style="fill: #898781; stroke: #898781; stroke-width: 0.6"/>
      </g>
     </g>
    </g>
    <g id="ytick_15">
     <g id="line2d_66">
      <g>
       <use xlink:href="#m622a97ae9b" x="58.65" y="195.581135" style="fill: #898781; stroke: #898781; stroke-width: 0.6"/>
      </g>
     </g>
    </g>
    <g id="ytick_16">
     <g id="line2d_67">
      <g>
       <use xlink:href="#m622a97ae9b" x="58.65" y="182.912745" style="fill: #898781; stroke: #898781; stroke-width: 0.6"/>
      </g>
     </g>
    </g>
    <g id="ytick_17">
     <g id="line2d_68">
      <g>
       <use xlink:href="#m622a97ae9b" x="58.65" y="173.924378" style="fill: #898781; stroke: #898781; stroke-width: 0.6"/>
      </g>
     </g>
    </g>
    <g id="ytick_18">
     <g id="line2d_69">
      <g>
       <use xlink:href="#m622a97ae9b" x="58.65" y="166.95246" style="fill: #898781; stroke: #898781; stroke-width: 0.6"/>
      </g>
     </g>
    </g>
    <g id="ytick_19">
     <g id="line2d_70">
      <g>
       <use xlink:href="#m622a97ae9b" x="58.65" y="161.255988" style="fill: #898781; stroke: #898781; stroke-width: 0.6"/>
      </g>
     </g>
    </g>
    <g id="ytick_20">
     <g id="line2d_71">
      <g>
       <use xlink:href="#m622a97ae9b" x="58.65" y="156.439689" style="fill: #898781; stroke: #898781; stroke-width: 0.6"/>
      </g>
     </g>
    </g>
    <g id="ytick_21">
     <g id="line2d_72">
      <g>
       <use xlink:href="#m622a97ae9b" x="58.65" y="152.267622" style="fill: #898781; stroke: #898781; stroke-width: 0.6"/>
      </g>
     </g>
    </g>
    <g id="ytick_22">
     <g id="line2d_73">
      <g>
       <use xlink:href="#m622a97ae9b" x="58.65" y="148.587597" style="fill: #898781; stroke: #898781; stroke-width: 0.6"/>
      </g>
     </g>
    </g>
    <g id="ytick_23">
     <g id="line2d_74">
      <g>
       <use xlink:href="#m622a97ae9b" x="58.65" y="123.638946" style="fill: #898781; stroke: #898781; stroke-width: 0.6"/>
      </g>
     </g>
    </g>
    <g id="ytick_24">
     <g id="line2d_75">
      <g>
       <use xlink:href="#m622a97ae9b" x="58.65" y="110.970555" style="fill: #898781; stroke: #898781; stroke-width: 0.6"/>
      </g>
     </g>
    </g>
    <g id="ytick_25">
     <g id="line2d_76">
      <g>
       <use xlink:href="#m622a97ae9b" x="58.65" y="101.982189" style="fill: #898781; stroke: #898781; stroke-width: 0.6"/>
      </g>
     </g>
    </g>
    <g id="ytick_26">
     <g id="line2d_77">
      <g>
       <use xlink:href="#m622a97ae9b" x="58.65" y="95.010271" style="fill: #898781; stroke: #898781; stroke-width: 0.6"/>
      </g>
     </g>
    </g>
    <g id="ytick_27">
     <g id="line2d_78">
      <g>
       <use xlink:href="#m622a97ae9b" x="58.65" y="89.313799" style="fill: #898781; stroke: #898781; stroke-width: 0.6"/>
      </g>
     </g>
    </g>
    <g id="ytick_28">
     <g id="line2d_79">
      <g>
       <use xlink:href="#m622a97ae9b" x="58.65" y="84.4975" style="fill: #898781; stroke: #898781; stroke-width: 0.6"/>
      </g>
     </g>
    </g>
    <g id="ytick_29">
     <g id="line2d_80">
      <g>
       <use xlink:href="#m622a97ae9b" x="58.65" y="80.325432" style="fill: #898781; stroke: #898781; stroke-width: 0.6"/>
      </g>
     </g>
    </g>
    <g id="ytick_30">
     <g id="line2d_81">
      <g>
       <use xlink:href="#m622a97ae9b" x="58.65" y="76.645408" style="fill: #898781; stroke: #898781; stroke-width: 0.6"/>
      </g>
     </g>
    </g>
    <g id="ytick_31">
     <g id="line2d_82">
      <g>
       <use xlink:href="#m622a97ae9b" x="58.65" y="51.696757" style="fill: #898781; stroke: #898781; stroke-width: 0.6"/>
      </g>
     </g>
    </g>
    <g id="ytick_32">
     <g id="line2d_83">
      <g>
       <use xlink:href="#m622a97ae9b" x="58.65" y="39.028366" style="fill: #898781; stroke: #898781; stroke-width: 0.6"/>
      </g>
     </g>
    </g>
    <g id="ytick_33">
     <g id="line2d_84">
      <g>
       <use xlink:href="#m622a97ae9b" x="58.65" y="30.04" style="fill: #898781; stroke: #898781; stroke-width: 0.6"/>
      </g>
     </g>
    </g>
    <g id="text_11">
     <!-- достижимые FLOP/s, TFLOP/s -->
     <g style="fill: #52514e" transform="translate(19.157422 245.865844) rotate(-90) scale(0.11 -0.11)">
      <defs>
       <path id="DejaVuSans-3c8" d="M 1384 459 
L 3053 459 
L 3053 3041 
L 1844 3041 
L 1844 2603 
Q 1844 1316 1475 628 
L 1384 459 
z
M 550 459 
Q 834 584 959 850 
Q 1266 1509 1266 2838 
L 1266 3500 
L 3631 3500 
L 3631 459 
L 4091 459 
L 4091 -884 
L 3631 -884 
L 3631 0 
L 794 0 
L 794 -884 
L 334 -884 
L 334 459 
L 550 459 
z
" transform="scale(0.015625)"/>
       <path id="DejaVuSans-3ca" d="M 2597 3500 
L 3169 3500 
L 3169 1856 
L 4697 3500 
L 5366 3500 
L 4109 2153 
L 5547 0 
L 4931 0 
L 3753 1769 
L 3169 1141 
L 3169 0 
L 2597 0 
L 2597 1141 
L 2013 1769 
L 834 0 
L 219 0 
L 1656 2153 
L 400 3500 
L 1069 3500 
L 2597 1856 
L 2597 3500 
z
" transform="scale(0.015625)"/>
       <path id="DejaVuSans-3df" d="M 3909 3500 
L 4484 3500 
L 4484 0 
L 3909 0 
L 3909 3500 
z
M 4197 3584 
L 4197 3584 
z
M 2781 1038 
Q 2781 1319 2576 1466 
Q 2372 1613 1978 1613 
L 1159 1613 
L 1159 459 
L 1978 459 
Q 2372 459 2576 607 
Q 2781 756 2781 1038 
z
M 581 3500 
L 1159 3500 
L 1159 2072 
L 2003 2072 
Q 2672 2072 3033 1817 
Q 3394 1563 3394 1038 
Q 3394 513 3033 256 
Q 2672 0 2003 0 
L 581 0 
L 581 3500 
z
" transform="scale(0.015625)"/>
       <path id="DejaVuSans-12" d="M 1625 4666 
L 2156 4666 
L 531 -594 
L 0 -594 
L 1625 4666 
z
" transform="scale(0.015625)"/>
       <path id="DejaVuSans-56" d="M 2834 3397 
L 2834 2853 
Q 2591 2978 2328 3040 
Q 2066 3103 1784 3103 
Q 1356 3103 1142 2972 
Q 928 2841 928 2578 
Q 928 2378 1081 2264 
Q 1234 2150 1697 2047 
L 1894 2003 
Q 2506 1872 2764 1633 
Q 3022 1394 3022 966 
Q 3022 478 2636 193 
Q 2250 -91 1575 -91 
Q 1294 -91 989 -36 
Q 684 19 347 128 
L 347 722 
Q 666 556 975 473 
Q 1284 391 1588 391 
Q 1994 391 2212 530 
Q 2431 669 2431 922 
Q 2431 1156 2273 1281 
Q 2116 1406 1581 1522 
L 1381 1569 
Q 847 1681 609 1914 
Q 372 2147 372 2553 
Q 372 3047 722 3315 
Q 1072 3584 1716 3584 
Q 2034 3584 2315 3537 
Q 2597 3491 2834 3397 
z
" transform="scale(0.015625)"/>
       <path id="DejaVuSans-37" d="M -19 4666 
L 3928 4666 
L 3928 4134 
L 2272 4134 
L 2272 0 
L 1638 0 
L 1638 4134 
L -19 4134 
L -19 4666 
z
" transform="scale(0.015625)"/>
      </defs>
      <use xlink:href="#DejaVuSans-3c8"/>
      <use xlink:href="#DejaVuSans-3d2" transform="translate(69.140625 0)"/>
      <use xlink:href="#DejaVuSans-3d5" transform="translate(130.328125 0)"/>
      <use xlink:href="#DejaVuSans-3d6" transform="translate(185.3125 0)"/>
      <use xlink:href="#DejaVuSans-3cc" transform="translate(243.5625 0)"/>
      <use xlink:href="#DejaVuSans-3ca" transform="translate(308.546875 0)"/>
      <use xlink:href="#DejaVuSans-3cc" transform="translate(398.640625 0)"/>
      <use xlink:href="#DejaVuSans-3d0" transform="translate(463.625 0)"/>
      <use xlink:href="#DejaVuSans-3df" transform="translate(539.0625 0)"/>
      <use xlink:href="#DejaVuSans-3c9" transform="translate(618.015625 0)"/>
      <use xlink:href="#DejaVuSans-3" transform="translate(679.546875 0)"/>
      <use xlink:href="#DejaVuSans-29" transform="translate(711.328125 0)"/>
      <use xlink:href="#DejaVuSans-2f" transform="translate(768.84375 0)"/>
      <use xlink:href="#DejaVuSans-32" transform="translate(821 0)"/>
      <use xlink:href="#DejaVuSans-33" transform="translate(899.71875 0)"/>
      <use xlink:href="#DejaVuSans-12" transform="translate(960.015625 0)"/>
      <use xlink:href="#DejaVuSans-56" transform="translate(993.703125 0)"/>
      <use xlink:href="#DejaVuSans-f" transform="translate(1045.796875 0)"/>
      <use xlink:href="#DejaVuSans-3" transform="translate(1077.578125 0)"/>
      <use xlink:href="#DejaVuSans-37" transform="translate(1109.359375 0)"/>
      <use xlink:href="#DejaVuSans-29" transform="translate(1170.4375 0)"/>
      <use xlink:href="#DejaVuSans-2f" transform="translate(1227.953125 0)"/>
      <use xlink:href="#DejaVuSans-32" transform="translate(1280.109375 0)"/>
      <use xlink:href="#DejaVuSans-33" transform="translate(1358.828125 0)"/>
      <use xlink:href="#DejaVuSans-12" transform="translate(1419.125 0)"/>
      <use xlink:href="#DejaVuSans-56" transform="translate(1452.8125 0)"/>
     </g>
    </g>
   </g>
   <g id="patch_3">
    <path d="M 58.65 296.152 
L 373.789103 296.152 
L 373.789103 30.04 
L 58.65 30.04 
z
" clip-path="url(#pa435dcdd1d)" style="fill: #eb6834; opacity: 0.07"/>
   </g>
   <g id="patch_4">
    <path d="M 373.789103 296.152 
L 560.85 296.152 
L 560.85 30.04 
L 373.789103 30.04 
z
" clip-path="url(#pa435dcdd1d)" style="fill: #2a78d6; opacity: 0.07"/>
   </g>
   <g id="line2d_85">
    <path d="M 35.417719 288.809581 
L 373.85405 80.325432 
L 560.85 80.325432 
L 560.85 80.325432 
" clip-path="url(#pa435dcdd1d)" style="fill: none; stroke: #2a78d6; stroke-width: 2; stroke-linecap: round"/>
   </g>
   <g id="patch_5">
    <path d="M 58.65 296.152 
L 58.65 30.04 
" style="fill: none; stroke: #c3c2b7; stroke-width: 0.8; stroke-linejoin: miter; stroke-linecap: square"/>
   </g>
   <g id="patch_6">
    <path d="M 58.65 296.152 
L 560.85 296.152 
" style="fill: none; stroke: #c3c2b7; stroke-width: 0.8; stroke-linejoin: miter; stroke-linecap: square"/>
   </g>
   <g id="text_12">
    <!-- $I &lt; I^*$ - упирается в память: -->
    <g style="fill: #52514e" transform="translate(71.954337 58.599804) scale(0.095 -0.095)">
     <defs>
      <path id="DejaVuSans-1f" d="M 4684 3150 
L 1459 2003 
L 4684 863 
L 4684 294 
L 678 1747 
L 678 2266 
L 4684 3719 
L 4684 3150 
z
" transform="scale(0.015625)"/>
      <path id="DejaVuSans-d" d="M 3009 3897 
L 1888 3291 
L 3009 2681 
L 2828 2375 
L 1778 3009 
L 1778 1831 
L 1422 1831 
L 1422 3009 
L 372 2375 
L 191 2681 
L 1313 3291 
L 191 3897 
L 372 4206 
L 1422 3572 
L 1422 4750 
L 1778 4750 
L 1778 3572 
L 2828 4206 
L 3009 3897 
z
" transform="scale(0.015625)"/>
      <path id="DejaVuSans-10" d="M 313 2009 
L 1997 2009 
L 1997 1497 
L 313 1497 
L 313 2009 
z
" transform="scale(0.015625)"/>
      <path id="DejaVuSans-3d7" d="M 2059 -325 
Q 1816 -950 1584 -1140 
Q 1353 -1331 966 -1331 
L 506 -1331 
L 506 -850 
L 844 -850 
Q 1081 -850 1212 -737 
Q 1344 -625 1503 -206 
L 1606 56 
L 191 3500 
L 800 3500 
L 1894 763 
L 2988 3500 
L 3597 3500 
L 2059 -325 
z
" transform="scale(0.015625)"/>
      <path id="DejaVuSans-3d3" d="M 3603 3500 
L 3603 0 
L 3025 0 
L 3025 3041 
L 1159 3041 
L 1159 0 
L 581 0 
L 581 3500 
L 3603 3500 
z
" transform="scale(0.015625)"/>
      <path id="DejaVuSans-1d" d="M 750 794 
L 1409 794 
L 1409 0 
L 750 0 
L 750 794 
z
M 750 3309 
L 1409 3309 
L 1409 2516 
L 750 2516 
L 750 3309 
z
" transform="scale(0.015625)"/>
     </defs>
     <use xlink:href="#DejaVuSans-Oblique-2c" transform="translate(0 0.746875)"/>
     <use xlink:href="#DejaVuSans-1f" transform="translate(48.974609 0.746875)"/>
     <use xlink:href="#DejaVuSans-Oblique-2c" transform="translate(152.246094 0.746875)"/>
     <use xlink:href="#DejaVuSans-d" transform="translate(202.392747 42.046875) scale(0.7)"/>
     <use xlink:href="#DejaVuSans-3" transform="translate(253.764818 0.746875)"/>
     <use xlink:href="#DejaVuSans-10" transform="translate(285.551927 0.746875)"/>
     <use xlink:href="#DejaVuSans-3" transform="translate(321.635911 0.746875)"/>
     <use xlink:href="#DejaVuSans-3d7" transform="translate(353.423021 0.746875)"/>
     <use xlink:href="#DejaVuSans-3d3" transform="translate(412.602708 0.746875)"/>
     <use xlink:href="#DejaVuSans-3cc" transform="translate(477.983568 0.746875)"/>
     <use xlink:href="#DejaVuSans-3d4" transform="translate(542.973802 0.746875)"/>
     <use xlink:href="#DejaVuSans-3c4" transform="translate(606.450365 0.746875)"/>
     <use xlink:href="#DejaVuSans-3c9" transform="translate(667.729661 0.746875)"/>
     <use xlink:href="#DejaVuSans-3d6" transform="translate(729.253099 0.746875)"/>
     <use xlink:href="#DejaVuSans-3d5" transform="translate(787.505052 0.746875)"/>
     <use xlink:href="#DejaVuSans-3e3" transform="translate(842.485521 0.746875)"/>
     <use xlink:href="#DejaVuSans-3" transform="translate(902.641771 0.746875)"/>
     <use xlink:href="#DejaVuSans-3c6" transform="translate(934.42888 0.746875)"/>
     <use xlink:href="#DejaVuSans-3" transform="translate(993.364427 0.746875)"/>
     <use xlink:href="#DejaVuSans-3d3" transform="translate(1025.151536 0.746875)"/>
     <use xlink:href="#DejaVuSans-3c4" transform="translate(1090.532396 0.746875)"/>
     <use xlink:href="#DejaVuSans-3d0" transform="translate(1151.811693 0.746875)"/>
     <use xlink:href="#DejaVuSans-3e3" transform="translate(1227.251146 0.746875)"/>
     <use xlink:href="#DejaVuSans-3d6" transform="translate(1287.407396 0.746875)"/>
     <use xlink:href="#DejaVuSans-3e0" transform="translate(1345.659349 0.746875)"/>
     <use xlink:href="#DejaVuSans-1d" transform="translate(1404.594896 0.746875)"/>
    </g>
    <!-- ждём данные, лишняя арифметика бесплатна -->
    <g style="fill: #52514e" transform="translate(71.954337 70.164199) scale(0.095 -0.095)">
     <defs>
      <path id="DejaVuSans-3e5" d="M 3597 1894 
L 3597 1613 
L 953 1613 
Q 991 1019 1311 708 
Q 1631 397 2203 397 
Q 2534 397 2845 478 
Q 3156 559 3463 722 
L 3463 178 
Q 3153 47 2828 -22 
Q 2503 -91 2169 -91 
Q 1331 -91 842 396 
Q 353 884 353 1716 
Q 353 2575 817 3079 
Q 1281 3584 2069 3584 
Q 2775 3584 3186 3129 
Q 3597 2675 3597 1894 
z
M 3022 2063 
Q 3016 2534 2758 2815 
Q 2500 3097 2075 3097 
Q 1594 3097 1305 2825 
Q 1016 2553 972 2059 
L 3022 2063 
z
M 2363 4850 
L 2997 4850 
L 2997 4219 
L 2363 4219 
L 2363 4850 
z
M 1141 4850 
L 1775 4850 
L 1775 4219 
L 1141 4219 
L 1141 4850 
z
" transform="scale(0.015625)"/>
      <path id="DejaVuSans-3cf" d="M 238 0 
L 238 478 
Q 806 566 981 959 
Q 1194 1513 1194 2928 
L 1194 3500 
L 3559 3500 
L 3559 0 
L 2984 0 
L 2984 3041 
L 1769 3041 
L 1769 2694 
Q 1769 1344 1494 738 
Q 1200 91 238 0 
z
" transform="scale(0.015625)"/>
      <path id="DejaVuSans-3dc" d="M 3216 459 
L 4697 459 
L 4697 3500 
L 5275 3500 
L 5275 0 
L 581 0 
L 581 3500 
L 1159 3500 
L 1159 459 
L 2638 459 
L 2638 3500 
L 3216 3500 
L 3216 459 
z
" transform="scale(0.015625)"/>
     </defs>
     <use xlink:href="#DejaVuSans-3ca"/>
     <use xlink:href="#DejaVuSans-3c8" transform="translate(90.09375 0)"/>
     <use xlink:href="#DejaVuSans-3e5" transform="translate(159.234375 0)"/>
     <use xlink:href="#DejaVuSans-3d0" transform="translate(220.765625 0)"/>
     <use xlink:href="#DejaVuSans-3" transform="translate(296.203125 0)"/>
     <use xlink:href="#DejaVuSans-3c8" transform="translate(327.984375 0)"/>
     <use xlink:href="#DejaVuSans-3c4" transform="translate(397.125 0)"/>
     <use xlink:href="#DejaVuSans-3d1" transform="translate(458.40625 0)"/>
     <use xlink:href="#DejaVuSans-3d1" transform="translate(523.78125 0)"/>
     <use xlink:href="#DejaVuSans-3df" transform="translate(589.15625 0)"/>
     <use xlink:href="#DejaVuSans-3c9" transform="translate(668.109375 0)"/>
     <use xlink:href="#DejaVuSans-f" transform="translate(729.640625 0)"/>
     <use xlink:href="#DejaVuSans-3" transform="translate(761.421875 0)"/>
     <use xlink:href="#DejaVuSans-3cf" transform="translate(793.203125 0)"/>
     <use xlink:href="#DejaVuSans-3cc" transform="translate(857.125 0)"/>
     <use xlink:href="#DejaVuSans-3dc" transform="translate(922.109375 0)"/>
     <use xlink:href="#DejaVuSans-3d1" transform="translate(1013.609375 0)"/>
     <use xlink:href="#DejaVuSans-3e3" transform="translate(1078.984375 0)"/>
     <use xlink:href="#DejaVuSans-3e3" transform="translate(1139.140625 0)"/>
     <use xlink:href="#DejaVuSans-3" transform="translate(1199.296875 0)"/>
     <use xlink:href="#DejaVuSans-3c4" transform="translate(1231.078125 0)"/>
     <use xlink:href="#DejaVuSans-3d4" transform="translate(1292.359375 0)"/>
     <use xlink:href="#DejaVuSans-3cc" transform="translate(1355.84375 0)"/>
     <use xlink:href="#DejaVuSans-3d8" transform="translate(1420.828125 0)"/>
     <use xlink:href="#DejaVuSans-3d0" transform="translate(1506.328125 0)"/>
     <use xlink:href="#DejaVuSans-3c9" transform="translate(1581.765625 0)"/>
     <use xlink:href="#DejaVuSans-3d6" transform="translate(1643.296875 0)"/>
     <use xlink:href="#DejaVuSans-3cc" transform="translate(1701.546875 0)"/>
     <use xlink:href="#DejaVuSans-3ce" transform="translate(1766.53125 0)"/>
     <use xlink:href="#DejaVuSans-3c4" transform="translate(1826.9375 0)"/>
     <use xlink:href="#DejaVuSans-3" transform="translate(1888.21875 0)"/>
     <use xlink:href="#DejaVuSans-3c5" transform="translate(1920 0)"/>
     <use xlink:href="#DejaVuSans-3c9" transform="translate(1981.671875 0)"/>
     <use xlink:href="#DejaVuSans-3d5" transform="translate(2043.203125 0)"/>
     <use xlink:href="#DejaVuSans-3d3" transform="translate(2098.1875 0)"/>
     <use xlink:href="#DejaVuSans-3cf" transform="translate(2163.5625 0)"/>
     <use xlink:href="#DejaVuSans-3c4" transform="translate(2227.484375 0)"/>
     <use xlink:href="#DejaVuSans-3d6" transform="translate(2288.765625 0)"/>
     <use xlink:href="#DejaVuSans-3d1" transform="translate(2347.015625 0)"/>
     <use xlink:href="#DejaVuSans-3c4" transform="translate(2412.390625 0)"/>
    </g>
   </g>
   <g id="text_13">
    <!-- $I &gt; I^*$ - упирается в вычисления: -->
    <g style="fill: #52514e" transform="translate(385.104581 268.68606) scale(0.095 -0.095)">
     <defs>
      <path id="DejaVuSans-21" d="M 678 3150 
L 678 3719 
L 4684 2266 
L 4684 1747 
L 678 294 
L 678 863 
L 3897 2003 
L 678 3150 
z
" transform="scale(0.015625)"/>
     </defs>
     <use xlink:href="#DejaVuSans-Oblique-2c" transform="translate(0 0.746875)"/>
     <use xlink:href="#DejaVuSans-21" transform="translate(48.974609 0.746875)"/>
     <use xlink:href="#DejaVuSans-Oblique-2c" transform="translate(152.246094 0.746875)"/>
     <use xlink:href="#DejaVuSans-d" transform="translate(202.392747 42.046875) scale(0.7)"/>
     <use xlink:href="#DejaVuSans-3" transform="translate(253.764818 0.746875)"/>
     <use xlink:href="#DejaVuSans-10" transform="translate(285.551927 0.746875)"/>
     <use xlink:href="#DejaVuSans-3" transform="translate(321.635911 0.746875)"/>
     <use xlink:href="#DejaVuSans-3d7" transform="translate(353.423021 0.746875)"/>
     <use xlink:href="#DejaVuSans-3d3" transform="translate(412.602708 0.746875)"/>
     <use xlink:href="#DejaVuSans-3cc" transform="translate(477.983568 0.746875)"/>
     <use xlink:href="#DejaVuSans-3d4" transform="translate(542.973802 0.746875)"/>
     <use xlink:href="#DejaVuSans-3c4" transform="translate(606.450365 0.746875)"/>
     <use xlink:href="#DejaVuSans-3c9" transform="translate(667.729661 0.746875)"/>
     <use xlink:href="#DejaVuSans-3d6" transform="translate(729.253099 0.746875)"/>
     <use xlink:href="#DejaVuSans-3d5" transform="translate(787.505052 0.746875)"/>
     <use xlink:href="#DejaVuSans-3e3" transform="translate(842.485521 0.746875)"/>
     <use xlink:href="#DejaVuSans-3" transform="translate(902.641771 0.746875)"/>
     <use xlink:href="#DejaVuSans-3c6" transform="translate(934.42888 0.746875)"/>
     <use xlink:href="#DejaVuSans-3" transform="translate(993.364427 0.746875)"/>
     <use xlink:href="#DejaVuSans-3c6" transform="translate(1025.151536 0.746875)"/>
     <use xlink:href="#DejaVuSans-3df" transform="translate(1084.087083 0.746875)"/>
     <use xlink:href="#DejaVuSans-3db" transform="translate(1163.042161 0.746875)"/>
     <use xlink:href="#DejaVuSans-3cc" transform="translate(1222.124193 0.746875)"/>
     <use xlink:href="#DejaVuSans-3d5" transform="translate(1287.114427 0.746875)"/>
     <use xlink:href="#DejaVuSans-3cf" transform="translate(1342.094896 0.746875)"/>
     <use xlink:href="#DejaVuSans-3c9" transform="translate(1406.010911 0.746875)"/>
     <use xlink:href="#DejaVuSans-3d1" transform="translate(1467.534349 0.746875)"/>
     <use xlink:href="#DejaVuSans-3cc" transform="translate(1532.915208 0.746875)"/>
     <use xlink:href="#DejaVuSans-3e3" transform="translate(1597.905443 0.746875)"/>
     <use xlink:href="#DejaVuSans-1d" transform="translate(1658.061693 0.746875)"/>
    </g>
    <!-- ждём арифметику, перемещение данных бесплатно -->
    <g style="fill: #52514e" transform="translate(385.104581 280.250455) scale(0.095 -0.095)">
     <defs>
      <path id="DejaVuSans-3dd" d="M 5275 0 
L 581 0 
L 581 3500 
L 1159 3500 
L 1159 459 
L 2638 459 
L 2638 3500 
L 3216 3500 
L 3216 459 
L 4697 459 
L 4697 3500 
L 5275 3500 
L 5275 459 
L 5734 459 
L 5734 -884 
L 5275 -884 
L 5275 0 
z
" transform="scale(0.015625)"/>
      <path id="DejaVuSans-3d9" d="M 3513 3500 
L 2247 1797 
L 3578 0 
L 2900 0 
L 1881 1375 
L 863 0 
L 184 0 
L 1544 1831 
L 300 3500 
L 978 3500 
L 1906 2253 
L 2834 3500 
L 3513 3500 
z
" transform="scale(0.015625)"/>
     </defs>
     <use xlink:href="#DejaVuSans-3ca"/>
     <use xlink:href="#DejaVuSans-3c8" transform="translate(90.09375 0)"/>
     <use xlink:href="#DejaVuSans-3e5" transform="translate(159.234375 0)"/>
     <use xlink:href="#DejaVuSans-3d0" transform="translate(220.765625 0)"/>
     <use xlink:href="#DejaVuSans-3" transform="translate(296.203125 0)"/>
     <use xlink:href="#DejaVuSans-3c4" transform="translate(327.984375 0)"/>
     <use xlink:href="#DejaVuSans-3d4" transform="translate(389.265625 0)"/>
     <use xlink:href="#DejaVuSans-3cc" transform="translate(452.75 0)"/>
     <use xlink:href="#DejaVuSans-3d8" transform="translate(517.734375 0)"/>
     <use xlink:href="#DejaVuSans-3d0" transform="translate(603.234375 0)"/>
     <use xlink:href="#DejaVuSans-3c9" transform="translate(678.671875 0)"/>
     <use xlink:href="#DejaVuSans-3d6" transform="translate(740.203125 0)"/>
     <use xlink:href="#DejaVuSans-3cc" transform="translate(798.453125 0)"/>
     <use xlink:href="#DejaVuSans-3ce" transform="translate(863.4375 0)"/>
     <use xlink:href="#DejaVuSans-3d7" transform="translate(923.84375 0)"/>
     <use xlink:href="#DejaVuSans-f" transform="translate(983.03125 0)"/>
     <use xlink:href="#DejaVuSans-3" transform="translate(1014.8125 0)"/>
     <use xlink:href="#DejaVuSans-3d3" transform="translate(1046.59375 0)"/>
     <use xlink:href="#DejaVuSans-3c9" transform="translate(1111.96875 0)"/>
     <use xlink:href="#DejaVuSans-3d4" transform="translate(1173.5 0)"/>
     <use xlink:href="#DejaVuSans-3c9" transform="translate(1236.984375 0)"/>
     <use xlink:href="#DejaVuSans-3d0" transform="translate(1298.515625 0)"/>
     <use xlink:href="#DejaVuSans-3c9" transform="translate(1373.953125 0)"/>
     <use xlink:href="#DejaVuSans-3dd" transform="translate(1435.484375 0)"/>
     <use xlink:href="#DejaVuSans-3c9" transform="translate(1529.671875 0)"/>
     <use xlink:href="#DejaVuSans-3d1" transform="translate(1591.203125 0)"/>
     <use xlink:href="#DejaVuSans-3cc" transform="translate(1656.578125 0)"/>
     <use xlink:href="#DejaVuSans-3c9" transform="translate(1721.5625 0)"/>
     <use xlink:href="#DejaVuSans-3" transform="translate(1783.09375 0)"/>
     <use xlink:href="#DejaVuSans-3c8" transform="translate(1814.875 0)"/>
     <use xlink:href="#DejaVuSans-3c4" transform="translate(1884.015625 0)"/>
     <use xlink:href="#DejaVuSans-3d1" transform="translate(1945.296875 0)"/>
     <use xlink:href="#DejaVuSans-3d1" transform="translate(2010.671875 0)"/>
     <use xlink:href="#DejaVuSans-3df" transform="translate(2076.046875 0)"/>
     <use xlink:href="#DejaVuSans-3d9" transform="translate(2155 0)"/>
     <use xlink:href="#DejaVuSans-3" transform="translate(2214.1875 0)"/>
     <use xlink:href="#DejaVuSans-3c5" transform="translate(2245.96875 0)"/>
     <use xlink:href="#DejaVuSans-3c9" transform="translate(2307.640625 0)"/>
     <use xlink:href="#DejaVuSans-3d5" transform="translate(2369.171875 0)"/>
     <use xlink:href="#DejaVuSans-3d3" transform="translate(2424.15625 0)"/>
     <use xlink:href="#DejaVuSans-3cf" transform="translate(2489.53125 0)"/>
     <use xlink:href="#DejaVuSans-3c4" transform="translate(2553.453125 0)"/>
     <use xlink:href="#DejaVuSans-3d6" transform="translate(2614.734375 0)"/>
     <use xlink:href="#DejaVuSans-3d1" transform="translate(2672.984375 0)"/>
     <use xlink:href="#DejaVuSans-3d2" transform="translate(2738.359375 0)"/>
    </g>
   </g>
   <g id="text_14">
    <!-- $\pi = 8$ TFLOP/s (fp32) -->
    <g style="fill: #52514e" transform="translate(431.261355 71.071287) scale(0.095 -0.095)">
     <defs>
      <path id="DejaVuSans-Oblique-354" d="M 584 3500 
L 3938 3500 
L 3825 2925 
L 3384 2925 
L 2966 775 
Q 2922 550 2981 450 
Q 3038 353 3209 353 
Q 3256 353 3325 363 
Q 3397 369 3419 372 
L 3338 -44 
Q 3222 -84 3103 -103 
Q 2981 -122 2866 -122 
Q 2491 -122 2388 81 
Q 2284 288 2391 838 
L 2797 2925 
L 1506 2925 
L 938 0 
L 350 0 
L 919 2925 
L 472 2925 
L 584 3500 
z
" transform="scale(0.015625)"/>
      <path id="DejaVuSans-20" d="M 678 2906 
L 4684 2906 
L 4684 2381 
L 678 2381 
L 678 2906 
z
M 678 1631 
L 4684 1631 
L 4684 1100 
L 678 1100 
L 678 1631 
z
" transform="scale(0.015625)"/>
      <path id="DejaVuSans-1b" d="M 2034 2216 
Q 1584 2216 1326 1975 
Q 1069 1734 1069 1313 
Q 1069 891 1326 650 
Q 1584 409 2034 409 
Q 2484 409 2743 651 
Q 3003 894 3003 1313 
Q 3003 1734 2745 1975 
Q 2488 2216 2034 2216 
z
M 1403 2484 
Q 997 2584 770 2862 
Q 544 3141 544 3541 
Q 544 4100 942 4425 
Q 1341 4750 2034 4750 
Q 2731 4750 3128 4425 
Q 3525 4100 3525 3541 
Q 3525 3141 3298 2862 
Q 3072 2584 2669 2484 
Q 3125 2378 3379 2068 
Q 3634 1759 3634 1313 
Q 3634 634 3220 271 
Q 2806 -91 2034 -91 
Q 1263 -91 848 271 
Q 434 634 434 1313 
Q 434 1759 690 2068 
Q 947 2378 1403 2484 
z
M 1172 3481 
Q 1172 3119 1398 2916 
Q 1625 2713 2034 2713 
Q 2441 2713 2670 2916 
Q 2900 3119 2900 3481 
Q 2900 3844 2670 4047 
Q 2441 4250 2034 4250 
Q 1625 4250 1398 4047 
Q 1172 3844 1172 3481 
z
" transform="scale(0.015625)"/>
      <path id="DejaVuSans-b" d="M 1984 4856 
Q 1566 4138 1362 3434 
Q 1159 2731 1159 2009 
Q 1159 1288 1364 580 
Q 1569 -128 1984 -844 
L 1484 -844 
Q 1016 -109 783 600 
Q 550 1309 550 2009 
Q 550 2706 781 3412 
Q 1013 4119 1484 4856 
L 1984 4856 
z
" transform="scale(0.015625)"/>
      <path id="DejaVuSans-49" d="M 2375 4863 
L 2375 4384 
L 1825 4384 
Q 1516 4384 1395 4259 
Q 1275 4134 1275 3809 
L 1275 3500 
L 2222 3500 
L 2222 3053 
L 1275 3053 
L 1275 0 
L 697 0 
L 697 3053 
L 147 3053 
L 147 3500 
L 697 3500 
L 697 3744 
Q 697 4328 969 4595 
Q 1241 4863 1831 4863 
L 2375 4863 
z
" transform="scale(0.015625)"/>
      <path id="DejaVuSans-53" d="M 1159 525 
L 1159 -1331 
L 581 -1331 
L 581 3500 
L 1159 3500 
L 1159 2969 
Q 1341 3281 1617 3432 
Q 1894 3584 2278 3584 
Q 2916 3584 3314 3078 
Q 3713 2572 3713 1747 
Q 3713 922 3314 415 
Q 2916 -91 2278 -91 
Q 1894 -91 1617 61 
Q 1341 213 1159 525 
z
M 3116 1747 
Q 3116 2381 2855 2742 
Q 2594 3103 2138 3103 
Q 1681 3103 1420 2742 
Q 1159 2381 1159 1747 
Q 1159 1113 1420 752 
Q 1681 391 2138 391 
Q 2594 391 2855 752 
Q 3116 1113 3116 1747 
z
" transform="scale(0.015625)"/>
      <path id="DejaVuSans-c" d="M 513 4856 
L 1013 4856 
Q 1481 4119 1714 3412 
Q 1947 2706 1947 2009 
Q 1947 1309 1714 600 
Q 1481 -109 1013 -844 
L 513 -844 
Q 928 -128 1133 580 
Q 1338 1288 1338 2009 
Q 1338 2731 1133 3434 
Q 928 4138 513 4856 
z
" transform="scale(0.015625)"/>
     </defs>
     <use xlink:href="#DejaVuSans-Oblique-354" transform="translate(0 0.015625)"/>
     <use xlink:href="#DejaVuSans-20" transform="translate(79.6875 0.015625)"/>
     <use xlink:href="#DejaVuSans-1b" transform="translate(182.958984 0.015625)"/>
     <use xlink:href="#DejaVuSans-3" transform="translate(246.582031 0.015625)"/>
     <use xlink:href="#DejaVuSans-37" transform="translate(278.369141 0.015625)"/>
     <use xlink:href="#DejaVuSans-29" transform="translate(339.453125 0.015625)"/>
     <use xlink:href="#DejaVuSans-2f" transform="translate(396.972656 0.015625)"/>
     <use xlink:href="#DejaVuSans-32" transform="translate(448.685547 0.015625)"/>
     <use xlink:href="#DejaVuSans-33" transform="translate(527.396484 0.015625)"/>
     <use xlink:href="#DejaVuSans-12" transform="translate(587.699219 0.015625)"/>
     <use xlink:href="#DejaVuSans-56" transform="translate(621.390625 0.015625)"/>
     <use xlink:href="#DejaVuSans-3" transform="translate(673.490234 0.015625)"/>
     <use xlink:href="#DejaVuSans-b" transform="translate(705.277344 0.015625)"/>
     <use xlink:href="#DejaVuSans-49" transform="translate(744.291016 0.015625)"/>
     <use xlink:href="#DejaVuSans-53" transform="translate(779.496094 0.015625)"/>
     <use xlink:href="#DejaVuSans-16" transform="translate(842.972656 0.015625)"/>
     <use xlink:href="#DejaVuSans-15" transform="translate(906.595703 0.015625)"/>
     <use xlink:href="#DejaVuSans-c" transform="translate(970.21875 0.015625)"/>
    </g>
   </g>
   <g id="text_15">
    <!-- наклон $\beta = 320$ GB/s -->
    <g style="fill: #52514e" transform="translate(164.985722 186.478586) rotate(-39) scale(0.095 -0.095)">
     <defs>
      <path id="DejaVuSans-Oblique-346" d="M 872 216 
L 572 -1331 
L -6 -1331 
L 928 3478 
Q 1206 4903 2538 4903 
Q 3888 4903 3659 3700 
Q 3503 2844 2894 2531 
Q 3713 2250 3553 1416 
Q 3272 -69 1759 -66 
Q 1097 -63 872 216 
z
M 1019 966 
Q 1259 422 1875 425 
Q 2775 425 2966 1406 
Q 3138 2288 1675 2219 
L 1778 2750 
Q 2909 2731 3106 3750 
Q 3241 4438 2509 4434 
Q 1691 4434 1503 3459 
L 1019 966 
z
" transform="scale(0.015625)"/>
      <path id="DejaVuSans-2a" d="M 3809 666 
L 3809 1919 
L 2778 1919 
L 2778 2438 
L 4434 2438 
L 4434 434 
Q 4069 175 3628 42 
Q 3188 -91 2688 -91 
Q 1594 -91 976 548 
Q 359 1188 359 2328 
Q 359 3472 976 4111 
Q 1594 4750 2688 4750 
Q 3144 4750 3555 4637 
Q 3966 4525 4313 4306 
L 4313 3634 
Q 3963 3931 3569 4081 
Q 3175 4231 2741 4231 
Q 1884 4231 1454 3753 
Q 1025 3275 1025 2328 
Q 1025 1384 1454 906 
Q 1884 428 2741 428 
Q 3075 428 3337 486 
Q 3600 544 3809 666 
z
" transform="scale(0.015625)"/>
      <path id="DejaVuSans-25" d="M 1259 2228 
L 1259 519 
L 2272 519 
Q 2781 519 3026 730 
Q 3272 941 3272 1375 
Q 3272 1813 3026 2020 
Q 2781 2228 2272 2228 
L 1259 2228 
z
M 1259 4147 
L 1259 2741 
L 2194 2741 
Q 2656 2741 2882 2914 
Q 3109 3088 3109 3444 
Q 3109 3797 2882 3972 
Q 2656 4147 2194 4147 
L 1259 4147 
z
M 628 4666 
L 2241 4666 
Q 2963 4666 3353 4366 
Q 3744 4066 3744 3513 
Q 3744 3084 3544 2831 
Q 3344 2578 2956 2516 
Q 3422 2416 3680 2098 
Q 3938 1781 3938 1306 
Q 3938 681 3513 340 
Q 3088 0 2303 0 
L 628 0 
L 628 4666 
z
" transform="scale(0.015625)"/>
     </defs>
     <use xlink:href="#DejaVuSans-3d1" transform="translate(0 0.390625)"/>
     <use xlink:href="#DejaVuSans-3c4" transform="translate(65.380859 0.390625)"/>
     <use xlink:href="#DejaVuSans-3ce" transform="translate(126.660156 0.390625)"/>
     <use xlink:href="#DejaVuSans-3cf" transform="translate(187.060547 0.390625)"/>
     <use xlink:href="#DejaVuSans-3d2" transform="translate(250.976562 0.390625)"/>
     <use xlink:href="#DejaVuSans-3d1" transform="translate(312.158203 0.390625)"/>
     <use xlink:href="#DejaVuSans-3" transform="translate(377.539062 0.390625)"/>
     <use xlink:href="#DejaVuSans-Oblique-346" transform="translate(409.326172 0.390625)"/>
     <use xlink:href="#DejaVuSans-20" transform="translate(492.626953 0.390625)"/>
     <use xlink:href="#DejaVuSans-16" transform="translate(595.898438 0.390625)"/>
     <use xlink:href="#DejaVuSans-15" transform="translate(659.521484 0.390625)"/>
     <use xlink:href="#DejaVuSans-13" transform="translate(723.144531 0.390625)"/>
     <use xlink:href="#DejaVuSans-3" transform="translate(786.767578 0.390625)"/>
     <use xlink:href="#DejaVuSans-2a" transform="translate(818.554688 0.390625)"/>
     <use xlink:href="#DejaVuSans-25" transform="translate(896.044922 0.390625)"/>
     <use xlink:href="#DejaVuSans-12" transform="translate(964.648438 0.390625)"/>
     <use xlink:href="#DejaVuSans-56" transform="translate(998.339844 0.390625)"/>
    </g>
   </g>
   <g id="text_16">
    <!-- точка излома $I^* = \pi / \beta = 25$ FLOP/байт -->
    <g style="fill: #0b0b0b" transform="translate(385.789103 101.725432) scale(0.1 -0.1)">
     <defs>
      <path id="DejaVuSans-3cb" d="M 2206 1888 
Q 2594 1813 2809 1584 
Q 3025 1356 3025 1019 
Q 3025 478 2622 193 
Q 2219 -91 1475 -91 
Q 1225 -91 961 -47 
Q 697 -3 416 84 
L 416 619 
Q 638 503 903 445 
Q 1169 388 1459 388 
Q 1931 388 2195 563 
Q 2459 738 2459 1019 
Q 2459 1294 2225 1461 
Q 1991 1628 1563 1628 
L 1100 1628 
L 1100 2103 
L 1584 2103 
Q 1947 2103 2158 2242 
Q 2369 2381 2369 2600 
Q 2369 2800 2151 2944 
Q 1934 3088 1563 3088 
Q 1341 3088 1089 3047 
Q 838 3006 534 2916 
L 534 3438 
Q 841 3513 1106 3550 
Q 1372 3588 1609 3588 
Q 2222 3588 2576 3342 
Q 2931 3097 2931 2656 
Q 2931 2366 2743 2164 
Q 2556 1963 2206 1888 
z
" transform="scale(0.015625)"/>
      <path id="DejaVuSans-18" d="M 691 4666 
L 3169 4666 
L 3169 4134 
L 1269 4134 
L 1269 2991 
Q 1406 3038 1543 3061 
Q 1681 3084 1819 3084 
Q 2600 3084 3056 2656 
Q 3513 2228 3513 1497 
Q 3513 744 3044 326 
Q 2575 -91 1722 -91 
Q 1428 -91 1123 -41 
Q 819 9 494 109 
L 494 744 
Q 775 591 1075 516 
Q 1375 441 1709 441 
Q 2250 441 2565 725 
Q 2881 1009 2881 1497 
Q 2881 1984 2565 2268 
Q 2250 2553 1709 2553 
Q 1456 2553 1204 2497 
Q 953 2441 691 2322 
L 691 4666 
z
" transform="scale(0.015625)"/>
     </defs>
     <use xlink:href="#DejaVuSans-3d6" transform="translate(0 0.746875)"/>
     <use xlink:href="#DejaVuSans-3d2" transform="translate(58.251953 0.746875)"/>
     <use xlink:href="#DejaVuSans-3db" transform="translate(119.433594 0.746875)"/>
     <use xlink:href="#DejaVuSans-3ce" transform="translate(178.515625 0.746875)"/>
     <use xlink:href="#DejaVuSans-3c4" transform="translate(238.916016 0.746875)"/>
     <use xlink:href="#DejaVuSans-3" transform="translate(300.195312 0.746875)"/>
     <use xlink:href="#DejaVuSans-3cc" transform="translate(331.982422 0.746875)"/>
     <use xlink:href="#DejaVuSans-3cb" transform="translate(396.972656 0.746875)"/>
     <use xlink:href="#DejaVuSans-3cf" transform="translate(450.146484 0.746875)"/>
     <use xlink:href="#DejaVuSans-3d2" transform="translate(514.0625 0.746875)"/>
     <use xlink:href="#DejaVuSans-3d0" transform="translate(575.244141 0.746875)"/>
     <use xlink:href="#DejaVuSans-3c4" transform="translate(650.683594 0.746875)"/>
     <use xlink:href="#DejaVuSans-3" transform="translate(711.962891 0.746875)"/>
     <use xlink:href="#DejaVuSans-Oblique-2c" transform="translate(743.75 0.746875)"/>
     <use xlink:href="#DejaVuSans-d" transform="translate(793.896654 42.046875) scale(0.7)"/>
     <use xlink:href="#DejaVuSans-20" transform="translate(864.751146 0.746875)"/>
     <use xlink:href="#DejaVuSans-Oblique-354" transform="translate(968.02263 0.746875)"/>
     <use xlink:href="#DejaVuSans-12" transform="translate(1028.227708 0.746875)"/>
     <use xlink:href="#DejaVuSans-Oblique-346" transform="translate(1061.919115 0.746875)"/>
     <use xlink:href="#DejaVuSans-20" transform="translate(1145.219896 0.746875)"/>
     <use xlink:href="#DejaVuSans-15" transform="translate(1248.49138 0.746875)"/>
     <use xlink:href="#DejaVuSans-18" transform="translate(1312.114427 0.746875)"/>
     <use xlink:href="#DejaVuSans-3" transform="translate(1375.737474 0.746875)"/>
     <use xlink:href="#DejaVuSans-29" transform="translate(1407.524583 0.746875)"/>
     <use xlink:href="#DejaVuSans-2f" transform="translate(1465.044115 0.746875)"/>
     <use xlink:href="#DejaVuSans-32" transform="translate(1516.757005 0.746875)"/>
     <use xlink:href="#DejaVuSans-33" transform="translate(1595.467943 0.746875)"/>
     <use xlink:href="#DejaVuSans-12" transform="translate(1655.770677 0.746875)"/>
     <use xlink:href="#DejaVuSans-3c5" transform="translate(1689.462083 0.746875)"/>
     <use xlink:href="#DejaVuSans-3c4" transform="translate(1751.132005 0.746875)"/>
     <use xlink:href="#DejaVuSans-3cd" transform="translate(1812.411302 0.746875)"/>
     <use xlink:href="#DejaVuSans-3d6" transform="translate(1877.401536 0.746875)"/>
    </g>
   </g>
   <g id="text_17">
    <!-- рекуррентная форма: $I = 0.5$ -->
    <g style="fill: #52514e" transform="translate(189.412729 217.151687) scale(0.1 -0.1)">
     <defs>
      <path id="DejaVuSans-11" d="M 684 794 
L 1344 794 
L 1344 0 
L 684 0 
L 684 794 
z
" transform="scale(0.015625)"/>
     </defs>
     <use xlink:href="#DejaVuSans-3d4" transform="translate(0 0.78125)"/>
     <use xlink:href="#DejaVuSans-3c9" transform="translate(63.476562 0.78125)"/>
     <use xlink:href="#DejaVuSans-3ce" transform="translate(125 0.78125)"/>
     <use xlink:href="#DejaVuSans-3d7" transform="translate(185.400391 0.78125)"/>
     <use xlink:href="#DejaVuSans-3d4" transform="translate(244.580078 0.78125)"/>
     <use xlink:href="#DejaVuSans-3d4" transform="translate(308.056641 0.78125)"/>
     <use xlink:href="#DejaVuSans-3c9" transform="translate(371.533203 0.78125)"/>
     <use xlink:href="#DejaVuSans-3d1" transform="translate(433.056641 0.78125)"/>
     <use xlink:href="#DejaVuSans-3d6" transform="translate(498.4375 0.78125)"/>
     <use xlink:href="#DejaVuSans-3d1" transform="translate(556.689453 0.78125)"/>
     <use xlink:href="#DejaVuSans-3c4" transform="translate(622.070312 0.78125)"/>
     <use xlink:href="#DejaVuSans-3e3" transform="translate(683.349609 0.78125)"/>
     <use xlink:href="#DejaVuSans-3" transform="translate(743.505859 0.78125)"/>
     <use xlink:href="#DejaVuSans-3d8" transform="translate(775.292969 0.78125)"/>
     <use xlink:href="#DejaVuSans-3d2" transform="translate(860.791016 0.78125)"/>
     <use xlink:href="#DejaVuSans-3d4" transform="translate(921.972656 0.78125)"/>
     <use xlink:href="#DejaVuSans-3d0" transform="translate(985.449219 0.78125)"/>
     <use xlink:href="#DejaVuSans-3c4" transform="translate(1060.888672 0.78125)"/>
     <use xlink:href="#DejaVuSans-1d" transform="translate(1122.167969 0.78125)"/>
     <use xlink:href="#DejaVuSans-3" transform="translate(1155.859375 0.78125)"/>
     <use xlink:href="#DejaVuSans-Oblique-2c" transform="translate(1187.646484 0.78125)"/>
     <use xlink:href="#DejaVuSans-20" transform="translate(1236.621094 0.78125)"/>
     <use xlink:href="#DejaVuSans-13" transform="translate(1339.892578 0.78125)"/>
     <use xlink:href="#DejaVuSans-11" transform="translate(1403.515625 0.78125)"/>
     <use xlink:href="#DejaVuSans-18" transform="translate(1435.302734 0.78125)"/>
    </g>
    <!-- в 50 раз левее излома, ≤ 2% пика -->
    <g style="fill: #52514e" transform="translate(189.412729 229.15364) scale(0.1 -0.1)">
     <defs>
      <path id="DejaVuSans-cee" d="M 4684 3175 
L 1684 2309 
L 4684 1453 
L 4684 897 
L 678 2047 
L 678 2578 
L 4684 3725 
L 4684 3175 
z
M 678 531 
L 4684 531 
L 4684 0 
L 678 0 
L 678 531 
z
" transform="scale(0.015625)"/>
      <path id="DejaVuSans-8" d="M 4653 2053 
Q 4381 2053 4226 1822 
Q 4072 1591 4072 1178 
Q 4072 772 4226 539 
Q 4381 306 4653 306 
Q 4919 306 5073 539 
Q 5228 772 5228 1178 
Q 5228 1588 5073 1820 
Q 4919 2053 4653 2053 
z
M 4653 2450 
Q 5147 2450 5437 2106 
Q 5728 1763 5728 1178 
Q 5728 594 5436 251 
Q 5144 -91 4653 -91 
Q 4153 -91 3862 251 
Q 3572 594 3572 1178 
Q 3572 1766 3864 2108 
Q 4156 2450 4653 2450 
z
M 1428 4353 
Q 1159 4353 1004 4120 
Q 850 3888 850 3481 
Q 850 3069 1003 2837 
Q 1156 2606 1428 2606 
Q 1700 2606 1854 2837 
Q 2009 3069 2009 3481 
Q 2009 3884 1853 4118 
Q 1697 4353 1428 4353 
z
M 4250 4750 
L 4750 4750 
L 1831 -91 
L 1331 -91 
L 4250 4750 
z
M 1428 4750 
Q 1922 4750 2215 4408 
Q 2509 4066 2509 3481 
Q 2509 2891 2217 2550 
Q 1925 2209 1428 2209 
Q 931 2209 642 2551 
Q 353 2894 353 3481 
Q 353 4063 643 4406 
Q 934 4750 1428 4750 
z
" transform="scale(0.015625)"/>
     </defs>
     <use xlink:href="#DejaVuSans-3c6"/>
     <use xlink:href="#DejaVuSans-3" transform="translate(58.9375 0)"/>
     <use xlink:href="#DejaVuSans-18" transform="translate(90.71875 0)"/>
     <use xlink:href="#DejaVuSans-13" transform="translate(154.34375 0)"/>
     <use xlink:href="#DejaVuSans-3" transform="translate(217.96875 0)"/>
     <use xlink:href="#DejaVuSans-3d4" transform="translate(249.75 0)"/>
     <use xlink:href="#DejaVuSans-3c4" transform="translate(313.234375 0)"/>
     <use xlink:href="#DejaVuSans-3cb" transform="translate(374.515625 0)"/>
     <use xlink:href="#DejaVuSans-3" transform="translate(427.6875 0)"/>
     <use xlink:href="#DejaVuSans-3cf" transform="translate(459.46875 0)"/>
     <use xlink:href="#DejaVuSans-3c9" transform="translate(523.390625 0)"/>
     <use xlink:href="#DejaVuSans-3c6" transform="translate(584.921875 0)"/>
     <use xlink:href="#DejaVuSans-3c9" transform="translate(643.859375 0)"/>
     <use xlink:href="#DejaVuSans-3c9" transform="translate(705.390625 0)"/>
     <use xlink:href="#DejaVuSans-3" transform="translate(766.921875 0)"/>
     <use xlink:href="#DejaVuSans-3cc" transform="translate(798.703125 0)"/>
     <use xlink:href="#DejaVuSans-3cb" transform="translate(863.6875 0)"/>
     <use xlink:href="#DejaVuSans-3cf" transform="translate(916.859375 0)"/>
     <use xlink:href="#DejaVuSans-3d2" transform="translate(980.78125 0)"/>
     <use xlink:href="#DejaVuSans-3d0" transform="translate(1041.96875 0)"/>
     <use xlink:href="#DejaVuSans-3c4" transform="translate(1117.40625 0)"/>
     <use xlink:href="#DejaVuSans-f" transform="translate(1178.6875 0)"/>
     <use xlink:href="#DejaVuSans-3" transform="translate(1210.46875 0)"/>
     <use xlink:href="#DejaVuSans-cee" transform="translate(1242.25 0)"/>
     <use xlink:href="#DejaVuSans-3" transform="translate(1326.046875 0)"/>
     <use xlink:href="#DejaVuSans-15" transform="translate(1357.828125 0)"/>
     <use xlink:href="#DejaVuSans-8" transform="translate(1421.453125 0)"/>
     <use xlink:href="#DejaVuSans-3" transform="translate(1516.46875 0)"/>
     <use xlink:href="#DejaVuSans-3d3" transform="translate(1548.25 0)"/>
     <use xlink:href="#DejaVuSans-3cc" transform="translate(1613.625 0)"/>
     <use xlink:href="#DejaVuSans-3ce" transform="translate(1678.609375 0)"/>
     <use xlink:href="#DejaVuSans-3c4" transform="translate(1739.015625 0)"/>
    </g>
   </g>
   <g id="text_18">
    <!-- шаг по чанку: $I = (L + d)/4 = 32$ -->
    <g style="fill: #52514e" transform="translate(398.307232 134.926409) scale(0.1 -0.1)">
     <defs>
      <path id="DejaVuSans-3c7" d="M 581 0 
L 581 3500 
L 3050 3500 
L 3050 3041 
L 1159 3041 
L 1159 0 
L 581 0 
z
" transform="scale(0.015625)"/>
      <path id="DejaVuSans-Oblique-2f" d="M 1075 4666 
L 1709 4666 
L 909 525 
L 3181 525 
L 3078 0 
L 172 0 
L 1075 4666 
z
" transform="scale(0.015625)"/>
      <path id="DejaVuSans-e" d="M 2944 4013 
L 2944 2272 
L 4684 2272 
L 4684 1741 
L 2944 1741 
L 2944 0 
L 2419 0 
L 2419 1741 
L 678 1741 
L 678 2272 
L 2419 2272 
L 2419 4013 
L 2944 4013 
z
" transform="scale(0.015625)"/>
      <path id="DejaVuSans-Oblique-47" d="M 2675 525 
Q 2444 222 2128 65 
Q 1813 -91 1428 -91 
Q 903 -91 598 267 
Q 294 625 294 1247 
Q 294 1766 478 2236 
Q 663 2706 1013 3078 
Q 1244 3325 1534 3454 
Q 1825 3584 2144 3584 
Q 2481 3584 2739 3421 
Q 2997 3259 3138 2956 
L 3513 4863 
L 4091 4863 
L 3144 0 
L 2566 0 
L 2675 525 
z
M 891 1350 
Q 891 897 1095 644 
Q 1300 391 1663 391 
Q 1931 391 2161 520 
Q 2391 650 2566 903 
Q 2750 1166 2856 1509 
Q 2963 1853 2963 2188 
Q 2963 2622 2758 2865 
Q 2553 3109 2194 3109 
Q 1922 3109 1687 2981 
Q 1453 2853 1288 2613 
Q 1106 2353 998 2009 
Q 891 1666 891 1350 
z
" transform="scale(0.015625)"/>
      <path id="DejaVuSans-17" d="M 2419 4116 
L 825 1625 
L 2419 1625 
L 2419 4116 
z
M 2253 4666 
L 3047 4666 
L 3047 1625 
L 3713 1625 
L 3713 1100 
L 3047 1100 
L 3047 0 
L 2419 0 
L 2419 1100 
L 313 1100 
L 313 1709 
L 2253 4666 
z
" transform="scale(0.015625)"/>
     </defs>
     <use xlink:href="#DejaVuSans-3dc" transform="translate(0 0.015625)"/>
     <use xlink:href="#DejaVuSans-3c4" transform="translate(91.503906 0.015625)"/>
     <use xlink:href="#DejaVuSans-3c7" transform="translate(152.783203 0.015625)"/>
     <use xlink:href="#DejaVuSans-3" transform="translate(205.322266 0.015625)"/>
     <use xlink:href="#DejaVuSans-3d3" transform="translate(237.109375 0.015625)"/>
     <use xlink:href="#DejaVuSans-3d2" transform="translate(302.490234 0.015625)"/>
     <use xlink:href="#DejaVuSans-3" transform="translate(363.671875 0.015625)"/>
     <use xlink:href="#DejaVuSans-3db" transform="translate(395.458984 0.015625)"/>
     <use xlink:href="#DejaVuSans-3c4" transform="translate(454.541016 0.015625)"/>
     <use xlink:href="#DejaVuSans-3d1" transform="translate(515.820312 0.015625)"/>
     <use xlink:href="#DejaVuSans-3ce" transform="translate(581.201172 0.015625)"/>
     <use xlink:href="#DejaVuSans-3d7" transform="translate(641.601562 0.015625)"/>
     <use xlink:href="#DejaVuSans-1d" transform="translate(700.78125 0.015625)"/>
     <use xlink:href="#DejaVuSans-3" transform="translate(734.472656 0.015625)"/>
     <use xlink:href="#DejaVuSans-Oblique-2c" transform="translate(766.259766 0.015625)"/>
     <use xlink:href="#DejaVuSans-20" transform="translate(815.234375 0.015625)"/>
     <use xlink:href="#DejaVuSans-b" transform="translate(918.505859 0.015625)"/>
     <use xlink:href="#DejaVuSans-Oblique-2f" transform="translate(957.519531 0.015625)"/>
     <use xlink:href="#DejaVuSans-e" transform="translate(1032.714844 0.015625)"/>
     <use xlink:href="#DejaVuSans-Oblique-47" transform="translate(1135.986328 0.015625)"/>
     <use xlink:href="#DejaVuSans-c" transform="translate(1199.462891 0.015625)"/>
     <use xlink:href="#DejaVuSans-12" transform="translate(1238.476562 0.015625)"/>
     <use xlink:href="#DejaVuSans-17" transform="translate(1272.167969 0.015625)"/>
     <use xlink:href="#DejaVuSans-20" transform="translate(1355.273438 0.015625)"/>
     <use xlink:href="#DejaVuSans-16" transform="translate(1458.544922 0.015625)"/>
     <use xlink:href="#DejaVuSans-15" transform="translate(1522.167969 0.015625)"/>
    </g>
    <!-- прямо в углу -->
    <g style="fill: #52514e" transform="translate(398.307232 146.928362) scale(0.1 -0.1)">
     <use xlink:href="#DejaVuSans-3d3"/>
     <use xlink:href="#DejaVuSans-3d4" transform="translate(65.375 0)"/>
     <use xlink:href="#DejaVuSans-3e3" transform="translate(128.859375 0)"/>
     <use xlink:href="#DejaVuSans-3d0" transform="translate(189.015625 0)"/>
     <use xlink:href="#DejaVuSans-3d2" transform="translate(264.453125 0)"/>
     <use xlink:href="#DejaVuSans-3" transform="translate(325.640625 0)"/>
     <use xlink:href="#DejaVuSans-3c6" transform="translate(357.421875 0)"/>
     <use xlink:href="#DejaVuSans-3" transform="translate(416.359375 0)"/>
     <use xlink:href="#DejaVuSans-3d7" transform="translate(448.140625 0)"/>
     <use xlink:href="#DejaVuSans-3c7" transform="translate(507.328125 0)"/>
     <use xlink:href="#DejaVuSans-3cf" transform="translate(559.875 0)"/>
     <use xlink:href="#DejaVuSans-3d7" transform="translate(623.796875 0)"/>
    </g>
   </g>
   <g id="text_19">
    <!-- Roofline:  $P(I) = \min(\pi,\ \beta \cdot I)$ -->
    <g style="fill: #0b0b0b" transform="translate(58.65 20.04) scale(0.12 -0.12)">
     <defs>
      <path id="DejaVuSans-35" d="M 2841 2188 
Q 3044 2119 3236 1894 
Q 3428 1669 3622 1275 
L 4263 0 
L 3584 0 
L 2988 1197 
Q 2756 1666 2539 1819 
Q 2322 1972 1947 1972 
L 1259 1972 
L 1259 0 
L 628 0 
L 628 4666 
L 2053 4666 
Q 2853 4666 3247 4331 
Q 3641 3997 3641 3322 
Q 3641 2881 3436 2590 
Q 3231 2300 2841 2188 
z
M 1259 4147 
L 1259 2491 
L 2053 2491 
Q 2509 2491 2742 2702 
Q 2975 2913 2975 3322 
Q 2975 3731 2742 3939 
Q 2509 4147 2053 4147 
L 1259 4147 
z
" transform="scale(0.015625)"/>
      <path id="DejaVuSans-52" d="M 1959 3097 
Q 1497 3097 1228 2736 
Q 959 2375 959 1747 
Q 959 1119 1226 758 
Q 1494 397 1959 397 
Q 2419 397 2687 759 
Q 2956 1122 2956 1747 
Q 2956 2369 2687 2733 
Q 2419 3097 1959 3097 
z
M 1959 3584 
Q 2709 3584 3137 3096 
Q 3566 2609 3566 1747 
Q 3566 888 3137 398 
Q 2709 -91 1959 -91 
Q 1206 -91 779 398 
Q 353 888 353 1747 
Q 353 2609 779 3096 
Q 1206 3584 1959 3584 
z
" transform="scale(0.015625)"/>
      <path id="DejaVuSans-4f" d="M 603 4863 
L 1178 4863 
L 1178 0 
L 603 0 
L 603 4863 
z
" transform="scale(0.015625)"/>
      <path id="DejaVuSans-4c" d="M 603 3500 
L 1178 3500 
L 1178 0 
L 603 0 
L 603 3500 
z
M 603 4863 
L 1178 4863 
L 1178 4134 
L 603 4134 
L 603 4863 
z
" transform="scale(0.015625)"/>
      <path id="DejaVuSans-51" d="M 3513 2113 
L 3513 0 
L 2938 0 
L 2938 2094 
Q 2938 2591 2744 2837 
Q 2550 3084 2163 3084 
Q 1697 3084 1428 2787 
Q 1159 2491 1159 1978 
L 1159 0 
L 581 0 
L 581 3500 
L 1159 3500 
L 1159 2956 
Q 1366 3272 1645 3428 
Q 1925 3584 2291 3584 
Q 2894 3584 3203 3211 
Q 3513 2838 3513 2113 
z
" transform="scale(0.015625)"/>
      <path id="DejaVuSans-48" d="M 3597 1894 
L 3597 1613 
L 953 1613 
Q 991 1019 1311 708 
Q 1631 397 2203 397 
Q 2534 397 2845 478 
Q 3156 559 3463 722 
L 3463 178 
Q 3153 47 2828 -22 
Q 2503 -91 2169 -91 
Q 1331 -91 842 396 
Q 353 884 353 1716 
Q 353 2575 817 3079 
Q 1281 3584 2069 3584 
Q 2775 3584 3186 3129 
Q 3597 2675 3597 1894 
z
M 3022 2063 
Q 3016 2534 2758 2815 
Q 2500 3097 2075 3097 
Q 1594 3097 1305 2825 
Q 1016 2553 972 2059 
L 3022 2063 
z
" transform="scale(0.015625)"/>
      <path id="DejaVuSans-Oblique-33" d="M 1081 4666 
L 2541 4666 
Q 3178 4666 3512 4369 
Q 3847 4072 3847 3500 
Q 3847 2731 3353 2303 
Q 2859 1875 1966 1875 
L 1172 1875 
L 806 0 
L 172 0 
L 1081 4666 
z
M 1613 4147 
L 1275 2394 
L 2069 2394 
Q 2606 2394 2893 2669 
Q 3181 2944 3181 3456 
Q 3181 3784 2986 3965 
Q 2791 4147 2438 4147 
L 1613 4147 
z
" transform="scale(0.015625)"/>
      <path id="DejaVuSans-50" d="M 3328 2828 
Q 3544 3216 3844 3400 
Q 4144 3584 4550 3584 
Q 5097 3584 5394 3201 
Q 5691 2819 5691 2113 
L 5691 0 
L 5113 0 
L 5113 2094 
Q 5113 2597 4934 2840 
Q 4756 3084 4391 3084 
Q 3944 3084 3684 2787 
Q 3425 2491 3425 1978 
L 3425 0 
L 2847 0 
L 2847 2094 
Q 2847 2600 2669 2842 
Q 2491 3084 2119 3084 
Q 1678 3084 1418 2786 
Q 1159 2488 1159 1978 
L 1159 0 
L 581 0 
L 581 3500 
L 1159 3500 
L 1159 2956 
Q 1356 3278 1631 3431 
Q 1906 3584 2284 3584 
Q 2666 3584 2933 3390 
Q 3200 3197 3328 2828 
z
" transform="scale(0.015625)"/>
      <path id="DejaVuSans-d4f" d="M 684 2619 
L 1344 2619 
L 1344 1825 
L 684 1825 
L 684 2619 
z
" transform="scale(0.015625)"/>
     </defs>
     <use xlink:href="#DejaVuSans-35" transform="translate(0 0.390625)"/>
     <use xlink:href="#DejaVuSans-52" transform="translate(65.482422 0.390625)"/>
     <use xlink:href="#DejaVuSans-52" transform="translate(126.664062 0.390625)"/>
     <use xlink:href="#DejaVuSans-49" transform="translate(187.845703 0.390625)"/>
     <use xlink:href="#DejaVuSans-4f" transform="translate(223.050781 0.390625)"/>
     <use xlink:href="#DejaVuSans-4c" transform="translate(250.833984 0.390625)"/>
     <use xlink:href="#DejaVuSans-51" transform="translate(278.617188 0.390625)"/>
     <use xlink:href="#DejaVuSans-48" transform="translate(341.996094 0.390625)"/>
     <use xlink:href="#DejaVuSans-1d" transform="translate(403.519531 0.390625)"/>
     <use xlink:href="#DejaVuSans-3" transform="translate(437.210938 0.390625)"/>
     <use xlink:href="#DejaVuSans-3" transform="translate(468.998047 0.390625)"/>
     <use xlink:href="#DejaVuSans-Oblique-33" transform="translate(500.785156 0.390625)"/>
     <use xlink:href="#DejaVuSans-b" transform="translate(561.087891 0.390625)"/>
     <use xlink:href="#DejaVuSans-Oblique-2c" transform="translate(600.101562 0.390625)"/>
     <use xlink:href="#DejaVuSans-c" transform="translate(629.59375 0.390625)"/>
     <use xlink:href="#DejaVuSans-20" transform="translate(688.089844 0.390625)"/>
     <use xlink:href="#DejaVuSans-50" transform="translate(791.361328 0.390625)"/>
     <use xlink:href="#DejaVuSans-4c" transform="translate(888.773438 0.390625)"/>
     <use xlink:href="#DejaVuSans-51" transform="translate(916.556641 0.390625)"/>
     <use xlink:href="#DejaVuSans-b" transform="translate(979.935547 0.390625)"/>
     <use xlink:href="#DejaVuSans-Oblique-354" transform="translate(1018.949219 0.390625)"/>
     <use xlink:href="#DejaVuSans-f" transform="translate(1079.154297 0.390625)"/>
     <use xlink:href="#DejaVuSans-Oblique-346" transform="translate(1162.894207 0.390625)"/>
     <use xlink:href="#DejaVuSans-d4f" transform="translate(1246.194988 0.390625)"/>
     <use xlink:href="#DejaVuSans-Oblique-2c" transform="translate(1297.464519 0.390625)"/>
     <use xlink:href="#DejaVuSans-c" transform="translate(1326.956707 0.390625)"/>
    </g>
   </g>
   <g id="line2d_86">
    <defs>
     <path id="m16c1836954" d="M 0 4 
C 1.060812 4 2.078319 3.578535 2.828427 2.828427 
C 3.578535 2.078319 4 1.060812 4 0 
C 4 -1.060812 3.578535 -2.078319 2.828427 -2.828427 
C 2.078319 -3.578535 1.060812 -4 0 -4 
C -1.060812 -4 -2.078319 -3.578535 -2.828427 -2.828427 
C -3.578535 -2.078319 -4 -1.060812 -4 0 
C -4 1.060812 -3.578535 2.078319 -2.828427 2.828427 
C -2.078319 3.578535 -1.060812 4 0 4 
z
" style="stroke: #fcfcfb; stroke-width: 2"/>
    </defs>
    <g clip-path="url(#pa435dcdd1d)">
     <use xlink:href="#m16c1836954" x="373.789103" y="80.325432" style="fill: #0b0b0b; stroke: #fcfcfb; stroke-width: 2"/>
    </g>
   </g>
   <g id="line2d_87">
    <defs>
     <path id="m11133cb76e" d="M 0 4 
C 1.060812 4 2.078319 3.578535 2.828427 2.828427 
C 3.578535 2.078319 4 1.060812 4 0 
C 4 -1.060812 3.578535 -2.078319 2.828427 -2.828427 
C 2.078319 -3.578535 1.060812 -4 0 -4 
C -1.060812 -4 -2.078319 -3.578535 -2.828427 -2.828427 
C -3.578535 -2.078319 -4 -1.060812 -4 0 
C -4 1.060812 -3.578535 2.078319 -2.828427 2.828427 
C -2.078319 3.578535 -1.060812 4 0 4 
z
" style="stroke: #fcfcfb; stroke-width: 2"/>
    </defs>
    <g clip-path="url(#pa435dcdd1d)">
     <use xlink:href="#m11133cb76e" x="175.412729" y="202.553054" style="fill: #2a78d6; stroke: #fcfcfb; stroke-width: 2"/>
    </g>
   </g>
   <g id="line2d_88">
    <g clip-path="url(#pa435dcdd1d)">
     <use xlink:href="#m11133cb76e" x="386.307232" y="80.325432" style="fill: #2a78d6; stroke: #fcfcfb; stroke-width: 2"/>
    </g>
   </g>
  </g>
 </g>
 <defs>
  <clipPath id="pa435dcdd1d">
   <rect x="58.65" y="30.04" width="502.2" height="266.112"/>
  </clipPath>
 </defs>
</svg>
